<svg width="708" height="107" viewBox="0 0 708 107" fill="none" xmlns="http://www.w3.org/2000/svg">
<path d="M3.37786 49.3296L36.1633 43.6135L37.2845 50.0445L24.6117 52.254L30.6246 86.7418L23.1848 88.0389L17.1719 53.5511L4.49908 55.7606L3.37786 49.3296Z" fill="#FFC700"/>
<path d="M58.8534 55.7181C60.3749 51.5175 63.1605 49.1106 67.2103 48.4972C71.2601 47.8838 74.4227 48.6779 76.698 50.8793C79.0155 53.0743 80.4842 56.2178 81.1039 60.3098L83.8258 78.2809L76.3589 79.4118L73.6371 61.4408C73.2921 59.1627 72.4849 57.5373 71.2155 56.5644C69.9398 55.5493 68.3106 55.1919 66.3279 55.4922C64.3452 55.7925 62.7708 56.9372 61.6049 58.9262C60.4811 60.9089 60.1454 63.6784 60.5977 67.2347L62.7541 81.4724L55.2872 82.6033L48.7126 39.1943L56.1795 38.0634L58.8534 55.7181Z" fill="#FFC700"/>
<path d="M107.513 56.7612C109.967 56.4472 112.854 56.4865 116.174 56.8792L115.784 53.832C115.508 51.6736 114.86 50.1434 113.842 49.2413C112.86 48.2916 111.374 47.9439 109.385 48.1984C107.438 48.4474 105.987 49.0417 105.032 49.9811C104.072 50.8783 103.683 52.0463 103.867 53.4852L95.6782 54.5328C95.2289 51.0201 96.1314 48.3238 98.3857 46.4439C100.682 44.5586 104.053 43.3317 108.496 42.7632C114.845 41.9511 119.234 43.6479 121.665 47.8535C122.494 49.2959 123.042 51.0539 123.307 53.1277L125.817 72.7438L119.278 73.5803L118.179 69.527C116.617 73.1249 113.784 75.1864 109.679 75.7115C105.7 76.2204 102.486 75.6422 100.037 73.9769C97.767 72.3747 96.4508 70.1557 96.0881 67.3202C95.7199 64.4423 96.56 62.0981 98.6081 60.2876C100.651 58.4347 103.619 57.2593 107.513 56.7612ZM116.783 61.6404C114.199 61.2827 111.828 61.2418 109.67 61.5179C105.607 62.0377 103.749 63.6518 104.095 66.3604C104.241 67.5031 104.834 68.4381 105.873 69.1655C106.907 69.8505 108.44 70.063 110.471 69.8032C112.545 69.5379 114.151 68.6442 115.29 67.1221C116.466 65.5522 116.963 63.725 116.783 61.6404Z" fill="#FFC700"/>
<path d="M146.897 44.4726C148.504 40.1435 151.556 37.7438 156.055 37.2737C159.874 36.8745 162.869 37.8269 165.04 40.131C167.254 42.4307 168.576 45.6386 169.006 49.7549L170.896 67.8324L163.385 68.6175L161.495 50.54C161.256 48.2484 160.524 46.5875 159.301 45.557C158.074 44.4842 156.463 44.052 154.468 44.2604C152.474 44.4689 150.848 45.5397 149.592 47.4728C148.378 49.4014 147.915 52.1525 148.202 55.7259L149.699 70.0479L142.188 70.833L138.955 39.8975L145.511 39.2122L146.897 44.4726Z" fill="#FFC700"/>
<path d="M196.558 50.3655L193.347 53.5168L194.345 65.7641L186.818 66.3776L183.252 22.6187L190.779 22.0052L192.707 45.6708L204.066 33.7647L214.272 32.9329L201.493 45.5326L217.564 63.8718L208.379 64.6204L196.558 50.3655Z" fill="#FFC700"/>
<path d="M232.204 53.4619C232.466 56.3955 234.705 57.7355 238.922 57.4819C240.54 57.3845 241.84 56.9644 242.821 56.2215C243.842 55.4334 244.325 54.5709 244.269 53.6339C244.212 52.697 243.849 51.9922 243.18 51.5195C242.51 51.0469 241.481 50.6386 240.092 50.2946L233.175 48.2743C228.044 46.8304 225.36 44.128 225.121 40.1672C224.963 37.5266 226.007 35.348 228.255 33.6313C230.542 31.8694 233.667 30.8694 237.627 30.6312C241.631 30.3904 244.75 31.079 246.984 32.6971C249.262 34.3127 250.522 36.4381 250.766 39.0736L243.675 39.5001C243.528 38.4831 242.99 37.7033 242.06 37.1609C241.129 36.6184 239.834 36.3971 238.173 36.497C236.512 36.5969 235.233 37.0158 234.337 37.7536C233.481 38.4462 233.079 39.2184 233.13 40.0702C233.22 41.5608 234.543 42.5926 237.099 43.1655L244.611 45.4707C247.087 46.1339 249.003 47.0659 250.357 48.2667C251.752 49.4224 252.509 51.0011 252.63 53.0028C252.783 55.5582 251.703 57.8459 249.388 59.8658C246.993 61.9761 243.73 63.1555 239.599 63.4039C235.467 63.6524 232.092 62.9578 229.471 61.3202C226.848 59.64 225.417 57.1614 225.177 53.8846L232.204 53.4619Z" fill="#FFC700"/>
<path d="M284.944 29.1758L289.55 29.0344L289.438 25.3881C289.34 22.1896 290.203 19.7087 292.027 17.9452C293.686 16.3575 295.88 15.5218 298.609 15.438C300.358 15.3843 302.519 15.5741 305.094 16.0073L303.801 21.8737C302.594 21.4839 301.5 21.3041 300.519 21.3342C299.581 21.363 298.758 21.6657 298.05 22.2424C297.341 22.7764 297.008 23.7684 297.053 25.2184L297.163 28.8007L302.856 28.6259L303.011 33.6795L297.318 33.8543L298.117 59.89L290.505 60.1238L289.705 34.088L285.1 34.2294L284.944 29.1758Z" fill="#FFC700"/>
<path d="M329.995 27.2892C332.086 27.2639 334.053 27.5816 335.895 28.2421C337.738 28.8599 339.328 29.8434 340.667 31.1927C343.647 34.1436 345.169 38.2642 345.233 43.5545C345.296 48.7594 343.873 52.8729 340.965 55.8949C338.353 58.6573 334.829 60.0652 330.392 60.1188C325.955 60.1723 322.354 58.8503 319.591 56.1528C316.612 53.2446 315.09 49.1666 315.027 43.919C314.963 38.5861 316.385 34.4299 319.293 31.4506C321.948 28.7304 325.516 27.3432 329.995 27.2892ZM337.681 43.5816C337.641 40.2965 336.971 37.8511 335.672 36.2453C334.372 34.5969 332.57 33.7866 330.266 33.8144C328.005 33.8417 326.159 34.696 324.729 36.3774C323.298 38.0161 322.602 40.478 322.642 43.7631C322.681 47.0482 323.351 49.515 324.651 51.1634C325.993 52.7687 327.795 53.5576 330.056 53.5304C332.317 53.5031 334.163 52.6701 335.594 51.0313C337.025 49.35 337.72 46.8667 337.681 43.5816Z" fill="#FFC700"/>
<path d="M367.765 34.1726C369.676 29.7065 372.508 27.4873 376.262 27.5149C376.988 27.5202 377.904 27.6763 379.011 27.9831L378.828 35.5339C377.635 35.2692 376.463 35.1325 375.311 35.1241C370.276 35.0871 367.733 38.5458 367.682 45.5003L367.582 59.132L360.03 59.0765L360.259 27.9093L367.811 27.9648L367.765 34.1726Z" fill="#FFC700"/>
<path d="M422.274 35.3454C424.31 30.9352 427.204 28.7971 430.956 28.931C431.681 28.9569 432.593 29.1389 433.69 29.4769L433.293 37.0195C432.108 36.7211 430.94 36.5513 429.789 36.5102C424.758 36.3306 422.118 39.716 421.87 46.6662L421.384 60.2895L413.836 60.0202L414.948 28.872L422.495 29.1414L422.274 35.3454Z" fill="#FFC700"/>
<path d="M468.841 35.1069C469.832 36.5281 470.534 38.1473 470.948 39.9644C471.405 41.7839 471.593 43.4392 471.512 44.9303C471.431 46.4215 471.272 47.7588 471.037 48.9425L450.971 47.8518C450.919 50.37 451.426 52.4486 452.491 54.0874C453.555 55.7263 455.259 56.6094 457.602 56.7368C460.712 56.9058 462.64 55.6433 463.384 52.949L470.989 53.3624C470.309 56.4447 468.749 58.8168 466.308 60.4788C463.778 62.2214 460.766 62.9977 457.272 62.8078C453.182 62.5855 449.834 60.908 447.227 57.7752C444.541 54.5099 443.331 50.4489 443.595 45.5921C443.866 40.6074 445.51 36.6803 448.529 33.8105C451.413 31.0617 454.922 29.7996 459.054 30.0242C463.357 30.2581 466.62 31.9523 468.841 35.1069ZM458.792 36.0348C456.662 35.919 454.962 36.5317 453.692 37.8728C452.425 39.1712 451.626 40.9011 451.295 43.0623L464.524 43.7814C464.707 40.4157 463.764 38.0998 461.697 36.8337C460.91 36.3636 459.942 36.0973 458.792 36.0348Z" fill="#FFC700"/>
<path d="M496.072 46.2004C498.54 46.3878 501.359 47.0085 504.531 48.0625L504.764 44.9993C504.929 42.8295 504.603 41.2002 503.787 40.1113C503.017 38.983 501.632 38.343 499.633 38.1911C497.676 38.0424 496.135 38.3319 495.01 39.0594C493.888 39.7444 493.272 40.8102 493.162 42.2567L484.93 41.6314C485.198 38.1002 486.626 35.6413 489.213 34.2546C491.843 32.8711 495.391 32.349 499.858 32.6884C506.24 33.1731 510.197 35.7201 511.73 40.3295C512.251 41.9095 512.433 43.7419 512.275 45.8265L510.777 65.5457L504.204 65.0465L503.945 60.8548C501.69 64.0639 498.499 65.5117 494.372 65.1982C490.373 64.8945 487.342 63.68 485.278 61.555C483.378 59.5279 482.536 57.0892 482.753 54.2387C482.973 51.3457 484.268 49.219 486.639 47.8587C489.014 46.4559 492.158 45.9031 496.072 46.2004ZM504.168 52.8487C501.709 51.9773 499.395 51.4592 497.226 51.2944C493.141 50.9842 490.996 52.1905 490.789 54.9133C490.702 56.062 491.094 57.0973 491.965 58.0193C492.84 58.8987 494.298 59.416 496.34 59.5711C498.425 59.7295 500.178 59.178 501.6 57.9168C503.069 56.6162 503.924 54.9269 504.168 52.8487Z" fill="#FFC700"/>
<path d="M547.86 64.2022C545.575 67.7914 542.458 69.3901 538.509 68.9983C534.56 68.6066 531.398 66.7707 529.023 63.4908C526.574 60.075 525.591 55.947 526.071 51.1068C526.551 46.2666 528.257 42.4698 531.189 39.7164C534.069 37.0438 537.441 35.8992 541.305 36.2825C545.169 36.6659 547.923 38.5042 549.569 41.7974L551.212 25.2387L558.791 25.9907L554.456 69.6802L548.278 69.0672L547.86 64.2022ZM542.036 43.1724C539.913 42.9618 538.044 43.6552 536.427 45.2528C534.858 46.8121 533.93 49.0353 533.643 51.9225C533.357 54.8096 533.847 57.2164 535.114 59.1429C536.384 61.0269 538.124 62.0785 540.332 62.2976C542.157 62.4787 543.864 61.9191 545.45 60.6188C547.084 59.2802 548.012 57.4857 548.236 55.2355L548.634 51.2232C548.768 49.0069 548.204 47.1287 546.942 45.5886C545.794 44.1884 544.159 43.3831 542.036 43.1724Z" fill="#FFC700"/>
<path d="M576.122 40.7723L583.622 41.6578L579.967 72.6108L572.467 71.7253L576.122 40.7723ZM576.403 30.7521C576.563 29.3962 577.091 28.3844 577.986 27.7167C578.886 27.0067 580.077 26.7392 581.56 26.9143C583.001 27.0844 584.076 27.6195 584.786 28.5197C585.544 29.3824 585.842 30.4918 585.682 31.8477C585.522 33.2036 584.971 34.2341 584.029 34.9391C583.133 35.6067 581.965 35.8555 580.525 35.6854C579.042 35.5103 577.943 34.9939 577.228 34.1361C576.518 33.236 576.243 32.108 576.403 30.7521Z" fill="#FFC700"/>
<path d="M608.372 50.2698C610.963 46.4474 614.499 44.8431 618.979 45.457C622.784 45.9782 625.466 47.6161 627.027 50.3707C628.63 53.1312 629.15 56.5616 628.589 60.6619L626.122 78.6697L618.639 77.6447L621.106 59.6369C621.419 57.3542 621.104 55.5669 620.161 54.275C619.225 52.9408 617.763 52.1377 615.776 51.8655C613.789 51.5933 611.956 52.2465 610.275 53.825C608.637 55.4093 607.532 57.9711 606.961 61.5103L605.007 75.7771L597.525 74.752L601.746 43.9359L608.277 44.8306L608.372 50.2698Z" fill="#FFC700"/>
<path d="M646.605 68.8936C644.457 66.3881 643.638 63.5556 644.145 60.3961C644.679 57.0681 646.418 54.5817 649.362 52.9369C652.207 51.3628 655.252 50.8363 658.496 51.3572C661.782 51.8849 664.422 52.9355 666.416 54.509C667.055 52.1483 668.398 50.3762 670.446 49.1927C672.452 48.0024 674.656 47.6001 677.057 47.9857L675.531 55.0653C671.908 54.4835 669.841 55.3831 669.329 57.764C670.576 59.9521 671.038 62.0573 670.713 64.0794C670.388 66.1015 669.756 67.7501 668.817 69.0253C667.884 70.2583 666.733 71.2401 665.362 71.9707C662.51 73.5869 659.272 74.1041 655.649 73.5223C653.585 73.1908 651.761 72.5738 650.177 71.6712C648.411 71.9062 647.406 72.7819 647.163 74.2985C646.858 76.1942 648.307 77.3991 651.509 77.9133L661.809 79.5674C668.802 80.6904 671.906 83.6953 671.121 88.582C670.857 90.225 670.179 91.7582 669.086 93.1815C668.028 94.6538 666.622 95.8756 664.867 96.847C660.98 98.9884 656.424 99.6396 651.201 98.8007C646.145 97.9889 642.204 96.2971 639.376 93.7255C636.745 91.272 635.659 88.6129 636.119 85.7483C636.424 83.8526 637.236 82.4273 638.556 81.4726C639.912 80.5667 641.561 80.1185 643.504 80.1281C641.262 78.2124 640.32 76.1381 640.679 73.9054C640.916 72.431 641.575 71.2837 642.658 70.4636C643.747 69.6014 645.063 69.0781 646.605 68.8936ZM650.161 83.0769C646.174 82.6095 643.954 83.787 643.5 86.6095C643.27 88.0418 643.909 89.3112 645.417 90.4175C646.96 91.5728 648.869 92.3331 651.144 92.6984C653.418 93.0638 655.218 93.1583 656.543 92.9822C657.91 92.8127 659.086 92.4831 660.072 91.9933C662.171 91.0339 663.362 89.6696 663.647 87.9002C663.768 87.142 663.596 86.4661 663.129 85.8726C662.698 85.328 661.977 84.9746 660.966 84.8122L650.161 83.0769ZM663.239 63.3976C663.516 61.6704 663.255 60.2024 662.455 58.9936C661.704 57.7495 660.36 56.9718 658.422 56.6606C656.484 56.3494 654.922 56.6603 653.735 57.5932C652.554 58.484 651.826 59.793 651.548 61.5202C651.278 63.2053 651.56 64.6766 652.395 65.9343C653.23 67.192 654.617 67.9764 656.555 68.2876C658.492 68.5988 660.013 68.2812 661.115 67.3347C662.26 66.395 662.968 65.0826 663.239 63.3976Z" fill="#FFC700"/>
<path d="M691.27 46.1581L699.334 47.599L693.443 75.4774L687.08 74.3404L691.27 46.1581ZM687.726 89.279C686.214 89.0089 685.058 88.3255 684.257 87.2288C683.456 86.1322 683.183 84.8698 683.438 83.4418C683.693 82.0137 684.39 80.903 685.529 80.1096C686.668 79.3162 687.993 79.0545 689.505 79.3247C691.017 79.5949 692.191 80.303 693.026 81.4492C693.862 82.5953 694.152 83.8824 693.897 85.3105C693.641 86.7385 692.927 87.8245 691.754 88.5684C690.581 89.3123 689.238 89.5492 687.726 89.279Z" fill="#FFC700"/>
</svg>
