<svg width="945" height="945" viewBox="0 0 945 945" fill="none" xmlns="http://www.w3.org/2000/svg">
<rect x="268" y="51" width="410" height="843" rx="40" fill="#012F4B"/>
<rect x="285" y="68" width="375" height="807" rx="30" fill="white"/>
<path d="M323.206 91.5396C322.61 92.1694 321.914 92.4844 321.118 92.4844C320.181 92.4844 319.434 92.1572 318.877 91.5029C318.321 90.8438 318.042 89.9795 318.042 88.9102C318.042 88.207 318.184 87.5698 318.467 86.9985C318.75 86.4272 319.153 85.9829 319.676 85.6655C320.198 85.3481 320.804 85.1895 321.492 85.1895C322.566 85.1895 323.418 85.5898 324.048 86.3906C324.678 87.1914 324.993 88.2632 324.993 89.606V90.104C324.993 92.0278 324.558 93.4951 323.689 94.5059C322.82 95.5166 321.524 96.0293 319.8 96.0439H319.588V94.5718H319.844C320.894 94.5571 321.7 94.3057 322.261 93.8174C322.823 93.3242 323.138 92.5649 323.206 91.5396ZM321.492 91.0928C321.848 91.0928 322.183 90.9902 322.495 90.7852C322.808 90.5801 323.05 90.2969 323.221 89.9355V89.2397C323.221 88.4536 323.059 87.8213 322.737 87.3428C322.415 86.8643 321.997 86.625 321.485 86.625C320.972 86.625 320.562 86.8374 320.254 87.2622C319.951 87.6821 319.8 88.2144 319.8 88.8589C319.8 89.5278 319.954 90.0674 320.262 90.4775C320.569 90.8877 320.979 91.0928 321.492 91.0928ZM327.706 94.125C328.038 94.125 328.295 94.2202 328.475 94.4106C328.656 94.5962 328.746 94.8306 328.746 95.1138C328.746 95.3921 328.656 95.624 328.475 95.8096C328.295 95.9902 328.038 96.0806 327.706 96.0806C327.389 96.0806 327.138 95.9902 326.952 95.8096C326.766 95.6289 326.674 95.397 326.674 95.1138C326.674 94.8306 326.764 94.5962 326.945 94.4106C327.125 94.2202 327.379 94.125 327.706 94.125ZM327.706 87.9067C328.038 87.9067 328.295 88.002 328.475 88.1924C328.656 88.3779 328.746 88.6123 328.746 88.8955C328.746 89.1738 328.656 89.4058 328.475 89.5913C328.295 89.772 328.038 89.8623 327.706 89.8623C327.389 89.8623 327.138 89.772 326.952 89.5913C326.766 89.4106 326.674 89.1787 326.674 88.8955C326.674 88.6123 326.764 88.3779 326.945 88.1924C327.125 88.002 327.379 87.9067 327.706 87.9067ZM336.36 92.1987H337.685V93.627H336.36V96H334.58V93.627H329.973L329.922 92.543L334.521 85.3359H336.36V92.1987ZM331.789 92.1987H334.58V87.7456L334.448 87.98L331.789 92.1987ZM343.519 96H341.747V87.438L339.132 88.3315V86.8301L343.292 85.2993H343.519V96Z" fill="black"/>
<path fill-rule="evenodd" clip-rule="evenodd" d="M624.589 85.16H639.411C640.659 85.16 641.111 85.2899 641.568 85.534C642.024 85.778 642.382 86.1361 642.626 86.5924C642.87 87.0487 643 87.5013 643 88.7494V93.0705C643 94.3187 642.87 94.7713 642.626 95.2276C642.382 95.6839 642.024 96.042 641.568 96.286C641.111 96.53 640.659 96.66 639.411 96.66H624.589C623.341 96.66 622.889 96.53 622.432 96.286C621.976 96.042 621.618 95.6839 621.374 95.2276C621.13 94.7713 621 94.3187 621 93.0705V88.7494C621 87.5013 621.13 87.0487 621.374 86.5924C621.618 86.1361 621.976 85.778 622.432 85.534C622.889 85.2899 623.341 85.16 624.589 85.16ZM624.589 86.16C623.602 86.16 623.258 86.2265 622.904 86.4158C622.622 86.5666 622.407 86.782 622.256 87.064C622.067 87.4179 622 87.7624 622 88.7494V93.0705C622 94.0575 622.067 94.4021 622.256 94.756C622.407 95.038 622.622 95.2533 622.904 95.4042C623.258 95.5934 623.602 95.66 624.589 95.66H639.411C640.398 95.66 640.742 95.5934 641.096 95.4042C641.378 95.2533 641.593 95.038 641.744 94.756C641.933 94.4021 642 94.0575 642 93.0705V88.7494C642 87.7624 641.933 87.4179 641.744 87.064C641.593 86.782 641.378 86.5666 641.096 86.4158C640.742 86.2265 640.398 86.16 639.411 86.16H624.589ZM645.5 90.85C645.5 92.0865 644 92.85 644 92.85V88.85C644 88.85 645.5 89.6134 645.5 90.85Z" fill="black" fill-opacity="0.36"/>
<rect x="623" y="87.0767" width="18" height="7.66667" rx="1.6" fill="black"/>
<path fill-rule="evenodd" clip-rule="evenodd" d="M592.623 86.5659C592.6 86.6818 592.6 86.8212 592.6 87.1V94.8C592.6 95.0788 592.6 95.2182 592.623 95.3341C592.718 95.8101 593.09 96.1822 593.566 96.2769C593.682 96.3 593.821 96.3 594.1 96.3C594.379 96.3 594.518 96.3 594.634 96.2769C595.11 96.1822 595.482 95.8101 595.577 95.3341C595.6 95.2182 595.6 95.0788 595.6 94.8V87.1C595.6 86.8212 595.6 86.6818 595.577 86.5659C595.482 86.0898 595.11 85.7177 594.634 85.623C594.518 85.6 594.379 85.6 594.1 85.6C593.821 85.6 593.682 85.6 593.566 85.623C593.09 85.7177 592.718 86.0898 592.623 86.5659ZM587.9 89.5C587.9 89.2212 587.9 89.0818 587.923 88.9659C588.018 88.4898 588.39 88.1177 588.866 88.023C588.982 88 589.121 88 589.4 88C589.679 88 589.818 88 589.934 88.023C590.41 88.1177 590.782 88.4898 590.877 88.9659C590.9 89.0818 590.9 89.2212 590.9 89.5V94.8C590.9 95.0788 590.9 95.2182 590.877 95.3341C590.782 95.8101 590.41 96.1822 589.934 96.2769C589.818 96.3 589.679 96.3 589.4 96.3C589.121 96.3 588.982 96.3 588.866 96.2769C588.39 96.1822 588.018 95.8101 587.923 95.3341C587.9 95.2182 587.9 95.0788 587.9 94.8V89.5ZM583.323 91.2659C583.3 91.3818 583.3 91.5212 583.3 91.8V94.8C583.3 95.0788 583.3 95.2182 583.323 95.3341C583.418 95.8101 583.79 96.1822 584.266 96.2769C584.382 96.3 584.521 96.3 584.8 96.3C585.079 96.3 585.218 96.3 585.334 96.2769C585.81 96.1822 586.182 95.8101 586.277 95.3341C586.3 95.2182 586.3 95.0788 586.3 94.8V91.8C586.3 91.5212 586.3 91.3818 586.277 91.2659C586.182 90.7898 585.81 90.4177 585.334 90.323C585.218 90.3 585.079 90.3 584.8 90.3C584.521 90.3 584.382 90.3 584.266 90.323C583.79 90.4177 583.418 90.7898 583.323 91.2659ZM578.523 93.2659C578.5 93.3818 578.5 93.5212 578.5 93.8V94.8C578.5 95.0788 578.5 95.2182 578.523 95.3341C578.618 95.8101 578.99 96.1822 579.466 96.2769C579.582 96.3 579.721 96.3 580 96.3C580.279 96.3 580.418 96.3 580.534 96.2769C581.01 96.1822 581.382 95.8101 581.477 95.3341C581.5 95.2182 581.5 95.0788 581.5 94.8V93.8C581.5 93.5212 581.5 93.3818 581.477 93.2659C581.382 92.7898 581.01 92.4177 580.534 92.323C580.418 92.3 580.279 92.3 580 92.3C579.721 92.3 579.582 92.3 579.466 92.323C578.99 92.4177 578.618 92.7898 578.523 93.2659Z" fill="black"/>
<path fill-rule="evenodd" clip-rule="evenodd" d="M608.3 87.6963C610.535 87.6964 612.684 88.555 614.303 90.0945C614.425 90.2134 614.62 90.2119 614.74 90.0912L615.906 88.9148C615.967 88.8535 616 88.7706 616 88.6843C615.999 88.598 615.965 88.5155 615.903 88.4549C611.653 84.3816 604.947 84.3816 600.697 88.4549C600.635 88.5154 600.601 88.5979 600.6 88.6842C600.599 88.7705 600.633 88.8535 600.694 88.9148L601.86 90.0912C601.98 90.2121 602.175 90.2136 602.297 90.0945C603.917 88.5549 606.066 87.6963 608.3 87.6963V87.6963ZM608.3 91.5237C609.528 91.5236 610.712 91.9799 611.622 92.804C611.745 92.9209 611.939 92.9184 612.059 92.7983L613.223 91.6219C613.285 91.5601 613.319 91.4764 613.318 91.3895C613.317 91.3025 613.281 91.2195 613.218 91.159C610.447 88.5813 606.156 88.5813 603.385 91.159C603.322 91.2195 603.286 91.3025 603.286 91.3895C603.285 91.4765 603.319 91.5602 603.38 91.6219L604.544 92.7983C604.664 92.9184 604.858 92.9209 604.981 92.804C605.891 91.9805 607.074 91.5242 608.3 91.5237V91.5237ZM610.538 94.3313C610.6 94.2702 610.635 94.1861 610.633 94.0989C610.631 94.0116 610.593 93.929 610.529 93.8705C609.242 92.7826 607.358 92.7826 606.072 93.8705C606.008 93.929 605.97 94.0116 605.968 94.0988C605.966 94.186 606 94.2702 606.063 94.3313L608.077 96.3638C608.136 96.4236 608.216 96.4572 608.3 96.4572C608.384 96.4572 608.465 96.4236 608.524 96.3638L610.538 94.3313Z" fill="black"/>
<path d="M375 53.5H570V80C570 91.0457 561.046 100 550 100H395C383.954 100 375 91.0457 375 80V53.5Z" fill="#012F4B"/>
<rect x="557" y="62" width="21" height="17" fill="#012F4B"/>
<rect x="367" y="63" width="21" height="17" fill="#012F4B"/>
<path d="M570 76C570 71.5817 573.582 68 578 68H585V85H570V76Z" fill="white"/>
<path d="M375 76C375 71.5817 371.418 68 367 68H357.5V100H375V76Z" fill="white"/>
<rect x="405" y="862" width="135" height="5" rx="2.5" fill="black"/>
<rect x="305.5" y="747.5" width="334" height="59" rx="19.5" stroke="#012F4B"/>
<path d="M456.024 782.124V784H448.388V772.022H450.529V782.124H456.024ZM461.619 784.183C460.258 784.183 459.19 783.765 458.415 782.929C457.64 782.088 457.253 780.931 457.253 779.459C457.253 777.999 457.643 776.847 458.423 776.006C459.204 775.16 460.269 774.736 461.619 774.736C462.975 774.736 464.04 775.157 464.815 775.998C465.595 776.839 465.985 777.993 465.985 779.459C465.985 780.931 465.595 782.088 464.815 782.929C464.04 783.765 462.975 784.183 461.619 784.183ZM459.951 781.676C460.344 782.196 460.9 782.456 461.619 782.456C462.338 782.456 462.892 782.196 463.279 781.676C463.672 781.15 463.869 780.411 463.869 779.459C463.869 778.513 463.672 777.777 463.279 777.251C462.886 776.726 462.333 776.463 461.619 776.463C460.9 776.463 460.344 776.726 459.951 777.251C459.558 777.777 459.361 778.513 459.361 779.459C459.361 780.411 459.558 781.15 459.951 781.676ZM470.302 781.435C470.695 781.939 471.248 782.19 471.962 782.19C472.676 782.19 473.237 781.936 473.647 781.427C474.056 780.918 474.261 780.229 474.261 779.36C474.261 778.491 474.056 777.802 473.647 777.293C473.237 776.778 472.676 776.521 471.962 776.521C471.254 776.521 470.7 776.776 470.302 777.285C469.909 777.794 469.712 778.486 469.712 779.36C469.712 780.234 469.909 780.926 470.302 781.435ZM471.962 787.453C470.805 787.453 469.865 787.218 469.14 786.748C468.42 786.277 468.019 785.649 467.936 784.863H470.003C470.069 785.179 470.277 785.428 470.625 785.61C470.98 785.793 471.436 785.884 471.995 785.884C472.698 785.884 473.246 785.727 473.639 785.411C474.032 785.096 474.228 784.653 474.228 784.083V782.365H474.087C473.827 782.852 473.456 783.225 472.975 783.485C472.499 783.74 471.945 783.867 471.314 783.867C470.174 783.867 469.27 783.46 468.6 782.647C467.93 781.828 467.596 780.732 467.596 779.36C467.596 777.965 467.933 776.853 468.608 776.023C469.283 775.187 470.197 774.77 471.348 774.77C471.967 774.77 472.529 774.913 473.033 775.201C473.536 775.489 473.913 775.879 474.162 776.372H474.303V774.919H476.287V784.033C476.287 785.085 475.896 785.917 475.116 786.532C474.336 787.146 473.284 787.453 471.962 787.453ZM483.375 784V774.919H485.426V784H483.375ZM484.396 773.441C484.026 773.441 483.721 773.336 483.483 773.126C483.245 772.91 483.126 772.636 483.126 772.304C483.126 771.972 483.245 771.701 483.483 771.491C483.721 771.275 484.026 771.167 484.396 771.167C484.773 771.167 485.077 771.275 485.31 771.491C485.547 771.701 485.666 771.972 485.666 772.304C485.666 772.636 485.547 772.91 485.31 773.126C485.077 773.336 484.773 773.441 484.396 773.441ZM487.982 784V774.919H489.966V776.372H490.107C490.329 775.851 490.666 775.45 491.12 775.168C491.579 774.88 492.141 774.736 492.805 774.736C493.812 774.736 494.584 775.03 495.121 775.616C495.663 776.203 495.935 777.038 495.935 778.123V784H493.876V778.613C493.876 777.224 493.264 776.529 492.041 776.529C491.427 776.529 490.94 776.726 490.581 777.119C490.221 777.512 490.041 778.043 490.041 778.712V784H487.982Z" fill="#012F4B"/>
<rect x="305" y="672" width="335" height="60" rx="20" fill="#012F4B"/>
<path d="M441.561 705.746H443.653C443.719 706.283 443.999 706.712 444.491 707.033C444.984 707.348 445.609 707.506 446.367 707.506C447.076 707.506 447.657 707.345 448.11 707.024C448.57 706.698 448.799 706.283 448.799 705.779C448.799 705.348 448.625 704.996 448.276 704.725C447.933 704.454 447.377 704.23 446.608 704.053L445.056 703.696C443.971 703.452 443.166 703.057 442.64 702.509C442.12 701.955 441.86 701.233 441.86 700.342C441.86 699.252 442.267 698.378 443.08 697.719C443.899 697.055 444.978 696.723 446.317 696.723C447.574 696.723 448.614 697.05 449.438 697.703C450.263 698.356 450.7 699.197 450.75 700.226H448.7C448.628 699.7 448.376 699.283 447.944 698.973C447.513 698.663 446.968 698.508 446.309 698.508C445.617 698.508 445.061 698.663 444.641 698.973C444.226 699.277 444.018 699.684 444.018 700.193C444.018 700.597 444.181 700.926 444.508 701.181C444.834 701.43 445.368 701.64 446.11 701.812L447.488 702.127C448.7 702.398 449.577 702.802 450.119 703.339C450.667 703.876 450.941 704.601 450.941 705.514C450.941 706.681 450.518 707.605 449.671 708.286C448.83 708.961 447.684 709.299 446.234 709.299C444.862 709.299 443.752 708.978 442.906 708.336C442.065 707.694 441.616 706.831 441.561 705.746ZM453.157 709V699.919H455.208V709H453.157ZM454.178 698.441C453.807 698.441 453.503 698.336 453.265 698.126C453.027 697.91 452.908 697.636 452.908 697.304C452.908 696.972 453.027 696.701 453.265 696.491C453.503 696.275 453.807 696.167 454.178 696.167C454.555 696.167 454.859 696.275 455.091 696.491C455.329 696.701 455.448 696.972 455.448 697.304C455.448 697.636 455.329 697.91 455.091 698.126C454.859 698.336 454.555 698.441 454.178 698.441ZM460.005 706.435C460.398 706.939 460.952 707.19 461.666 707.19C462.379 707.19 462.941 706.936 463.351 706.427C463.76 705.918 463.965 705.229 463.965 704.36C463.965 703.491 463.76 702.802 463.351 702.293C462.941 701.778 462.379 701.521 461.666 701.521C460.957 701.521 460.404 701.776 460.005 702.285C459.612 702.794 459.416 703.486 459.416 704.36C459.416 705.234 459.612 705.926 460.005 706.435ZM461.666 712.453C460.509 712.453 459.568 712.218 458.843 711.748C458.124 711.277 457.723 710.649 457.64 709.863H459.707C459.773 710.179 459.98 710.428 460.329 710.61C460.683 710.793 461.14 710.884 461.699 710.884C462.402 710.884 462.949 710.727 463.342 710.411C463.735 710.096 463.932 709.653 463.932 709.083V707.365H463.791C463.53 707.852 463.16 708.225 462.678 708.485C462.202 708.74 461.649 708.867 461.018 708.867C459.878 708.867 458.973 708.46 458.304 707.647C457.634 706.828 457.299 705.732 457.299 704.36C457.299 702.965 457.637 701.853 458.312 701.023C458.987 700.187 459.9 699.77 461.051 699.77C461.671 699.77 462.233 699.913 462.736 700.201C463.24 700.489 463.616 700.879 463.865 701.372H464.006V699.919H465.99V709.033C465.99 710.085 465.6 710.917 464.82 711.532C464.04 712.146 462.988 712.453 461.666 712.453ZM468.522 709V699.919H470.506V701.372H470.647C470.868 700.851 471.206 700.45 471.66 700.168C472.119 699.88 472.681 699.736 473.345 699.736C474.352 699.736 475.124 700.03 475.661 700.616C476.203 701.203 476.474 702.038 476.474 703.123V709H474.416V703.613C474.416 702.224 473.804 701.529 472.581 701.529C471.967 701.529 471.48 701.726 471.12 702.119C470.76 702.512 470.581 703.043 470.581 703.712V709H468.522ZM491.349 699.919V709H489.365V707.556H489.224C488.765 708.64 487.86 709.183 486.51 709.183C485.519 709.183 484.747 708.889 484.194 708.303C483.64 707.711 483.364 706.883 483.364 705.821V699.919H485.422V705.306C485.422 706.003 485.569 706.524 485.862 706.867C486.156 707.204 486.609 707.373 487.224 707.373C487.888 707.373 488.397 707.182 488.751 706.8C489.111 706.418 489.291 705.887 489.291 705.207V699.919H491.349ZM498.82 699.77C499.971 699.77 500.881 700.187 501.551 701.023C502.226 701.859 502.563 703.004 502.563 704.459C502.563 705.909 502.229 707.055 501.559 707.896C500.895 708.732 499.99 709.149 498.845 709.149C498.197 709.149 497.63 709.017 497.143 708.751C496.662 708.48 496.305 708.104 496.072 707.622H495.931V712.021H493.873V699.919H495.856V701.421H495.998C496.258 700.907 496.637 700.503 497.135 700.209C497.638 699.916 498.2 699.77 498.82 699.77ZM498.172 707.398C498.886 707.398 499.442 707.138 499.841 706.618C500.245 706.097 500.447 705.378 500.447 704.459C500.447 703.541 500.245 702.821 499.841 702.301C499.442 701.781 498.889 701.521 498.181 701.521C497.478 701.521 496.922 701.784 496.512 702.31C496.103 702.835 495.895 703.552 495.89 704.459C495.895 705.367 496.1 706.084 496.504 706.609C496.913 707.135 497.47 707.398 498.172 707.398Z" fill="white"/>
<path d="M410.088 173.547C406.703 172.666 404.303 170.904 402.886 168.26C401.483 165.608 401.267 162.418 402.236 158.69C403.203 154.973 404.949 152.306 407.474 150.687C410.002 149.057 412.954 148.681 416.328 149.559C418.17 150.038 419.746 150.837 421.056 151.955C422.377 153.076 423.32 154.419 423.885 155.984C424.45 157.549 424.57 159.199 424.245 160.933L419.521 159.704C419.667 158.221 419.348 156.92 418.564 155.801C417.79 154.685 416.697 153.943 415.283 153.575C413.451 153.099 411.802 153.436 410.337 154.587C408.871 155.739 407.821 157.53 407.189 159.961C406.545 162.436 406.578 164.531 407.286 166.248C407.998 167.954 409.285 169.049 411.149 169.534C412.584 169.907 413.892 169.824 415.073 169.285C416.254 168.746 417.152 167.825 417.765 166.52L422.489 167.749C421.55 170.261 419.96 172.043 417.719 173.096C415.481 174.137 412.937 174.288 410.088 173.547Z" fill="#012F4B"/>
<path d="M447.979 162.139L445.468 179.758L440.833 179.097L441.285 175.925L441.186 175.911C439.933 178.113 438.008 179.03 435.412 178.659C433.483 178.385 432.027 177.579 431.044 176.242C430.062 174.895 429.716 173.202 430.007 171.164L431.626 159.808L436.425 160.492L434.949 170.846C434.782 172.018 434.934 172.951 435.405 173.645C435.888 174.339 436.66 174.762 437.723 174.914C438.786 175.065 439.68 174.835 440.404 174.223C441.129 173.611 441.574 172.718 441.741 171.546L443.18 161.455L447.979 162.139Z" fill="#012F4B"/>
<path d="M454.47 180.466L455.944 156.555L460.783 156.854L459.309 180.764L454.47 180.466Z" fill="#012F4B"/>
<path d="M469.827 159.224L474.674 159.204L474.691 163.304L477.978 163.291L477.993 166.943L474.706 166.957L474.741 175.473C474.747 176.813 475.447 177.479 476.841 177.474C477.295 177.472 477.688 177.442 478.019 177.386L478.034 180.955C477.47 181.09 476.701 181.16 475.727 181.164C473.636 181.172 472.14 180.802 471.24 180.053C470.352 179.304 469.904 178.061 469.897 176.323L469.858 166.977L467.352 166.987L467.337 163.335L469.844 163.324L469.827 159.224Z" fill="#012F4B"/>
<path d="M501.729 161.592L503.37 179.313L498.708 179.745L498.413 176.554L498.314 176.563C497.605 178.997 495.945 180.334 493.333 180.576C491.394 180.756 489.791 180.309 488.524 179.237C487.257 178.154 486.528 176.588 486.339 174.538L485.281 163.115L490.108 162.668L491.072 173.083C491.181 174.262 491.546 175.134 492.165 175.699C492.795 176.263 493.645 176.496 494.714 176.397C495.783 176.298 496.598 175.866 497.161 175.103C497.724 174.339 497.951 173.368 497.842 172.189L496.902 162.039L501.729 161.592Z" fill="#012F4B"/>
<path d="M512.218 177.96L509.021 160.453L513.627 159.612L514.202 162.764L514.3 162.746C514.402 161.58 514.759 160.637 515.37 159.918C515.981 159.199 516.804 158.745 517.838 158.556C518.339 158.465 518.802 158.442 519.227 158.488L519.993 162.686C519.513 162.582 518.919 162.595 518.211 162.724C517.035 162.939 516.183 163.449 515.655 164.254C515.127 165.059 514.976 166.077 515.2 167.307L516.986 177.09L512.218 177.96Z" fill="#012F4B"/>
<path d="M536.03 169.507C537.066 169.224 537.86 168.686 538.412 167.893C538.971 167.086 539.126 166.223 538.875 165.305L538.533 164.056L534.975 165.269C534.117 165.572 533.499 165.977 533.121 166.481C532.753 166.984 532.653 167.539 532.819 168.147C532.994 168.788 533.373 169.229 533.956 169.472C534.538 169.714 535.23 169.726 536.03 169.507ZM535.417 173.306C533.762 173.759 532.257 173.648 530.903 172.974C529.548 172.3 528.662 171.2 528.245 169.673C527.819 168.114 528.061 166.734 528.972 165.533C529.883 164.332 531.394 163.374 533.505 162.659L537.759 161.221L537.448 160.084C537.232 159.294 536.801 158.746 536.156 158.441C535.521 158.133 534.76 158.1 533.874 158.342C533.02 158.575 532.373 158.958 531.934 159.492C531.505 160.022 531.321 160.629 531.381 161.312L527.105 162.481C526.73 160.77 527.08 159.218 528.156 157.822C529.229 156.416 530.886 155.406 533.128 154.794C535.327 154.193 537.232 154.234 538.842 154.919C540.451 155.603 541.493 156.81 541.965 158.54L545.191 170.342L540.675 171.577L539.957 168.95L539.861 168.977C539.636 170.002 539.115 170.907 538.297 171.693C537.476 172.468 536.516 173.006 535.417 173.306Z" fill="#012F4B"/>
<circle cx="498.5" cy="622.5" r="4" fill="#B9B9B9" stroke="#B9B9B9"/>
<circle cx="472.5" cy="622.5" r="4.5" fill="#031927"/>
<circle cx="446.5" cy="622.5" r="4" fill="#B9B9B9" stroke="#B9B9B9"/>
<g clip-path="url(#clip0)">
<path d="M373.686 523.655V525H366.415V513.022H367.909V523.655H373.686ZM375.18 525V516.367H376.625V525H375.18ZM375.902 514.915C375.659 514.915 375.449 514.826 375.271 514.649C375.094 514.472 375.006 514.262 375.006 514.018C375.006 513.769 375.094 513.559 375.271 513.387C375.449 513.21 375.659 513.122 375.902 513.122C376.151 513.122 376.364 513.21 376.542 513.387C376.719 513.559 376.807 513.769 376.807 514.018C376.807 514.262 376.719 514.472 376.542 514.649C376.364 514.826 376.151 514.915 375.902 514.915ZM378.426 518.75C378.426 518.008 378.725 517.402 379.322 516.932C379.925 516.456 380.7 516.218 381.646 516.218C382.537 516.218 383.279 516.456 383.871 516.932C384.463 517.408 384.776 518.011 384.809 518.741H383.431C383.381 518.321 383.193 517.991 382.867 517.753C382.546 517.515 382.122 517.396 381.597 517.396C381.071 517.396 380.648 517.515 380.327 517.753C380.006 517.986 379.845 518.293 379.845 518.675C379.845 519.261 380.324 519.676 381.281 519.92L382.618 520.244C383.486 520.465 384.098 520.753 384.452 521.107C384.812 521.456 384.992 521.948 384.992 522.584C384.992 523.337 384.671 523.954 384.029 524.436C383.387 524.911 382.562 525.149 381.555 525.149C380.614 525.149 379.837 524.917 379.223 524.452C378.614 523.982 378.271 523.362 378.193 522.593H379.638C379.798 523.511 380.468 523.971 381.646 523.971C382.228 523.971 382.687 523.857 383.024 523.63C383.368 523.398 383.539 523.085 383.539 522.692C383.539 522.382 383.437 522.136 383.232 521.954C383.033 521.771 382.692 521.616 382.211 521.489L380.692 521.099C379.181 520.711 378.426 519.928 378.426 518.75ZM386.959 514.284H388.403V516.367H390.08V517.554H388.403V522.684C388.403 523.077 388.489 523.368 388.661 523.556C388.832 523.738 389.103 523.83 389.474 523.83C389.707 523.83 389.906 523.816 390.072 523.788V525C389.884 525.044 389.579 525.066 389.159 525.066C388.367 525.066 387.803 524.889 387.465 524.535C387.128 524.181 386.959 523.589 386.959 522.759V517.554H385.672V516.367H386.959V514.284ZM394.836 517.471C394.167 517.471 393.611 517.704 393.168 518.168C392.731 518.628 392.49 519.22 392.446 519.945H397.136C397.119 519.214 396.901 518.619 396.48 518.16C396.059 517.701 395.512 517.471 394.836 517.471ZM397.103 522.526H398.522C398.395 523.29 397.996 523.918 397.327 524.411C396.663 524.903 395.863 525.149 394.928 525.149C393.694 525.149 392.722 524.751 392.014 523.954C391.306 523.157 390.952 522.078 390.952 520.717C390.952 519.367 391.306 518.279 392.014 517.455C392.728 516.63 393.677 516.218 394.861 516.218C396.023 516.218 396.942 516.608 397.617 517.388C398.292 518.168 398.63 519.214 398.63 520.526V521.074H392.438V521.157C392.438 521.987 392.664 522.651 393.118 523.149C393.572 523.647 394.186 523.896 394.961 523.896C395.503 523.896 395.965 523.771 396.347 523.522C396.729 523.273 396.981 522.941 397.103 522.526ZM400.091 525V516.367H401.452V517.745H401.485C401.734 517.264 402.091 516.89 402.556 516.625C403.021 516.353 403.577 516.218 404.225 516.218C405.165 516.218 405.899 516.503 406.424 517.073C406.95 517.637 407.213 518.412 407.213 519.397V525H405.769V519.654C405.769 518.951 405.603 518.417 405.271 518.052C404.938 517.681 404.443 517.496 403.785 517.496C403.104 517.496 402.559 517.717 402.149 518.16C401.74 518.603 401.535 519.189 401.535 519.92V525H400.091ZM413.007 514.284H414.451V516.367H416.128V517.554H414.451V522.684C414.451 523.077 414.537 523.368 414.708 523.556C414.88 523.738 415.151 523.83 415.522 523.83C415.754 523.83 415.954 523.816 416.12 523.788V525C415.931 525.044 415.627 525.066 415.207 525.066C414.415 525.066 413.851 524.889 413.513 524.535C413.176 524.181 413.007 523.589 413.007 522.759V517.554H411.72V516.367H413.007V514.284ZM421 525.149C419.794 525.149 418.826 524.748 418.095 523.946C417.365 523.138 417 522.05 417 520.684C417 519.317 417.365 518.232 418.095 517.43C418.826 516.622 419.794 516.218 421 516.218C422.201 516.218 423.167 516.622 423.897 517.43C424.628 518.232 424.993 519.317 424.993 520.684C424.993 522.045 424.628 523.13 423.897 523.938C423.167 524.745 422.201 525.149 421 525.149ZM419.149 523.033C419.609 523.597 420.226 523.879 421 523.879C421.775 523.879 422.389 523.6 422.843 523.041C423.297 522.477 423.524 521.691 423.524 520.684C423.524 519.676 423.297 518.893 422.843 518.334C422.389 517.77 421.775 517.488 421 517.488C420.226 517.488 419.609 517.77 419.149 518.334C418.696 518.899 418.469 519.682 418.469 520.684C418.469 521.685 418.696 522.468 419.149 523.033ZM433.402 517.471C432.732 517.471 432.176 517.704 431.733 518.168C431.296 518.628 431.056 519.22 431.011 519.945H435.701C435.685 519.214 435.466 518.619 435.045 518.16C434.625 517.701 434.077 517.471 433.402 517.471ZM435.668 522.526H437.087C436.96 523.29 436.562 523.918 435.892 524.411C435.228 524.903 434.428 525.149 433.493 525.149C432.259 525.149 431.288 524.751 430.58 523.954C429.871 523.157 429.517 522.078 429.517 520.717C429.517 519.367 429.871 518.279 430.58 517.455C431.293 516.63 432.243 516.218 433.427 516.218C434.589 516.218 435.507 516.608 436.183 517.388C436.858 518.168 437.195 519.214 437.195 520.526V521.074H431.003V521.157C431.003 521.987 431.23 522.651 431.684 523.149C432.137 523.647 432.752 523.896 433.526 523.896C434.069 523.896 434.531 523.771 434.913 523.522C435.294 523.273 435.546 522.941 435.668 522.526ZM442.848 516.218C443.955 516.218 444.846 516.625 445.521 517.438C446.202 518.251 446.542 519.333 446.542 520.684C446.542 522.028 446.204 523.11 445.529 523.929C444.854 524.743 443.972 525.149 442.881 525.149C442.273 525.149 441.728 525.011 441.246 524.734C440.765 524.458 440.394 524.079 440.134 523.597H440.101V527.88H438.656V516.367H440.026V517.828H440.059C440.33 517.33 440.709 516.937 441.196 516.649C441.683 516.362 442.234 516.218 442.848 516.218ZM442.566 523.879C443.335 523.879 443.944 523.592 444.392 523.016C444.84 522.441 445.064 521.663 445.064 520.684C445.064 519.704 444.84 518.927 444.392 518.351C443.944 517.776 443.335 517.488 442.566 517.488C441.824 517.488 441.227 517.781 440.773 518.368C440.319 518.954 440.092 519.726 440.092 520.684C440.092 521.646 440.319 522.421 440.773 523.008C441.227 523.589 441.824 523.879 442.566 523.879ZM448.078 525V516.367H449.522V525H448.078ZM448.8 514.915C448.556 514.915 448.346 514.826 448.169 514.649C447.992 514.472 447.903 514.262 447.903 514.018C447.903 513.769 447.992 513.559 448.169 513.387C448.346 513.21 448.556 513.122 448.8 513.122C449.049 513.122 449.262 513.21 449.439 513.387C449.616 513.559 449.705 513.769 449.705 514.018C449.705 514.262 449.616 514.472 449.439 514.649C449.262 514.826 449.049 514.915 448.8 514.915ZM451.323 518.75C451.323 518.008 451.622 517.402 452.22 516.932C452.823 516.456 453.598 516.218 454.544 516.218C455.435 516.218 456.176 516.456 456.769 516.932C457.361 517.408 457.673 518.011 457.707 518.741H456.329C456.279 518.321 456.091 517.991 455.764 517.753C455.443 517.515 455.02 517.396 454.494 517.396C453.968 517.396 453.545 517.515 453.224 517.753C452.903 517.986 452.743 518.293 452.743 518.675C452.743 519.261 453.221 519.676 454.179 519.92L455.515 520.244C456.384 520.465 456.995 520.753 457.35 521.107C457.709 521.456 457.889 521.948 457.889 522.584C457.889 523.337 457.568 523.954 456.926 524.436C456.284 524.911 455.46 525.149 454.453 525.149C453.512 525.149 452.734 524.917 452.12 524.452C451.511 523.982 451.168 523.362 451.091 522.593H452.535C452.696 523.511 453.365 523.971 454.544 523.971C455.125 523.971 455.584 523.857 455.922 523.63C456.265 523.398 456.437 523.085 456.437 522.692C456.437 522.382 456.334 522.136 456.129 521.954C455.93 521.771 455.59 521.616 455.108 521.489L453.589 521.099C452.079 520.711 451.323 519.928 451.323 518.75ZM462.969 525.149C461.763 525.149 460.794 524.748 460.064 523.946C459.333 523.138 458.968 522.05 458.968 520.684C458.968 519.317 459.333 518.232 460.064 517.43C460.794 516.622 461.763 516.218 462.969 516.218C464.17 516.218 465.136 516.622 465.866 517.43C466.597 518.232 466.962 519.317 466.962 520.684C466.962 522.045 466.597 523.13 465.866 523.938C465.136 524.745 464.17 525.149 462.969 525.149ZM461.118 523.033C461.577 523.597 462.194 523.879 462.969 523.879C463.744 523.879 464.358 523.6 464.812 523.041C465.266 522.477 465.493 521.691 465.493 520.684C465.493 519.676 465.266 518.893 464.812 518.334C464.358 517.77 463.744 517.488 462.969 517.488C462.194 517.488 461.577 517.77 461.118 518.334C460.664 518.899 460.438 519.682 460.438 520.684C460.438 521.685 460.664 522.468 461.118 523.033ZM471.693 525.149C470.587 525.149 469.693 524.743 469.012 523.929C468.337 523.116 468 522.034 468 520.684C468 519.339 468.337 518.26 469.012 517.446C469.687 516.627 470.57 516.218 471.66 516.218C472.269 516.218 472.814 516.356 473.295 516.633C473.777 516.91 474.148 517.289 474.408 517.77H474.441V513.022H475.885V525H474.507V523.539H474.482C474.2 524.043 473.818 524.438 473.337 524.726C472.855 525.008 472.308 525.149 471.693 525.149ZM471.967 517.488C471.204 517.488 470.598 517.778 470.149 518.359C469.701 518.935 469.477 519.71 469.477 520.684C469.477 521.663 469.701 522.441 470.149 523.016C470.598 523.592 471.204 523.879 471.967 523.879C472.714 523.879 473.315 523.589 473.769 523.008C474.222 522.421 474.449 521.646 474.449 520.684C474.449 519.721 474.22 518.949 473.76 518.368C473.306 517.781 472.709 517.488 471.967 517.488ZM481.297 517.471C480.628 517.471 480.072 517.704 479.629 518.168C479.192 518.628 478.951 519.22 478.907 519.945H483.597C483.58 519.214 483.361 518.619 482.941 518.16C482.52 517.701 481.972 517.471 481.297 517.471ZM483.563 522.526H484.983C484.856 523.29 484.457 523.918 483.788 524.411C483.124 524.903 482.324 525.149 481.389 525.149C480.155 525.149 479.183 524.751 478.475 523.954C477.767 523.157 477.413 522.078 477.413 520.717C477.413 519.367 477.767 518.279 478.475 517.455C479.189 516.63 480.138 516.218 481.322 516.218C482.484 516.218 483.403 516.608 484.078 517.388C484.753 518.168 485.091 519.214 485.091 520.526V521.074H478.898V521.157C478.898 521.987 479.125 522.651 479.579 523.149C480.033 523.647 480.647 523.896 481.422 523.896C481.964 523.896 482.426 523.771 482.808 523.522C483.19 523.273 483.442 522.941 483.563 522.526ZM486.402 518.75C486.402 518.008 486.701 517.402 487.299 516.932C487.902 516.456 488.677 516.218 489.623 516.218C490.514 516.218 491.256 516.456 491.848 516.932C492.44 517.408 492.752 518.011 492.786 518.741H491.408C491.358 518.321 491.17 517.991 490.843 517.753C490.522 517.515 490.099 517.396 489.573 517.396C489.048 517.396 488.624 517.515 488.303 517.753C487.982 517.986 487.822 518.293 487.822 518.675C487.822 519.261 488.3 519.676 489.258 519.92L490.594 520.244C491.463 520.465 492.075 520.753 492.429 521.107C492.788 521.456 492.968 521.948 492.968 522.584C492.968 523.337 492.647 523.954 492.005 524.436C491.363 524.911 490.539 525.149 489.532 525.149C488.591 525.149 487.813 524.917 487.199 524.452C486.59 523.982 486.247 523.362 486.17 522.593H487.614C487.775 523.511 488.444 523.971 489.623 523.971C490.204 523.971 490.663 523.857 491.001 523.63C491.344 523.398 491.516 523.085 491.516 522.692C491.516 522.382 491.413 522.136 491.208 521.954C491.009 521.771 490.669 521.616 490.188 521.489L488.668 521.099C487.158 520.711 486.402 519.928 486.402 518.75ZM498.032 525V516.367H499.476V525H498.032ZM498.754 514.915C498.51 514.915 498.3 514.826 498.123 514.649C497.946 514.472 497.857 514.262 497.857 514.018C497.857 513.769 497.946 513.559 498.123 513.387C498.3 513.21 498.51 513.122 498.754 513.122C499.003 513.122 499.216 513.21 499.393 513.387C499.57 513.559 499.659 513.769 499.659 514.018C499.659 514.262 499.57 514.472 499.393 514.649C499.216 514.826 499.003 514.915 498.754 514.915ZM501.427 525V516.367H502.788V517.745H502.821C503.07 517.264 503.427 516.89 503.892 516.625C504.357 516.353 504.913 516.218 505.561 516.218C506.501 516.218 507.235 516.503 507.76 517.073C508.286 517.637 508.549 518.412 508.549 519.397V525H507.104V519.654C507.104 518.951 506.938 518.417 506.606 518.052C506.274 517.681 505.779 517.496 505.121 517.496C504.44 517.496 503.895 517.717 503.485 518.16C503.076 518.603 502.871 519.189 502.871 519.92V525H501.427ZM514.592 528.229C514.337 528.229 514.13 528.212 513.969 528.179V526.967C514.102 526.995 514.29 527.009 514.534 527.009C514.938 527.009 515.261 526.901 515.505 526.685C515.748 526.475 515.953 526.118 516.119 525.614L516.318 525.008L513.131 516.367H514.675L517.065 523.556H517.09L519.481 516.367H521L517.605 525.606C517.234 526.613 516.833 527.302 516.401 527.673C515.975 528.044 515.372 528.229 514.592 528.229ZM525.474 525.149C524.268 525.149 523.299 524.748 522.569 523.946C521.838 523.138 521.473 522.05 521.473 520.684C521.473 519.317 521.838 518.232 522.569 517.43C523.299 516.622 524.268 516.218 525.474 516.218C526.675 516.218 527.641 516.622 528.371 517.43C529.102 518.232 529.467 519.317 529.467 520.684C529.467 522.045 529.102 523.13 528.371 523.938C527.641 524.745 526.675 525.149 525.474 525.149ZM523.623 523.033C524.082 523.597 524.699 523.879 525.474 523.879C526.249 523.879 526.863 523.6 527.317 523.041C527.771 522.477 527.998 521.691 527.998 520.684C527.998 519.676 527.771 518.893 527.317 518.334C526.863 517.77 526.249 517.488 525.474 517.488C524.699 517.488 524.082 517.77 523.623 518.334C523.169 518.899 522.942 519.682 522.942 520.684C522.942 521.685 523.169 522.468 523.623 523.033ZM538.017 516.367V525H536.647V523.597H536.614C536.077 524.632 535.164 525.149 533.875 525.149C532.939 525.149 532.206 524.867 531.675 524.303C531.149 523.733 530.886 522.955 530.886 521.97V516.367H532.331V521.713C532.331 523.152 532.995 523.871 534.323 523.871C535.02 523.871 535.568 523.653 535.966 523.215C536.37 522.773 536.572 522.181 536.572 521.439V516.367H538.017ZM539.893 525V516.367H541.254V517.778H541.287C541.431 517.297 541.688 516.918 542.059 516.641C542.435 516.359 542.875 516.218 543.379 516.218C543.495 516.218 543.689 516.237 543.96 516.276V517.679C543.805 517.623 543.548 517.596 543.188 517.596C542.629 517.596 542.181 517.781 541.843 518.152C541.506 518.523 541.337 519.012 541.337 519.621V525H539.893ZM548.7 525V513.022H550.144V517.745H550.177C550.421 517.258 550.775 516.882 551.24 516.616C551.71 516.351 552.269 516.218 552.917 516.218C553.857 516.218 554.599 516.508 555.141 517.089C555.683 517.67 555.955 518.448 555.955 519.422V525H554.51V519.688C554.51 518.99 554.336 518.451 553.987 518.069C553.644 517.687 553.138 517.496 552.468 517.496C551.754 517.496 551.187 517.72 550.767 518.168C550.352 518.617 550.144 519.217 550.144 519.97V525H548.7ZM561.367 525.149C560.16 525.149 559.192 524.748 558.461 523.946C557.731 523.138 557.366 522.05 557.366 520.684C557.366 519.317 557.731 518.232 558.461 517.43C559.192 516.622 560.16 516.218 561.367 516.218C562.568 516.218 563.533 516.622 564.264 517.43C564.994 518.232 565.359 519.317 565.359 520.684C565.359 522.045 564.994 523.13 564.264 523.938C563.533 524.745 562.568 525.149 561.367 525.149ZM559.516 523.033C559.975 523.597 560.592 523.879 561.367 523.879C562.141 523.879 562.756 523.6 563.209 523.041C563.663 522.477 563.89 521.691 563.89 520.684C563.89 519.676 563.663 518.893 563.209 518.334C562.756 517.77 562.141 517.488 561.367 517.488C560.592 517.488 559.975 517.77 559.516 518.334C559.062 518.899 558.835 519.682 558.835 520.684C558.835 521.685 559.062 522.468 559.516 523.033ZM566.82 525V516.367H568.182V517.745H568.215C568.425 517.275 568.743 516.904 569.169 516.633C569.596 516.356 570.094 516.218 570.664 516.218C571.25 516.218 571.754 516.362 572.174 516.649C572.595 516.932 572.899 517.336 573.087 517.861H573.121C573.359 517.347 573.715 516.945 574.191 516.658C574.673 516.364 575.218 516.218 575.827 516.218C576.679 516.218 577.36 516.475 577.869 516.99C578.383 517.499 578.641 518.182 578.641 519.04V525H577.196V519.372C577.196 518.78 577.039 518.321 576.723 517.994C576.413 517.662 575.973 517.496 575.403 517.496C574.833 517.496 574.366 517.687 574 518.069C573.635 518.445 573.453 518.927 573.453 519.513V525H572.008V519.214C572.008 518.694 571.848 518.279 571.527 517.969C571.206 517.654 570.777 517.496 570.24 517.496C569.67 517.496 569.197 517.695 568.821 518.094C568.45 518.492 568.265 518.99 568.265 519.588V525H566.82ZM583.945 517.471C583.275 517.471 582.719 517.704 582.276 518.168C581.839 518.628 581.598 519.22 581.554 519.945H586.244C586.228 519.214 586.009 518.619 585.588 518.16C585.168 517.701 584.62 517.471 583.945 517.471ZM586.211 522.526H587.63C587.503 523.29 587.105 523.918 586.435 524.411C585.771 524.903 584.971 525.149 584.036 525.149C582.802 525.149 581.831 524.751 581.123 523.954C580.414 523.157 580.06 522.078 580.06 520.717C580.06 519.367 580.414 518.279 581.123 517.455C581.836 516.63 582.785 516.218 583.97 516.218C585.132 516.218 586.05 516.608 586.726 517.388C587.401 518.168 587.738 519.214 587.738 520.526V521.074H581.546V521.157C581.546 521.987 581.773 522.651 582.227 523.149C582.68 523.647 583.295 523.896 584.069 523.896C584.612 523.896 585.074 523.771 585.456 523.522C585.837 523.273 586.089 522.941 586.211 522.526ZM590.187 527.382H588.983L589.789 523.157H591.324L590.187 527.382ZM384.701 545.149C383.495 545.149 382.526 544.748 381.796 543.946C381.065 543.138 380.7 542.05 380.7 540.684C380.7 539.317 381.065 538.232 381.796 537.43C382.526 536.622 383.495 536.218 384.701 536.218C385.902 536.218 386.868 536.622 387.598 537.43C388.329 538.232 388.694 539.317 388.694 540.684C388.694 542.045 388.329 543.13 387.598 543.938C386.868 544.745 385.902 545.149 384.701 545.149ZM382.85 543.033C383.309 543.597 383.926 543.879 384.701 543.879C385.476 543.879 386.09 543.6 386.544 543.041C386.998 542.477 387.225 541.691 387.225 540.684C387.225 539.676 386.998 538.893 386.544 538.334C386.09 537.77 385.476 537.488 384.701 537.488C383.926 537.488 383.309 537.77 382.85 538.334C382.396 538.899 382.169 539.682 382.169 540.684C382.169 541.685 382.396 542.468 382.85 543.033ZM390.155 545V536.367H391.516V537.745H391.549C391.798 537.264 392.155 536.89 392.62 536.625C393.085 536.353 393.641 536.218 394.289 536.218C395.229 536.218 395.963 536.503 396.488 537.073C397.014 537.637 397.277 538.412 397.277 539.397V545H395.833V539.654C395.833 538.951 395.667 538.417 395.334 538.052C395.002 537.681 394.507 537.496 393.849 537.496C393.168 537.496 392.623 537.717 392.213 538.16C391.804 538.603 391.599 539.189 391.599 539.92V545H390.155ZM403.071 534.284H404.515V536.367H406.192V537.554H404.515V542.684C404.515 543.077 404.601 543.368 404.772 543.556C404.944 543.738 405.215 543.83 405.586 543.83C405.818 543.83 406.018 543.816 406.184 543.788V545C405.995 545.044 405.691 545.066 405.271 545.066C404.479 545.066 403.915 544.889 403.577 544.535C403.24 544.181 403.071 543.589 403.071 542.759V537.554H401.784V536.367H403.071V534.284ZM407.811 545V533.022H409.255V537.745H409.288C409.532 537.258 409.886 536.882 410.351 536.616C410.821 536.351 411.38 536.218 412.027 536.218C412.968 536.218 413.71 536.508 414.252 537.089C414.794 537.67 415.065 538.448 415.065 539.422V545H413.621V539.688C413.621 538.99 413.447 538.451 413.098 538.069C412.755 537.687 412.249 537.496 411.579 537.496C410.865 537.496 410.298 537.72 409.877 538.168C409.462 538.617 409.255 539.217 409.255 539.97V545H407.811ZM420.361 537.471C419.692 537.471 419.136 537.704 418.693 538.168C418.256 538.628 418.015 539.22 417.971 539.945H422.661C422.644 539.214 422.425 538.619 422.005 538.16C421.584 537.701 421.036 537.471 420.361 537.471ZM422.627 542.526H424.047C423.92 543.29 423.521 543.918 422.852 544.411C422.188 544.903 421.388 545.149 420.453 545.149C419.219 545.149 418.247 544.751 417.539 543.954C416.831 543.157 416.477 542.078 416.477 540.717C416.477 539.367 416.831 538.279 417.539 537.455C418.253 536.63 419.202 536.218 420.386 536.218C421.548 536.218 422.467 536.608 423.142 537.388C423.817 538.168 424.155 539.214 424.155 540.526V541.074H417.962V541.157C417.962 541.987 418.189 542.651 418.643 543.149C419.097 543.647 419.711 543.896 420.486 543.896C421.028 543.896 421.49 543.771 421.872 543.522C422.254 543.273 422.506 542.941 422.627 542.526ZM433.394 545.149C432.774 545.149 432.22 545.008 431.733 544.726C431.252 544.444 430.87 544.048 430.588 543.539H430.555V545H429.177V533.022H430.621V537.812H430.654C430.925 537.313 431.302 536.923 431.783 536.641C432.27 536.359 432.815 536.218 433.418 536.218C434.509 536.218 435.389 536.625 436.058 537.438C436.728 538.251 437.062 539.333 437.062 540.684C437.062 542.039 436.728 543.124 436.058 543.938C435.389 544.745 434.5 545.149 433.394 545.149ZM433.111 537.488C432.375 537.488 431.775 537.784 431.31 538.376C430.845 538.963 430.613 539.732 430.613 540.684C430.613 541.641 430.845 542.413 431.31 543C431.775 543.586 432.375 543.879 433.111 543.879C433.875 543.879 434.478 543.594 434.921 543.024C435.364 542.449 435.585 541.669 435.585 540.684C435.585 539.704 435.364 538.927 434.921 538.351C434.478 537.776 433.875 537.488 433.111 537.488ZM445.621 536.367V545H444.251V543.597H444.218C443.681 544.632 442.768 545.149 441.479 545.149C440.543 545.149 439.81 544.867 439.279 544.303C438.753 543.733 438.49 542.955 438.49 541.97V536.367H439.935V541.713C439.935 543.152 440.599 543.871 441.927 543.871C442.624 543.871 443.172 543.653 443.57 543.215C443.974 542.773 444.176 542.181 444.176 541.439V536.367H445.621ZM447.347 538.75C447.347 538.008 447.646 537.402 448.244 536.932C448.847 536.456 449.622 536.218 450.568 536.218C451.459 536.218 452.2 536.456 452.792 536.932C453.385 537.408 453.697 538.011 453.73 538.741H452.353C452.303 538.321 452.115 537.991 451.788 537.753C451.467 537.515 451.044 537.396 450.518 537.396C449.992 537.396 449.569 537.515 449.248 537.753C448.927 537.986 448.767 538.293 448.767 538.675C448.767 539.261 449.245 539.676 450.203 539.92L451.539 540.244C452.408 540.465 453.019 540.753 453.374 541.107C453.733 541.456 453.913 541.948 453.913 542.584C453.913 543.337 453.592 543.954 452.95 544.436C452.308 544.911 451.484 545.149 450.477 545.149C449.536 545.149 448.758 544.917 448.144 544.452C447.535 543.982 447.192 543.362 447.115 542.593H448.559C448.72 543.511 449.389 543.971 450.568 543.971C451.149 543.971 451.608 543.857 451.946 543.63C452.289 543.398 452.46 543.085 452.46 542.692C452.46 542.382 452.358 542.136 452.153 541.954C451.954 541.771 451.614 541.616 451.132 541.489L449.613 541.099C448.103 540.711 447.347 539.928 447.347 538.75ZM456.403 547.382H455.2L456.005 543.157H457.541L456.403 547.382ZM465.966 545.149C464.759 545.149 463.791 544.748 463.061 543.946C462.33 543.138 461.965 542.05 461.965 540.684C461.965 539.317 462.33 538.232 463.061 537.43C463.791 536.622 464.759 536.218 465.966 536.218C467.167 536.218 468.132 536.622 468.863 537.43C469.593 538.232 469.958 539.317 469.958 540.684C469.958 542.045 469.593 543.13 468.863 543.938C468.132 544.745 467.167 545.149 465.966 545.149ZM464.115 543.033C464.574 543.597 465.191 543.879 465.966 543.879C466.741 543.879 467.355 543.6 467.809 543.041C468.262 542.477 468.489 541.691 468.489 540.684C468.489 539.676 468.262 538.893 467.809 538.334C467.355 537.77 466.741 537.488 465.966 537.488C465.191 537.488 464.574 537.77 464.115 538.334C463.661 538.899 463.434 539.682 463.434 540.684C463.434 541.685 463.661 542.468 464.115 543.033ZM471.419 545V536.367H472.781V537.778H472.814C472.958 537.297 473.215 536.918 473.586 536.641C473.962 536.359 474.402 536.218 474.906 536.218C475.022 536.218 475.216 536.237 475.487 536.276V537.679C475.332 537.623 475.075 537.596 474.715 537.596C474.156 537.596 473.708 537.781 473.37 538.152C473.033 538.523 472.864 539.012 472.864 539.621V545H471.419ZM482.999 543.921C483.68 543.921 484.25 543.711 484.709 543.29C485.174 542.864 485.406 542.341 485.406 541.721V541.016L483.099 541.157C482.518 541.195 482.067 541.337 481.746 541.58C481.43 541.824 481.272 542.15 481.272 542.56C481.272 542.969 481.43 543.298 481.746 543.547C482.061 543.796 482.479 543.921 482.999 543.921ZM482.675 545.149C481.818 545.149 481.123 544.911 480.592 544.436C480.066 543.96 479.803 543.334 479.803 542.56C479.803 541.818 480.074 541.226 480.617 540.783C481.165 540.34 481.937 540.091 482.933 540.036L485.406 539.895V539.173C485.406 538.647 485.24 538.235 484.908 537.936C484.576 537.637 484.111 537.488 483.514 537.488C482.966 537.488 482.52 537.61 482.177 537.853C481.834 538.091 481.616 538.426 481.521 538.857H480.127C480.177 538.088 480.509 537.457 481.123 536.965C481.743 536.467 482.551 536.218 483.547 536.218C484.56 536.218 485.362 536.472 485.954 536.981C486.552 537.491 486.851 538.174 486.851 539.032V545H485.481V543.514H485.448C485.188 544.007 484.806 544.402 484.302 544.701C483.799 545 483.256 545.149 482.675 545.149ZM489.15 534.284H490.594V536.367H492.271V537.554H490.594V542.684C490.594 543.077 490.68 543.368 490.852 543.556C491.023 543.738 491.294 543.83 491.665 543.83C491.897 543.83 492.097 543.816 492.263 543.788V545C492.075 545.044 491.77 545.066 491.35 545.066C490.558 545.066 489.994 544.889 489.656 544.535C489.319 544.181 489.15 543.589 489.15 542.759V537.554H487.863V536.367H489.15V534.284ZM497.766 534.284H499.21V536.367H500.887V537.554H499.21V542.684C499.21 543.077 499.296 543.368 499.468 543.556C499.639 543.738 499.91 543.83 500.281 543.83C500.514 543.83 500.713 543.816 500.879 543.788V545C500.691 545.044 500.386 545.066 499.966 545.066C499.174 545.066 498.61 544.889 498.272 544.535C497.935 544.181 497.766 543.589 497.766 542.759V537.554H496.479V536.367H497.766V534.284ZM502.506 545V533.022H503.95V537.745H503.983C504.227 537.258 504.581 536.882 505.046 536.616C505.516 536.351 506.075 536.218 506.723 536.218C507.663 536.218 508.405 536.508 508.947 537.089C509.49 537.67 509.761 538.448 509.761 539.422V545H508.316V539.688C508.316 538.99 508.142 538.451 507.793 538.069C507.45 537.687 506.944 537.496 506.274 537.496C505.561 537.496 504.993 537.72 504.573 538.168C504.158 538.617 503.95 539.217 503.95 539.97V545H502.506ZM515.057 537.471C514.387 537.471 513.831 537.704 513.388 538.168C512.951 538.628 512.71 539.22 512.666 539.945H517.356C517.339 539.214 517.121 538.619 516.7 538.16C516.28 537.701 515.732 537.471 515.057 537.471ZM517.323 542.526H518.742C518.615 543.29 518.216 543.918 517.547 544.411C516.883 544.903 516.083 545.149 515.148 545.149C513.914 545.149 512.943 544.751 512.234 543.954C511.526 543.157 511.172 542.078 511.172 540.717C511.172 539.367 511.526 538.279 512.234 537.455C512.948 536.63 513.897 536.218 515.082 536.218C516.244 536.218 517.162 536.608 517.837 537.388C518.513 538.168 518.85 539.214 518.85 540.526V541.074H512.658V541.157C512.658 541.987 512.885 542.651 513.338 543.149C513.792 543.647 514.406 543.896 515.181 543.896C515.723 543.896 516.186 543.771 516.567 543.522C516.949 543.273 517.201 542.941 517.323 542.526ZM527.309 543.796C528.061 543.796 528.667 543.509 529.126 542.933C529.586 542.358 529.815 541.597 529.815 540.65C529.815 539.699 529.586 538.935 529.126 538.359C528.667 537.778 528.061 537.488 527.309 537.488C526.562 537.488 525.964 537.776 525.516 538.351C525.073 538.921 524.852 539.688 524.852 540.65C524.852 541.613 525.073 542.38 525.516 542.95C525.964 543.514 526.562 543.796 527.309 543.796ZM527.358 548.254C526.412 548.254 525.599 548.013 524.918 547.532C524.237 547.056 523.836 546.45 523.714 545.714H525.2C525.344 546.112 525.615 546.431 526.014 546.668C526.412 546.906 526.88 547.025 527.417 547.025C528.158 547.025 528.742 546.829 529.168 546.436C529.6 546.043 529.815 545.523 529.815 544.875V543.514H529.782C529.511 543.99 529.132 544.369 528.645 544.651C528.158 544.928 527.616 545.066 527.018 545.066C525.917 545.066 525.034 544.665 524.37 543.863C523.706 543.06 523.374 541.99 523.374 540.65C523.374 539.3 523.706 538.224 524.37 537.421C525.04 536.619 525.933 536.218 527.051 536.218C527.66 536.218 528.208 536.359 528.695 536.641C529.182 536.923 529.569 537.316 529.857 537.82H529.882V536.367H531.26V544.826C531.26 545.861 530.906 546.691 530.197 547.316C529.489 547.941 528.543 548.254 527.358 548.254ZM533.144 545V536.367H534.505V537.778H534.539C534.682 537.297 534.94 536.918 535.311 536.641C535.687 536.359 536.127 536.218 536.63 536.218C536.747 536.218 536.94 536.237 537.211 536.276V537.679C537.056 537.623 536.799 537.596 536.439 537.596C535.881 537.596 535.432 537.781 535.095 538.152C534.757 538.523 534.588 539.012 534.588 539.621V545H533.144ZM541.553 545.149C540.346 545.149 539.378 544.748 538.647 543.946C537.917 543.138 537.552 542.05 537.552 540.684C537.552 539.317 537.917 538.232 538.647 537.43C539.378 536.622 540.346 536.218 541.553 536.218C542.754 536.218 543.719 536.622 544.45 537.43C545.18 538.232 545.545 539.317 545.545 540.684C545.545 542.045 545.18 543.13 544.45 543.938C543.719 544.745 542.754 545.149 541.553 545.149ZM539.702 543.033C540.161 543.597 540.778 543.879 541.553 543.879C542.327 543.879 542.942 543.6 543.396 543.041C543.849 542.477 544.076 541.691 544.076 540.684C544.076 539.676 543.849 538.893 543.396 538.334C542.942 537.77 542.327 537.488 541.553 537.488C540.778 537.488 540.161 537.77 539.702 538.334C539.248 538.899 539.021 539.682 539.021 540.684C539.021 541.685 539.248 542.468 539.702 543.033ZM554.178 539.198H552.767C552.656 538.7 552.41 538.29 552.028 537.969C551.652 537.648 551.162 537.488 550.559 537.488C549.806 537.488 549.201 537.778 548.741 538.359C548.282 538.935 548.052 539.71 548.052 540.684C548.052 541.674 548.282 542.454 548.741 543.024C549.206 543.594 549.818 543.879 550.576 543.879C551.157 543.879 551.635 543.736 552.012 543.448C552.394 543.154 552.648 542.745 552.775 542.219H554.195C554.084 543.083 553.694 543.788 553.024 544.336C552.36 544.878 551.541 545.149 550.567 545.149C549.361 545.149 548.395 544.751 547.67 543.954C546.945 543.152 546.583 542.062 546.583 540.684C546.583 539.328 546.945 538.246 547.67 537.438C548.395 536.625 549.355 536.218 550.551 536.218C551.58 536.218 552.416 536.508 553.058 537.089C553.705 537.67 554.079 538.373 554.178 539.198ZM558.984 537.471C558.315 537.471 557.759 537.704 557.316 538.168C556.879 538.628 556.638 539.22 556.594 539.945H561.284C561.267 539.214 561.049 538.619 560.628 538.16C560.207 537.701 559.66 537.471 558.984 537.471ZM561.25 542.526H562.67C562.543 543.29 562.144 543.918 561.475 544.411C560.811 544.903 560.011 545.149 559.076 545.149C557.842 545.149 556.87 544.751 556.162 543.954C555.454 543.157 555.1 542.078 555.1 540.717C555.1 539.367 555.454 538.279 556.162 537.455C556.876 536.63 557.825 536.218 559.009 536.218C560.171 536.218 561.09 536.608 561.765 537.388C562.44 538.168 562.778 539.214 562.778 540.526V541.074H556.585V541.157C556.585 541.987 556.812 542.651 557.266 543.149C557.72 543.647 558.334 543.896 559.109 543.896C559.651 543.896 560.113 543.771 560.495 543.522C560.877 543.273 561.129 542.941 561.25 542.526ZM564.239 545V536.367H565.6V537.778H565.633C565.777 537.297 566.035 536.918 566.405 536.641C566.782 536.359 567.222 536.218 567.725 536.218C567.841 536.218 568.035 536.237 568.306 536.276V537.679C568.151 537.623 567.894 537.596 567.534 537.596C566.975 537.596 566.527 537.781 566.189 538.152C565.852 538.523 565.683 539.012 565.683 539.621V545H564.239ZM570.199 548.229C569.944 548.229 569.737 548.212 569.576 548.179V546.967C569.709 546.995 569.897 547.009 570.141 547.009C570.545 547.009 570.868 546.901 571.112 546.685C571.355 546.475 571.56 546.118 571.726 545.614L571.925 545.008L568.738 536.367H570.282L572.672 543.556H572.697L575.088 536.367H576.607L573.212 545.606C572.841 546.613 572.44 547.302 572.008 547.673C571.582 548.044 570.979 548.229 570.199 548.229ZM371.52 558.75C371.52 558.008 371.818 557.402 372.416 556.932C373.019 556.456 373.794 556.218 374.74 556.218C375.631 556.218 376.373 556.456 376.965 556.932C377.557 557.408 377.87 558.011 377.903 558.741H376.525C376.475 558.321 376.287 557.991 375.96 557.753C375.639 557.515 375.216 557.396 374.69 557.396C374.165 557.396 373.741 557.515 373.42 557.753C373.099 557.986 372.939 558.293 372.939 558.675C372.939 559.261 373.418 559.676 374.375 559.92L375.711 560.244C376.58 560.465 377.192 560.753 377.546 561.107C377.906 561.456 378.085 561.948 378.085 562.584C378.085 563.337 377.764 563.954 377.123 564.436C376.481 564.911 375.656 565.149 374.649 565.149C373.708 565.149 372.931 564.917 372.316 564.452C371.708 563.982 371.365 563.362 371.287 562.593H372.731C372.892 563.511 373.562 563.971 374.74 563.971C375.321 563.971 375.781 563.857 376.118 563.63C376.461 563.398 376.633 563.085 376.633 562.692C376.633 562.382 376.53 562.136 376.326 561.954C376.126 561.771 375.786 561.616 375.305 561.489L373.786 561.099C372.275 560.711 371.52 559.928 371.52 558.75ZM380.053 554.284H381.497V556.367H383.174V557.554H381.497V562.684C381.497 563.077 381.583 563.368 381.754 563.556C381.926 563.738 382.197 563.83 382.568 563.83C382.8 563.83 383 563.816 383.166 563.788V565C382.977 565.044 382.673 565.066 382.252 565.066C381.461 565.066 380.897 564.889 380.559 564.535C380.222 564.181 380.053 563.589 380.053 562.759V557.554H378.766V556.367H380.053V554.284ZM388.046 565.149C386.84 565.149 385.872 564.748 385.141 563.946C384.411 563.138 384.045 562.05 384.045 560.684C384.045 559.317 384.411 558.232 385.141 557.43C385.872 556.622 386.84 556.218 388.046 556.218C389.247 556.218 390.213 556.622 390.943 557.43C391.674 558.232 392.039 559.317 392.039 560.684C392.039 562.045 391.674 563.13 390.943 563.938C390.213 564.745 389.247 565.149 388.046 565.149ZM386.195 563.033C386.655 563.597 387.272 563.879 388.046 563.879C388.821 563.879 389.435 563.6 389.889 563.041C390.343 562.477 390.57 561.691 390.57 560.684C390.57 559.676 390.343 558.893 389.889 558.334C389.435 557.77 388.821 557.488 388.046 557.488C387.272 557.488 386.655 557.77 386.195 558.334C385.742 558.899 385.515 559.682 385.515 560.684C385.515 561.685 385.742 562.468 386.195 563.033ZM393.5 565V556.367H394.861V557.778H394.895C395.038 557.297 395.296 556.918 395.667 556.641C396.043 556.359 396.483 556.218 396.986 556.218C397.103 556.218 397.296 556.237 397.567 556.276V557.679C397.412 557.623 397.155 557.596 396.795 557.596C396.236 557.596 395.788 557.781 395.451 558.152C395.113 558.523 394.944 559.012 394.944 559.621V565H393.5ZM401.792 557.471C401.123 557.471 400.567 557.704 400.124 558.168C399.687 558.628 399.446 559.22 399.402 559.945H404.092C404.075 559.214 403.857 558.619 403.436 558.16C403.015 557.701 402.468 557.471 401.792 557.471ZM404.059 562.526H405.478C405.351 563.29 404.952 563.918 404.283 564.411C403.619 564.903 402.819 565.149 401.884 565.149C400.65 565.149 399.679 564.751 398.97 563.954C398.262 563.157 397.908 562.078 397.908 560.717C397.908 559.367 398.262 558.279 398.97 557.455C399.684 556.63 400.633 556.218 401.817 556.218C402.979 556.218 403.898 556.608 404.573 557.388C405.248 558.168 405.586 559.214 405.586 560.526V561.074H399.394V561.157C399.394 561.987 399.62 562.651 400.074 563.149C400.528 563.647 401.142 563.896 401.917 563.896C402.459 563.896 402.921 563.771 403.303 563.522C403.685 563.273 403.937 562.941 404.059 562.526ZM421.515 556.367L419.108 565H417.639L415.688 558.318H415.655L413.712 565H412.243L409.828 556.367H411.264L412.99 563.39H413.023L414.974 556.367H416.369L418.328 563.39H418.361L420.087 556.367H421.515ZM422.777 565V556.367H424.221V565H422.777ZM423.499 554.915C423.256 554.915 423.045 554.826 422.868 554.649C422.691 554.472 422.603 554.262 422.603 554.018C422.603 553.769 422.691 553.559 422.868 553.387C423.045 553.21 423.256 553.122 423.499 553.122C423.748 553.122 423.961 553.21 424.138 553.387C424.315 553.559 424.404 553.769 424.404 554.018C424.404 554.262 424.315 554.472 424.138 554.649C423.961 554.826 423.748 554.915 423.499 554.915ZM426.637 554.284H428.081V556.367H429.758V557.554H428.081V562.684C428.081 563.077 428.167 563.368 428.338 563.556C428.51 563.738 428.781 563.83 429.152 563.83C429.384 563.83 429.583 563.816 429.75 563.788V565C429.561 565.044 429.257 565.066 428.836 565.066C428.045 565.066 427.481 564.889 427.143 564.535C426.806 564.181 426.637 563.589 426.637 562.759V557.554H425.35V556.367H426.637V554.284ZM431.376 565V553.022H432.821V557.745H432.854C433.097 557.258 433.452 556.882 433.917 556.616C434.387 556.351 434.946 556.218 435.593 556.218C436.534 556.218 437.276 556.508 437.818 557.089C438.36 557.67 438.631 558.448 438.631 559.422V565H437.187V559.688C437.187 558.99 437.013 558.451 436.664 558.069C436.321 557.687 435.815 557.496 435.145 557.496C434.431 557.496 433.864 557.72 433.443 558.168C433.028 558.617 432.821 559.217 432.821 559.97V565H431.376ZM448.244 565.149C447.624 565.149 447.07 565.008 446.583 564.726C446.102 564.444 445.72 564.048 445.438 563.539H445.405V565H444.027V553.022H445.471V557.812H445.504C445.776 557.313 446.152 556.923 446.633 556.641C447.12 556.359 447.665 556.218 448.269 556.218C449.359 556.218 450.239 556.625 450.908 557.438C451.578 558.251 451.913 559.333 451.913 560.684C451.913 562.039 451.578 563.124 450.908 563.938C450.239 564.745 449.35 565.149 448.244 565.149ZM447.961 557.488C447.225 557.488 446.625 557.784 446.16 558.376C445.695 558.963 445.463 559.732 445.463 560.684C445.463 561.641 445.695 562.413 446.16 563C446.625 563.586 447.225 563.879 447.961 563.879C448.725 563.879 449.328 563.594 449.771 563.024C450.214 562.449 450.435 561.669 450.435 560.684C450.435 559.704 450.214 558.927 449.771 558.351C449.328 557.776 448.725 557.488 447.961 557.488ZM453.457 565V556.367H454.901V565H453.457ZM454.179 554.915C453.935 554.915 453.725 554.826 453.548 554.649C453.371 554.472 453.282 554.262 453.282 554.018C453.282 553.769 453.371 553.559 453.548 553.387C453.725 553.21 453.935 553.122 454.179 553.122C454.428 553.122 454.641 553.21 454.818 553.387C454.995 553.559 455.083 553.769 455.083 554.018C455.083 554.262 454.995 554.472 454.818 554.649C454.641 554.826 454.428 554.915 454.179 554.915ZM457.316 554.284H458.761V556.367H460.438V557.554H458.761V562.684C458.761 563.077 458.847 563.368 459.018 563.556C459.19 563.738 459.461 563.83 459.832 563.83C460.064 563.83 460.263 563.816 460.429 563.788V565C460.241 565.044 459.937 565.066 459.516 565.066C458.725 565.066 458.16 564.889 457.823 564.535C457.485 564.181 457.316 563.589 457.316 562.759V557.554H456.03V556.367H457.316V554.284ZM465.194 557.471C464.524 557.471 463.968 557.704 463.525 558.168C463.088 558.628 462.847 559.22 462.803 559.945H467.493C467.477 559.214 467.258 558.619 466.837 558.16C466.417 557.701 465.869 557.471 465.194 557.471ZM467.46 562.526H468.879C468.752 563.29 468.354 563.918 467.684 564.411C467.02 564.903 466.22 565.149 465.285 565.149C464.051 565.149 463.08 564.751 462.372 563.954C461.663 563.157 461.309 562.078 461.309 560.717C461.309 559.367 461.663 558.279 462.372 557.455C463.085 556.63 464.035 556.218 465.219 556.218C466.381 556.218 467.299 556.608 467.975 557.388C468.65 558.168 468.987 559.214 468.987 560.526V561.074H462.795V561.157C462.795 561.987 463.022 562.651 463.476 563.149C463.929 563.647 464.544 563.896 465.318 563.896C465.861 563.896 466.323 563.771 466.705 563.522C467.086 563.273 467.338 562.941 467.46 562.526ZM475.877 560.816H470.432V559.472H475.877V560.816ZM477.587 558.75C477.587 558.008 477.886 557.402 478.483 556.932C479.087 556.456 479.861 556.218 480.808 556.218C481.699 556.218 482.44 556.456 483.032 556.932C483.624 557.408 483.937 558.011 483.97 558.741H482.592C482.542 558.321 482.354 557.991 482.028 557.753C481.707 557.515 481.284 557.396 480.758 557.396C480.232 557.396 479.809 557.515 479.488 557.753C479.167 557.986 479.006 558.293 479.006 558.675C479.006 559.261 479.485 559.676 480.442 559.92L481.779 560.244C482.648 560.465 483.259 560.753 483.613 561.107C483.973 561.456 484.153 561.948 484.153 562.584C484.153 563.337 483.832 563.954 483.19 564.436C482.548 564.911 481.723 565.149 480.716 565.149C479.776 565.149 478.998 564.917 478.384 564.452C477.775 563.982 477.432 563.362 477.354 562.593H478.799C478.959 563.511 479.629 563.971 480.808 563.971C481.389 563.971 481.848 563.857 482.186 563.63C482.529 563.398 482.7 563.085 482.7 562.692C482.7 562.382 482.598 562.136 482.393 561.954C482.194 561.771 481.854 561.616 481.372 561.489L479.853 561.099C478.342 560.711 477.587 559.928 477.587 558.75ZM485.73 565V556.367H487.174V565H485.73ZM486.452 554.915C486.209 554.915 485.998 554.826 485.821 554.649C485.644 554.472 485.556 554.262 485.556 554.018C485.556 553.769 485.644 553.559 485.821 553.387C485.998 553.21 486.209 553.122 486.452 553.122C486.701 553.122 486.914 553.21 487.091 553.387C487.268 553.559 487.357 553.769 487.357 554.018C487.357 554.262 487.268 554.472 487.091 554.649C486.914 554.826 486.701 554.915 486.452 554.915ZM488.942 565V563.971L493.724 557.579V557.554H488.951V556.367H495.359V557.421L490.611 563.788V563.813H495.384V565H488.942ZM500.207 557.471C499.537 557.471 498.981 557.704 498.538 558.168C498.101 558.628 497.86 559.22 497.816 559.945H502.506C502.489 559.214 502.271 558.619 501.85 558.16C501.43 557.701 500.882 557.471 500.207 557.471ZM502.473 562.526H503.892C503.765 563.29 503.366 563.918 502.697 564.411C502.033 564.903 501.233 565.149 500.298 565.149C499.064 565.149 498.093 564.751 497.384 563.954C496.676 563.157 496.322 562.078 496.322 560.717C496.322 559.367 496.676 558.279 497.384 557.455C498.098 556.63 499.047 556.218 500.231 556.218C501.394 556.218 502.312 556.608 502.987 557.388C503.662 558.168 504 559.214 504 560.526V561.074H497.808V561.157C497.808 561.987 498.035 562.651 498.488 563.149C498.942 563.647 499.556 563.896 500.331 563.896C500.873 563.896 501.335 563.771 501.717 563.522C502.099 563.273 502.351 562.941 502.473 562.526ZM508.731 565.149C507.625 565.149 506.731 564.743 506.05 563.929C505.375 563.116 505.038 562.034 505.038 560.684C505.038 559.339 505.375 558.26 506.05 557.446C506.725 556.627 507.608 556.218 508.698 556.218C509.307 556.218 509.852 556.356 510.333 556.633C510.815 556.91 511.186 557.289 511.446 557.77H511.479V553.022H512.923V565H511.545V563.539H511.521C511.238 564.043 510.856 564.438 510.375 564.726C509.894 565.008 509.346 565.149 508.731 565.149ZM509.005 557.488C508.242 557.488 507.636 557.778 507.188 558.359C506.739 558.935 506.515 559.71 506.515 560.684C506.515 561.663 506.739 562.441 507.188 563.016C507.636 563.592 508.242 563.879 509.005 563.879C509.752 563.879 510.353 563.589 510.807 563.008C511.26 562.421 511.487 561.646 511.487 560.684C511.487 559.721 511.258 558.949 510.798 558.368C510.345 557.781 509.747 557.488 509.005 557.488ZM521.822 557.471C521.152 557.471 520.596 557.704 520.153 558.168C519.716 558.628 519.475 559.22 519.431 559.945H524.121C524.104 559.214 523.886 558.619 523.465 558.16C523.045 557.701 522.497 557.471 521.822 557.471ZM524.088 562.526H525.507C525.38 563.29 524.982 563.918 524.312 564.411C523.648 564.903 522.848 565.149 521.913 565.149C520.679 565.149 519.708 564.751 519 563.954C518.291 563.157 517.937 562.078 517.937 560.717C517.937 559.367 518.291 558.279 519 557.455C519.713 556.63 520.662 556.218 521.847 556.218C523.009 556.218 523.927 556.608 524.603 557.388C525.278 558.168 525.615 559.214 525.615 560.526V561.074H519.423V561.157C519.423 561.987 519.65 562.651 520.104 563.149C520.557 563.647 521.172 563.896 521.946 563.896C522.489 563.896 522.951 563.771 523.333 563.522C523.714 563.273 523.966 562.941 524.088 562.526ZM531.268 556.218C532.375 556.218 533.266 556.625 533.941 557.438C534.622 558.251 534.962 559.333 534.962 560.684C534.962 562.028 534.624 563.11 533.949 563.929C533.274 564.743 532.391 565.149 531.301 565.149C530.693 565.149 530.147 565.011 529.666 564.734C529.185 564.458 528.814 564.079 528.554 563.597H528.521V567.88H527.076V556.367H528.446V557.828H528.479C528.75 557.33 529.129 556.937 529.616 556.649C530.103 556.362 530.654 556.218 531.268 556.218ZM530.986 563.879C531.755 563.879 532.364 563.592 532.812 563.016C533.26 562.441 533.484 561.663 533.484 560.684C533.484 559.704 533.26 558.927 532.812 558.351C532.364 557.776 531.755 557.488 530.986 557.488C530.244 557.488 529.647 557.781 529.193 558.368C528.739 558.954 528.512 559.726 528.512 560.684C528.512 561.646 528.739 562.421 529.193 563.008C529.647 563.589 530.244 563.879 530.986 563.879ZM536.498 565V556.367H537.942V565H536.498ZM537.22 554.915C536.976 554.915 536.766 554.826 536.589 554.649C536.412 554.472 536.323 554.262 536.323 554.018C536.323 553.769 536.412 553.559 536.589 553.387C536.766 553.21 536.976 553.122 537.22 553.122C537.469 553.122 537.682 553.21 537.859 553.387C538.036 553.559 538.125 553.769 538.125 554.018C538.125 554.262 538.036 554.472 537.859 554.649C537.682 554.826 537.469 554.915 537.22 554.915ZM539.743 558.75C539.743 558.008 540.042 557.402 540.64 556.932C541.243 556.456 542.018 556.218 542.964 556.218C543.855 556.218 544.596 556.456 545.188 556.932C545.781 557.408 546.093 558.011 546.126 558.741H544.749C544.699 558.321 544.511 557.991 544.184 557.753C543.863 557.515 543.44 557.396 542.914 557.396C542.388 557.396 541.965 557.515 541.644 557.753C541.323 557.986 541.163 558.293 541.163 558.675C541.163 559.261 541.641 559.676 542.599 559.92L543.935 560.244C544.804 560.465 545.415 560.753 545.77 561.107C546.129 561.456 546.309 561.948 546.309 562.584C546.309 563.337 545.988 563.954 545.346 564.436C544.704 564.911 543.88 565.149 542.873 565.149C541.932 565.149 541.154 564.917 540.54 564.452C539.931 563.982 539.588 563.362 539.511 562.593H540.955C541.116 563.511 541.785 563.971 542.964 563.971C543.545 563.971 544.004 563.857 544.342 563.63C544.685 563.398 544.856 563.085 544.856 562.692C544.856 562.382 544.754 562.136 544.549 561.954C544.35 561.771 544.01 561.616 543.528 561.489L542.009 561.099C540.499 560.711 539.743 559.928 539.743 558.75ZM551.389 565.149C550.183 565.149 549.214 564.748 548.484 563.946C547.753 563.138 547.388 562.05 547.388 560.684C547.388 559.317 547.753 558.232 548.484 557.43C549.214 556.622 550.183 556.218 551.389 556.218C552.59 556.218 553.556 556.622 554.286 557.43C555.017 558.232 555.382 559.317 555.382 560.684C555.382 562.045 555.017 563.13 554.286 563.938C553.556 564.745 552.59 565.149 551.389 565.149ZM549.538 563.033C549.997 563.597 550.614 563.879 551.389 563.879C552.164 563.879 552.778 563.6 553.232 563.041C553.686 562.477 553.913 561.691 553.913 560.684C553.913 559.676 553.686 558.893 553.232 558.334C552.778 557.77 552.164 557.488 551.389 557.488C550.614 557.488 549.997 557.77 549.538 558.334C549.084 558.899 548.857 559.682 548.857 560.684C548.857 561.685 549.084 562.468 549.538 563.033ZM560.113 565.149C559.007 565.149 558.113 564.743 557.432 563.929C556.757 563.116 556.419 562.034 556.419 560.684C556.419 559.339 556.757 558.26 557.432 557.446C558.107 556.627 558.99 556.218 560.08 556.218C560.689 556.218 561.234 556.356 561.715 556.633C562.197 556.91 562.568 557.289 562.828 557.77H562.861V553.022H564.305V565H562.927V563.539H562.902C562.62 564.043 562.238 564.438 561.757 564.726C561.275 565.008 560.728 565.149 560.113 565.149ZM560.387 557.488C559.624 557.488 559.018 557.778 558.569 558.359C558.121 558.935 557.897 559.71 557.897 560.684C557.897 561.663 558.121 562.441 558.569 563.016C559.018 563.592 559.624 563.879 560.387 563.879C561.134 563.879 561.735 563.589 562.188 563.008C562.642 562.421 562.869 561.646 562.869 560.684C562.869 559.721 562.639 558.949 562.18 558.368C561.726 557.781 561.129 557.488 560.387 557.488ZM569.717 557.471C569.048 557.471 568.492 557.704 568.049 558.168C567.612 558.628 567.371 559.22 567.327 559.945H572.017C572 559.214 571.781 558.619 571.361 558.16C570.94 557.701 570.392 557.471 569.717 557.471ZM571.983 562.526H573.403C573.276 563.29 572.877 563.918 572.208 564.411C571.543 564.903 570.744 565.149 569.809 565.149C568.575 565.149 567.603 564.751 566.895 563.954C566.187 563.157 565.833 562.078 565.833 560.717C565.833 559.367 566.187 558.279 566.895 557.455C567.609 556.63 568.558 556.218 569.742 556.218C570.904 556.218 571.823 556.608 572.498 557.388C573.173 558.168 573.511 559.214 573.511 560.526V561.074H567.318V561.157C567.318 561.987 567.545 562.651 567.999 563.149C568.453 563.647 569.067 563.896 569.842 563.896C570.384 563.896 570.846 563.771 571.228 563.522C571.61 563.273 571.862 562.941 571.983 562.526ZM574.822 558.75C574.822 558.008 575.121 557.402 575.719 556.932C576.322 556.456 577.097 556.218 578.043 556.218C578.934 556.218 579.675 556.456 580.268 556.932C580.86 557.408 581.172 558.011 581.206 558.741H579.828C579.778 558.321 579.59 557.991 579.263 557.753C578.942 557.515 578.519 557.396 577.993 557.396C577.467 557.396 577.044 557.515 576.723 557.753C576.402 557.986 576.242 558.293 576.242 558.675C576.242 559.261 576.72 559.676 577.678 559.92L579.014 560.244C579.883 560.465 580.494 560.753 580.849 561.107C581.208 561.456 581.388 561.948 581.388 562.584C581.388 563.337 581.067 563.954 580.425 564.436C579.783 564.911 578.959 565.149 577.952 565.149C577.011 565.149 576.233 564.917 575.619 564.452C575.01 563.982 574.667 563.362 574.59 562.593H576.034C576.195 563.511 576.864 563.971 578.043 563.971C578.624 563.971 579.083 563.857 579.421 563.63C579.764 563.398 579.936 563.085 579.936 562.692C579.936 562.382 579.833 562.136 579.628 561.954C579.429 561.771 579.089 561.616 578.607 561.489L577.088 561.099C575.578 560.711 574.822 559.928 574.822 558.75ZM584.783 564.809C584.601 564.992 584.376 565.083 584.111 565.083C583.845 565.083 583.621 564.992 583.438 564.809C583.256 564.626 583.165 564.402 583.165 564.137C583.165 563.871 583.256 563.647 583.438 563.464C583.621 563.282 583.845 563.19 584.111 563.19C584.376 563.19 584.601 563.282 584.783 563.464C584.966 563.647 585.057 563.871 585.057 564.137C585.057 564.402 584.966 564.626 584.783 564.809Z" fill="black"/>
<path d="M404.691 458.445V461H393.992V444.09H397.016V458.445H404.691ZM411.688 450.582C410.875 450.582 410.195 450.863 409.648 451.426C409.109 451.98 408.809 452.695 408.746 453.57H414.547C414.516 452.688 414.238 451.969 413.715 451.414C413.191 450.859 412.516 450.582 411.688 450.582ZM414.559 457.285H417.289C417.102 458.465 416.504 459.422 415.496 460.156C414.488 460.883 413.254 461.246 411.793 461.246C409.934 461.246 408.473 460.676 407.41 459.535C406.348 458.387 405.816 456.82 405.816 454.836C405.816 452.867 406.344 451.289 407.398 450.102C408.461 448.914 409.887 448.32 411.676 448.32C413.434 448.32 414.828 448.887 415.859 450.02C416.891 451.145 417.406 452.652 417.406 454.543V455.492H408.723V455.668C408.723 456.668 409.004 457.473 409.566 458.082C410.137 458.691 410.898 458.996 411.852 458.996C412.523 458.996 413.102 458.844 413.586 458.539C414.078 458.227 414.402 457.809 414.559 457.285ZM423.828 458.996C424.664 458.996 425.367 458.75 425.938 458.258C426.516 457.758 426.805 457.137 426.805 456.395V455.445L423.934 455.621C423.23 455.668 422.684 455.844 422.293 456.148C421.91 456.445 421.719 456.84 421.719 457.332C421.719 457.84 421.91 458.246 422.293 458.551C422.684 458.848 423.195 458.996 423.828 458.996ZM422.949 461.199C421.738 461.199 420.742 460.852 419.961 460.156C419.188 459.461 418.801 458.559 418.801 457.449C418.801 456.348 419.207 455.477 420.02 454.836C420.84 454.195 422.008 453.828 423.523 453.734L426.805 453.547V452.656C426.805 452.008 426.598 451.504 426.184 451.145C425.777 450.785 425.211 450.605 424.484 450.605C423.805 450.605 423.25 450.758 422.82 451.062C422.391 451.367 422.129 451.781 422.035 452.305H419.328C419.391 451.125 419.895 450.168 420.84 449.434C421.793 448.691 423.047 448.32 424.602 448.32C426.141 448.32 427.371 448.695 428.293 449.445C429.223 450.195 429.688 451.195 429.688 452.445V461H426.875V459.02H426.816C426.465 459.684 425.934 460.215 425.223 460.613C424.512 461.004 423.754 461.199 422.949 461.199ZM432.043 461V448.578H434.844V450.746H434.902C435.113 449.988 435.477 449.402 435.992 448.988C436.516 448.574 437.145 448.367 437.879 448.367C438.137 448.367 438.441 448.406 438.793 448.484V451.121C438.504 451.012 438.109 450.957 437.609 450.957C436.781 450.957 436.133 451.207 435.664 451.707C435.195 452.207 434.961 452.895 434.961 453.77V461H432.043ZM440.293 461V448.578H443.094V450.711H443.152C443.496 449.961 443.996 449.379 444.652 448.965C445.316 448.551 446.117 448.344 447.055 448.344C448.414 448.344 449.469 448.754 450.219 449.574C450.977 450.395 451.355 451.527 451.355 452.973V461H448.438V453.559C448.438 452.668 448.227 451.988 447.805 451.52C447.391 451.051 446.773 450.816 445.953 450.816C445.117 450.816 444.449 451.09 443.949 451.637C443.457 452.184 443.211 452.906 443.211 453.805V461H440.293ZM475.355 448.578L471.992 461H468.922L466.473 451.918H466.414L463.977 461H460.93L457.566 448.578H460.496L462.594 458.117H462.652L465.078 448.578H467.879L470.305 458.117H470.375L472.473 448.578H475.355ZM476.891 461V444.09H479.773V450.711H479.832C480.168 449.953 480.672 449.371 481.344 448.965C482.016 448.551 482.82 448.344 483.758 448.344C485.117 448.344 486.18 448.762 486.945 449.598C487.719 450.426 488.105 451.559 488.105 452.996V461H485.188V453.594C485.188 452.711 484.969 452.027 484.531 451.543C484.102 451.059 483.469 450.816 482.633 450.816C481.758 450.816 481.066 451.094 480.559 451.648C480.059 452.203 479.809 452.941 479.809 453.863V461H476.891ZM495.805 450.582C494.992 450.582 494.312 450.863 493.766 451.426C493.227 451.98 492.926 452.695 492.863 453.57H498.664C498.633 452.688 498.355 451.969 497.832 451.414C497.309 450.859 496.633 450.582 495.805 450.582ZM498.676 457.285H501.406C501.219 458.465 500.621 459.422 499.613 460.156C498.605 460.883 497.371 461.246 495.91 461.246C494.051 461.246 492.59 460.676 491.527 459.535C490.465 458.387 489.934 456.82 489.934 454.836C489.934 452.867 490.461 451.289 491.516 450.102C492.578 448.914 494.004 448.32 495.793 448.32C497.551 448.32 498.945 448.887 499.977 450.02C501.008 451.145 501.523 452.652 501.523 454.543V455.492H492.84V455.668C492.84 456.668 493.121 457.473 493.684 458.082C494.254 458.691 495.016 458.996 495.969 458.996C496.641 458.996 497.219 458.844 497.703 458.539C498.195 458.227 498.52 457.809 498.676 457.285ZM503.41 461V448.578H506.211V450.711H506.27C506.613 449.961 507.113 449.379 507.77 448.965C508.434 448.551 509.234 448.344 510.172 448.344C511.531 448.344 512.586 448.754 513.336 449.574C514.094 450.395 514.473 451.527 514.473 452.973V461H511.555V453.559C511.555 452.668 511.344 451.988 510.922 451.52C510.508 451.051 509.891 450.816 509.07 450.816C508.234 450.816 507.566 451.09 507.066 451.637C506.574 452.184 506.328 452.906 506.328 453.805V461H503.41ZM522.172 450.582C521.359 450.582 520.68 450.863 520.133 451.426C519.594 451.98 519.293 452.695 519.23 453.57H525.031C525 452.688 524.723 451.969 524.199 451.414C523.676 450.859 523 450.582 522.172 450.582ZM525.043 457.285H527.773C527.586 458.465 526.988 459.422 525.98 460.156C524.973 460.883 523.738 461.246 522.277 461.246C520.418 461.246 518.957 460.676 517.895 459.535C516.832 458.387 516.301 456.82 516.301 454.836C516.301 452.867 516.828 451.289 517.883 450.102C518.945 448.914 520.371 448.32 522.16 448.32C523.918 448.32 525.312 448.887 526.344 450.02C527.375 451.145 527.891 452.652 527.891 454.543V455.492H519.207V455.668C519.207 456.668 519.488 457.473 520.051 458.082C520.621 458.691 521.383 458.996 522.336 458.996C523.008 458.996 523.586 458.844 524.07 458.539C524.562 458.227 524.887 457.809 525.043 457.285ZM540.594 448.578L536.223 461H533.012L528.605 448.578H531.723L534.605 458.293H534.664L537.547 448.578H540.594ZM546.945 450.582C546.133 450.582 545.453 450.863 544.906 451.426C544.367 451.98 544.066 452.695 544.004 453.57H549.805C549.773 452.688 549.496 451.969 548.973 451.414C548.449 450.859 547.773 450.582 546.945 450.582ZM549.816 457.285H552.547C552.359 458.465 551.762 459.422 550.754 460.156C549.746 460.883 548.512 461.246 547.051 461.246C545.191 461.246 543.73 460.676 542.668 459.535C541.605 458.387 541.074 456.82 541.074 454.836C541.074 452.867 541.602 451.289 542.656 450.102C543.719 448.914 545.145 448.32 546.934 448.32C548.691 448.32 550.086 448.887 551.117 450.02C552.148 451.145 552.664 452.652 552.664 454.543V455.492H543.98V455.668C543.98 456.668 544.262 457.473 544.824 458.082C545.395 458.691 546.156 458.996 547.109 458.996C547.781 458.996 548.359 458.844 548.844 458.539C549.336 458.227 549.66 457.809 549.816 457.285ZM554.551 461V448.578H557.352V450.746H557.41C557.621 449.988 557.984 449.402 558.5 448.988C559.023 448.574 559.652 448.367 560.387 448.367C560.645 448.367 560.949 448.406 561.301 448.484V451.121C561.012 451.012 560.617 450.957 560.117 450.957C559.289 450.957 558.641 451.207 558.172 451.707C557.703 452.207 557.469 452.895 557.469 453.77V461H554.551ZM563.656 464.574H561.418L562.391 458.211H565.238L563.656 464.574ZM445.098 477.578L441.734 490H438.664L436.215 480.918H436.156L433.719 490H430.672L427.309 477.578H430.238L432.336 487.117H432.395L434.82 477.578H437.621L440.047 487.117H440.117L442.215 477.578H445.098ZM446.633 490V473.09H449.516V479.711H449.574C449.91 478.953 450.414 478.371 451.086 477.965C451.758 477.551 452.562 477.344 453.5 477.344C454.859 477.344 455.922 477.762 456.688 478.598C457.461 479.426 457.848 480.559 457.848 481.996V490H454.93V482.594C454.93 481.711 454.711 481.027 454.273 480.543C453.844 480.059 453.211 479.816 452.375 479.816C451.5 479.816 450.809 480.094 450.301 480.648C449.801 481.203 449.551 481.941 449.551 482.863V490H446.633ZM465.547 479.582C464.734 479.582 464.055 479.863 463.508 480.426C462.969 480.98 462.668 481.695 462.605 482.57H468.406C468.375 481.688 468.098 480.969 467.574 480.414C467.051 479.859 466.375 479.582 465.547 479.582ZM468.418 486.285H471.148C470.961 487.465 470.363 488.422 469.355 489.156C468.348 489.883 467.113 490.246 465.652 490.246C463.793 490.246 462.332 489.676 461.27 488.535C460.207 487.387 459.676 485.82 459.676 483.836C459.676 481.867 460.203 480.289 461.258 479.102C462.32 477.914 463.746 477.32 465.535 477.32C467.293 477.32 468.688 477.887 469.719 479.02C470.75 480.145 471.266 481.652 471.266 483.543V484.492H462.582V484.668C462.582 485.668 462.863 486.473 463.426 487.082C463.996 487.691 464.758 487.996 465.711 487.996C466.383 487.996 466.961 487.844 467.445 487.539C467.938 487.227 468.262 486.809 468.418 486.285ZM473.152 490V477.578H475.953V479.746H476.012C476.223 478.988 476.586 478.402 477.102 477.988C477.625 477.574 478.254 477.367 478.988 477.367C479.246 477.367 479.551 477.406 479.902 477.484V480.121C479.613 480.012 479.219 479.957 478.719 479.957C477.891 479.957 477.242 480.207 476.773 480.707C476.305 481.207 476.07 481.895 476.07 482.77V490H473.152ZM486.289 479.582C485.477 479.582 484.797 479.863 484.25 480.426C483.711 480.98 483.41 481.695 483.348 482.57H489.148C489.117 481.688 488.84 480.969 488.316 480.414C487.793 479.859 487.117 479.582 486.289 479.582ZM489.16 486.285H491.891C491.703 487.465 491.105 488.422 490.098 489.156C489.09 489.883 487.855 490.246 486.395 490.246C484.535 490.246 483.074 489.676 482.012 488.535C480.949 487.387 480.418 485.82 480.418 483.836C480.418 481.867 480.945 480.289 482 479.102C483.062 477.914 484.488 477.32 486.277 477.32C488.035 477.32 489.43 477.887 490.461 479.02C491.492 480.145 492.008 481.652 492.008 483.543V484.492H483.324V484.668C483.324 485.668 483.605 486.473 484.168 487.082C484.738 487.691 485.5 487.996 486.453 487.996C487.125 487.996 487.703 487.844 488.188 487.539C488.68 487.227 489.004 486.809 489.16 486.285ZM504.711 477.578L500.34 490H497.129L492.723 477.578H495.84L498.723 487.293H498.781L501.664 477.578H504.711ZM511.062 479.582C510.25 479.582 509.57 479.863 509.023 480.426C508.484 480.98 508.184 481.695 508.121 482.57H513.922C513.891 481.688 513.613 480.969 513.09 480.414C512.566 479.859 511.891 479.582 511.062 479.582ZM513.934 486.285H516.664C516.477 487.465 515.879 488.422 514.871 489.156C513.863 489.883 512.629 490.246 511.168 490.246C509.309 490.246 507.848 489.676 506.785 488.535C505.723 487.387 505.191 485.82 505.191 483.836C505.191 481.867 505.719 480.289 506.773 479.102C507.836 477.914 509.262 477.32 511.051 477.32C512.809 477.32 514.203 477.887 515.234 479.02C516.266 480.145 516.781 481.652 516.781 483.543V484.492H508.098V484.668C508.098 485.668 508.379 486.473 508.941 487.082C509.512 487.691 510.273 487.996 511.227 487.996C511.898 487.996 512.477 487.844 512.961 487.539C513.453 487.227 513.777 486.809 513.934 486.285ZM518.668 490V477.578H521.469V479.746H521.527C521.738 478.988 522.102 478.402 522.617 477.988C523.141 477.574 523.77 477.367 524.504 477.367C524.762 477.367 525.066 477.406 525.418 477.484V480.121C525.129 480.012 524.734 479.957 524.234 479.957C523.406 479.957 522.758 480.207 522.289 480.707C521.82 481.207 521.586 481.895 521.586 482.77V490H518.668ZM527.715 490.129C527.238 490.129 526.836 489.969 526.508 489.648C526.188 489.32 526.027 488.918 526.027 488.441C526.027 487.973 526.188 487.574 526.508 487.246C526.836 486.918 527.238 486.754 527.715 486.754C528.184 486.754 528.578 486.918 528.898 487.246C529.227 487.574 529.391 487.973 529.391 488.441C529.391 488.918 529.227 489.32 528.898 489.648C528.578 489.969 528.184 490.129 527.715 490.129Z" fill="black"/>
<rect x="397.5" y="253.5" width="159" height="159" fill="#BCE7FF" stroke="#012F4B"/>
<rect x="397.5" y="365.5" width="159" height="47" fill="#FFC700" stroke="#012F4B"/>
<path d="M397.5 333.5H500.882L516.5 341.309V380.5H397.5V333.5Z" fill="#FFDADA" stroke="#012F4B"/>
<rect x="485.5" y="341.5" width="15" height="39" fill="#FFDADA" stroke="#012F4B"/>
<rect x="397.5" y="341.5" width="83" height="15" fill="#BCE7FF" stroke="#012F4B"/>
<rect x="513.5" y="341.5" width="3" height="15" fill="#BCE7FF" stroke="#012F4B"/>
<circle cx="470.5" cy="376.5" r="10" fill="#012F4B" stroke="#012F4B"/>
<line x1="461.5" y1="341" x2="461.5" y2="356" stroke="#012F4B"/>
<line x1="440.5" y1="341" x2="440.5" y2="356" stroke="#012F4B"/>
<line x1="419.5" y1="341" x2="419.5" y2="356" stroke="#012F4B"/>
<circle cx="553" cy="293" r="27.5" fill="#FFC700" stroke="#012F4B"/>
</g>
<defs>
<clipPath id="clip0">
<rect width="288" height="330" fill="white" transform="translate(333 245)"/>
</clipPath>
</defs>
</svg>
