<svg width="1920" height="1080" viewBox="0 0 1920 1080" fill="none" xmlns="http://www.w3.org/2000/svg">
<rect width="1920" height="1080" fill="#E9C46A"/>
<path d="M0 540H1920V1080H0V540Z" fill="#BFDFED"/>
<path d="M1219 709C1219 770.856 1168.86 821 1107 821C1045.14 821 995 770.856 995 709C995 647.144 1045.14 597 1107 597C1168.86 597 1219 647.144 1219 709Z" fill="#004662"/>
<path d="M915 204C915 286.843 847.843 354 765 354C682.157 354 615 286.843 615 204C615 121.157 682.157 54 765 54C847.843 54 915 121.157 915 204Z" fill="#004662"/>
<path d="M1041 218C1041 273.228 996.228 318 941 318C885.772 318 841 273.228 841 218C841 162.772 885.772 118 941 118C996.228 118 1041 162.772 1041 218Z" fill="#E76F51"/>
<path d="M1051 248.067L987.825 170.776C984.851 167.137 978.954 169.24 978.954 173.94V192.881L1001.95 264.93L1051 248.067Z" fill="black"/>
<path d="M1218.86 229.829L1188.2 205.301C1193.31 198.659 1208.13 180.774 1226.52 162.379C1249.52 139.385 1272.51 185.373 1264.85 205.301C1258.72 221.244 1231.63 228.296 1218.86 229.829Z" fill="#2A9D8F"/>
<path d="M310 164C310 180.569 296.569 194 280 194C263.431 194 250 180.569 250 164C250 147.431 263.431 134 280 134C296.569 134 310 147.431 310 164Z" fill="black"/>
<path d="M466.949 120.721V162.111L525.201 185.105L574.256 162.111C574.256 111.83 502.718 113.567 466.949 120.721Z" fill="#E25454"/>
<path d="M793.503 176.234C788.418 149.53 762.234 161.526 749.778 170.862C752.552 219.053 771.737 228.542 780.983 227.263L823.359 199.638C815.526 202.964 798.588 202.938 793.503 176.234Z" fill="#E9C46A"/>
<path d="M237.064 230.204L172.055 202.594C164.125 199.226 154.965 202.925 151.597 210.855V210.855C148.229 218.786 151.928 227.945 159.858 231.313L224.867 258.923L237.064 230.204Z" fill="#622F00"/>
<path d="M237.609 230.53L175.84 204.296L163.643 233.015L225.412 259.249L237.609 230.53Z" fill="#2A9D8F"/>
<path d="M252.206 194.11C252.206 202.831 245.136 209.901 236.414 209.901C227.693 209.901 220.623 202.831 220.623 194.11C220.623 185.388 227.693 178.318 236.414 178.318C245.136 178.318 252.206 185.388 252.206 194.11Z" fill="#622F00"/>
<path d="M228.936 229.766C231.55 222.888 241.279 222.888 243.893 229.766L266.419 289.045H206.41L228.936 229.766Z" fill="#2A9D8F"/>
<path fill-rule="evenodd" clip-rule="evenodd" d="M147.981 443.804L206.538 289.045H266.291L324.848 443.804H273.461L236.415 345.895L199.368 443.804H147.981Z" fill="#D73C15"/>
<path fill-rule="evenodd" clip-rule="evenodd" d="M206.539 289.045L206.539 289.045H266.291L324.848 443.804L273.462 443.804L214.904 289.045H206.539Z" fill="#E76F51"/>
<path d="M320.71 455.624H289.127C271.683 455.624 257.543 469.764 257.543 487.207V487.207H312.71C317.128 487.207 320.71 483.626 320.71 479.207V455.624Z" fill="#622F00"/>
<path d="M195.167 455.624H163.584C146.141 455.624 132 469.764 132 487.207V487.207H187.167C191.585 487.207 195.167 483.626 195.167 479.207V455.624Z" fill="#622F00"/>
<path d="M483.103 230.204L418.094 202.594C410.163 199.226 401.004 202.925 397.636 210.855V210.855C394.268 218.786 397.966 227.945 405.897 231.313L470.905 258.923L483.103 230.204Z" fill="#965B24"/>
<path d="M483.647 230.53L421.878 204.296L409.681 233.015L471.45 259.249L483.647 230.53Z" fill="#2A9D8F"/>
<path d="M498.244 194.11C498.244 202.831 491.173 209.901 482.452 209.901C473.73 209.901 466.66 202.831 466.66 194.11C466.66 185.388 473.73 178.318 482.452 178.318C491.173 178.318 498.244 185.388 498.244 194.11Z" fill="#965B24"/>
<path d="M474.974 229.766C477.588 222.888 487.317 222.888 489.931 229.766L512.457 289.045H452.448L474.974 229.766Z" fill="#2A9D8F"/>
<path fill-rule="evenodd" clip-rule="evenodd" d="M394.018 443.804L452.575 289.045H512.328L570.885 443.804H519.498L482.452 345.895L445.405 443.804H394.018Z" fill="#D73C15"/>
<path fill-rule="evenodd" clip-rule="evenodd" d="M452.575 289.045L452.575 289.045H512.328L570.885 443.804L519.498 443.804L460.941 289.045H452.575Z" fill="#E76F51"/>
<path d="M566.748 455.624H535.165C517.722 455.624 503.581 469.764 503.581 487.207V487.207H558.748C563.166 487.207 566.748 483.625 566.748 479.207V455.624Z" fill="#965B24"/>
<path d="M441.205 455.624H409.622C392.179 455.624 378.038 469.764 378.038 487.207V487.207H433.205C437.623 487.207 441.205 483.625 441.205 479.207V455.624Z" fill="#965B24"/>
<path d="M729.142 230.204L664.133 202.594C656.202 199.226 647.043 202.925 643.675 210.855V210.855C640.307 218.786 644.005 227.945 651.936 231.313L716.944 258.923L729.142 230.204Z" fill="#CFA26E"/>
<path d="M729.687 230.53L667.917 204.296L655.72 233.015L717.489 259.249L729.687 230.53Z" fill="#2A9D8F"/>
<path d="M744.283 194.11C744.283 202.831 737.212 209.901 728.491 209.901C719.769 209.901 712.699 202.831 712.699 194.11C712.699 185.388 719.769 178.318 728.491 178.318C737.212 178.318 744.283 185.388 744.283 194.11Z" fill="#CFA26E"/>
<path d="M721.012 229.766C723.626 222.888 733.355 222.888 735.969 229.766L758.495 289.045H698.486L721.012 229.766Z" fill="#2A9D8F"/>
<path fill-rule="evenodd" clip-rule="evenodd" d="M640.057 443.804L698.614 289.045H758.366L816.924 443.804H765.537L728.49 345.895L691.444 443.804H640.057Z" fill="#D73C15"/>
<path fill-rule="evenodd" clip-rule="evenodd" d="M698.613 289.045L698.613 289.045H758.366L816.923 443.804L765.536 443.804L706.979 289.045H698.613Z" fill="#E76F51"/>
<path d="M812.787 455.624H781.204C763.761 455.624 749.62 469.764 749.62 487.207V487.207H804.787C809.205 487.207 812.787 483.625 812.787 479.207V455.624Z" fill="#CFA26E"/>
<path d="M687.244 455.624H655.661C638.218 455.624 624.077 469.764 624.077 487.207V487.207H679.244C683.662 487.207 687.244 483.625 687.244 479.207V455.624Z" fill="#CFA26E"/>
<path d="M975.179 230.204L910.17 202.594C902.24 199.226 893.08 202.925 889.712 210.855V210.855C886.344 218.786 890.042 227.945 897.973 231.313L962.981 258.923L975.179 230.204Z" fill="#EECCA4"/>
<path d="M975.724 230.53L913.954 204.296L901.757 233.015L963.526 259.249L975.724 230.53Z" fill="#2A9D8F"/>
<path d="M990.321 194.11C990.321 202.831 983.251 209.901 974.529 209.901C965.807 209.901 958.737 202.831 958.737 194.11C958.737 185.388 965.807 178.318 974.529 178.318C983.251 178.318 990.321 185.388 990.321 194.11Z" fill="#EECCA4"/>
<path d="M967.05 229.766C969.664 222.888 979.393 222.888 982.007 229.766L1004.53 289.045H944.524L967.05 229.766Z" fill="#2A9D8F"/>
<path fill-rule="evenodd" clip-rule="evenodd" d="M886.095 443.804L944.652 289.045H1004.4L1062.96 443.804H1011.57L974.528 345.895L937.482 443.804H886.095Z" fill="#D73C15"/>
<path fill-rule="evenodd" clip-rule="evenodd" d="M1011.57 443.804H1062.96L1004.4 289.045H953.018L1011.57 443.804Z" fill="#E76F51"/>
<path d="M1058.82 455.624H1027.24C1009.8 455.624 995.657 469.764 995.657 487.207V487.207H1050.82C1055.24 487.207 1058.82 483.625 1058.82 479.207V455.624Z" fill="#2A9D8F"/>
<path d="M933.281 455.624H901.698C884.255 455.624 870.114 469.764 870.114 487.207V487.207H925.281C929.7 487.207 933.281 483.625 933.281 479.207V455.624Z" fill="#2A9D8F"/>
<path d="M1221.22 230.204L1156.21 202.594C1148.28 199.226 1139.12 202.925 1135.75 210.855V210.855C1132.38 218.786 1136.08 227.945 1144.01 231.313L1209.02 258.923L1221.22 230.204Z" fill="#FFE9CF"/>
<path d="M1221.76 230.53L1159.99 204.296L1147.8 233.015L1209.56 259.249L1221.76 230.53Z" fill="#2A9D8F"/>
<path d="M1236.36 194.11C1236.36 202.831 1229.29 209.901 1220.57 209.901C1211.84 209.901 1204.77 202.831 1204.77 194.11C1204.77 185.388 1211.84 178.318 1220.57 178.318C1229.29 178.318 1236.36 185.388 1236.36 194.11Z" fill="#FFE9CF"/>
<path d="M1213.09 229.766C1215.7 222.888 1225.43 222.888 1228.05 229.766L1250.57 289.045H1190.56L1213.09 229.766Z" fill="#2A9D8F"/>
<path fill-rule="evenodd" clip-rule="evenodd" d="M1132.13 443.804L1190.69 289.045H1250.44L1309 443.804H1257.61L1220.57 345.895L1183.52 443.804H1132.13Z" fill="#D73C15"/>
<path fill-rule="evenodd" clip-rule="evenodd" d="M1190.69 289.045L1190.69 289.045H1250.44L1309 443.804L1257.61 443.804L1199.06 289.045H1190.69Z" fill="#E76F51"/>
<path d="M1304.86 455.624H1273.28C1255.84 455.624 1241.7 469.764 1241.7 487.207V487.207H1296.86C1301.28 487.207 1304.86 483.625 1304.86 479.207V455.624Z" fill="#2A9D8F"/>
<path d="M1179.32 455.624H1147.74C1130.29 455.624 1116.15 469.764 1116.15 487.207V487.207H1171.32C1175.74 487.207 1179.32 483.625 1179.32 479.207V455.624Z" fill="#2A9D8F"/>
<path d="M1355.5 659.774C1352.73 679.443 1341.29 757.913 1339 795.658L1359.62 839L1427 795.658L1407.75 659.774C1373.64 636.486 1359.62 630.501 1355.5 659.774Z" fill="black"/>
<path d="M1100.06 653.316C1094.9 660.741 1090.54 693.532 1089 709H1148L1135.09 653.316C1117.58 640.556 1106.52 644.036 1100.06 653.316Z" fill="#E9C46A"/>
<path d="M828.151 650.328H809.077L794.405 581.369C802.622 562.589 829.618 573.544 838.421 581.369L828.151 650.328Z" fill="#E25454"/>
<path d="M569.191 639.958C569.191 660.216 552.769 676.638 532.511 676.638C512.253 676.638 495.831 660.216 495.831 639.958C495.831 619.7 512.253 603.278 532.511 603.278C552.769 603.278 569.191 619.7 569.191 639.958Z" fill="black"/>
<path d="M533.505 715.082L460.24 683.965C450.653 679.893 439.579 684.365 435.507 693.952V693.952C431.435 703.54 435.907 714.613 445.494 718.685L518.759 749.802L533.505 715.082Z" fill="#2A9D8F"/>
<path d="M534.163 715.475L499.788 700.876L485.042 735.596L519.417 750.195L534.163 715.475Z" fill="#E76F51"/>
<path d="M532.577 715.082L605.842 683.965C615.429 679.893 626.503 684.365 630.575 693.952V693.952C634.647 703.54 630.175 714.613 620.588 718.685L547.323 749.802L532.577 715.082Z" fill="#2A9D8F"/>
<path d="M531.919 715.475L566.294 700.876L581.04 735.596L546.665 750.195L531.919 715.475Z" fill="#E76F51"/>
<path d="M551.81 678.857C551.81 689.401 543.263 697.949 532.719 697.949C522.175 697.949 513.627 689.401 513.627 678.857C513.627 668.313 522.175 659.766 532.719 659.766C543.263 659.766 551.81 668.313 551.81 678.857Z" fill="#2A9D8F"/>
<path d="M525.24 717.852C527.854 710.974 537.583 710.974 540.197 717.852L568.993 793.631H496.444L525.24 717.852Z" fill="#E76F51"/>
<path fill-rule="evenodd" clip-rule="evenodd" d="M425.805 980.729L496.599 793.631H568.837L639.631 980.729H577.506L532.718 862.361L487.93 980.729H425.805Z" fill="#004662"/>
<path fill-rule="evenodd" clip-rule="evenodd" d="M506.713 793.631H568.837L639.631 980.729H577.505L577.507 980.729L506.713 793.631Z" fill="#004662"/>
<path d="M649.455 1025.57C649.455 1008.7 635.779 995.019 618.908 995.019H603.635C586.765 995.019 573.089 1008.7 573.089 1025.57V1025.57C573.089 1029.78 576.508 1033.2 580.725 1033.2H641.818C646.036 1033.2 649.455 1029.78 649.455 1025.57V1025.57Z" fill="#2A9D8F"/>
<path d="M486.366 1025.57C486.366 1008.7 472.69 995.019 455.82 995.019H440.546C423.676 995.019 410 1008.7 410 1025.57V1025.57C410 1029.78 413.419 1033.2 417.636 1033.2H478.73C482.947 1033.2 486.366 1029.78 486.366 1025.57V1025.57Z" fill="#2A9D8F"/>
<path d="M818.142 715.082L744.877 683.965C735.289 679.893 724.216 684.365 720.144 693.952V693.952C716.072 703.54 720.543 714.613 730.131 718.685L803.396 749.802L818.142 715.082Z" fill="#E9C46A"/>
<path d="M818.8 715.475L784.425 700.876L769.679 735.596L804.054 750.195L818.8 715.475Z" fill="#E76F51"/>
<path d="M817.213 715.082L890.477 683.965C900.065 679.893 911.139 684.365 915.211 693.952V693.952C919.283 703.54 914.811 714.613 905.224 718.685L831.959 749.802L817.213 715.082Z" fill="#E9C46A"/>
<path d="M816.555 715.475L850.93 700.876L865.676 735.596L831.301 750.195L816.555 715.475Z" fill="#E76F51"/>
<path d="M836.447 678.857C836.447 689.401 827.899 697.949 817.355 697.949C806.811 697.949 798.264 689.401 798.264 678.857C798.264 668.313 806.811 659.766 817.355 659.766C827.899 659.766 836.447 668.313 836.447 678.857Z" fill="#E9C46A"/>
<path d="M809.878 717.852C812.491 710.974 822.221 710.974 824.834 717.852L853.63 793.631H781.082L809.878 717.852Z" fill="#E76F51"/>
<path fill-rule="evenodd" clip-rule="evenodd" d="M710.442 980.729L781.236 793.631H853.475L924.269 980.729H862.143L817.356 862.361L772.568 980.729H710.442Z" fill="#004662"/>
<path fill-rule="evenodd" clip-rule="evenodd" d="M862.143 980.729H924.268L853.475 793.631H791.35L862.143 980.729Z" fill="#004662"/>
<path d="M934.092 1025.57C934.092 1008.69 920.416 995.019 903.545 995.019H888.272C871.401 995.019 857.725 1008.69 857.725 1025.57V1025.57C857.725 1029.78 861.144 1033.2 865.362 1033.2H926.455C930.673 1033.2 934.092 1029.78 934.092 1025.57V1025.57Z" fill="#2A9D8F"/>
<path d="M771.003 1025.57C771.003 1008.69 757.327 995.019 740.456 995.019H725.183C708.313 995.019 694.636 1008.69 694.636 1025.57V1025.57C694.636 1029.78 698.055 1033.2 702.273 1033.2H763.366C767.584 1033.2 771.003 1029.78 771.003 1025.57V1025.57Z" fill="#2A9D8F"/>
<path d="M1102.78 715.082L1029.51 683.965C1019.93 679.893 1008.85 684.365 1004.78 693.952V693.952C1000.71 703.54 1005.18 714.613 1014.77 718.685L1088.03 749.802L1102.78 715.082Z" fill="#BFDFED"/>
<path d="M1103.44 715.475L1069.06 700.876L1054.31 735.596L1088.69 750.195L1103.44 715.475Z" fill="#E76F51"/>
<path d="M1101.85 715.082L1175.11 683.965C1184.7 679.893 1195.78 684.365 1199.85 693.952V693.952C1203.92 703.54 1199.45 714.613 1189.86 718.685L1116.6 749.802L1101.85 715.082Z" fill="#BFDFED"/>
<path d="M1101.19 715.475L1135.57 700.876L1150.31 735.596L1115.94 750.195L1101.19 715.475Z" fill="#E76F51"/>
<path d="M1121.08 678.857C1121.08 689.401 1112.53 697.949 1101.99 697.949C1091.45 697.949 1082.9 689.401 1082.9 678.857C1082.9 668.313 1091.45 659.766 1101.99 659.766C1112.53 659.766 1121.08 668.313 1121.08 678.857Z" fill="#BFDFED"/>
<path d="M1094.51 717.852C1097.13 710.974 1106.85 710.974 1109.47 717.852L1138.26 793.631H1065.72L1094.51 717.852Z" fill="#E76F51"/>
<path fill-rule="evenodd" clip-rule="evenodd" d="M995.076 980.729L1065.87 793.631H1138.11L1208.9 980.729H1146.78L1101.99 862.361L1057.2 980.729H995.076Z" fill="#004662"/>
<path fill-rule="evenodd" clip-rule="evenodd" d="M1146.78 980.729H1208.9L1138.11 793.631H1075.99L1146.78 980.729Z" fill="#004662"/>
<path d="M1218.73 1025.57C1218.73 1008.69 1205.05 995.019 1188.18 995.019H1172.91C1156.04 995.019 1142.36 1008.69 1142.36 1025.57V1025.57C1142.36 1029.78 1145.78 1033.2 1150 1033.2H1211.09C1215.31 1033.2 1218.73 1029.78 1218.73 1025.57V1025.57Z" fill="#2A9D8F"/>
<path d="M1055.64 1025.57C1055.64 1008.69 1041.96 995.019 1025.09 995.019H1009.82C992.948 995.019 979.272 1008.69 979.272 1025.57V1025.57C979.272 1029.78 982.691 1033.2 986.909 1033.2H1048C1052.22 1033.2 1055.64 1029.78 1055.64 1025.57V1025.57Z" fill="#2A9D8F"/>
<path d="M1387.41 715.082L1314.15 683.965C1304.56 679.893 1293.49 684.365 1289.42 693.952V693.952C1285.34 703.54 1289.82 714.613 1299.4 718.685L1372.67 749.802L1387.41 715.082Z" fill="#004662"/>
<path d="M1388.07 715.475L1353.7 700.876L1338.95 735.596L1373.33 750.195L1388.07 715.475Z" fill="#E76F51"/>
<path d="M1386.49 715.082L1459.75 683.965C1469.34 679.893 1480.41 684.365 1484.48 693.952V693.952C1488.56 703.54 1484.08 714.613 1474.5 718.685L1401.23 749.802L1386.49 715.082Z" fill="#004662"/>
<path d="M1385.83 715.475L1420.2 700.876L1434.95 735.596L1400.57 750.195L1385.83 715.475Z" fill="#E76F51"/>
<path d="M1405.72 678.857C1405.72 689.401 1397.17 697.949 1386.63 697.949C1376.08 697.949 1367.54 689.401 1367.54 678.857C1367.54 668.313 1376.08 659.766 1386.63 659.766C1397.17 659.766 1405.72 668.313 1405.72 678.857Z" fill="#004662"/>
<path d="M1379.15 717.852C1381.76 710.974 1391.49 710.974 1394.11 717.852L1422.9 793.631H1350.35L1379.15 717.852Z" fill="#E76F51"/>
<path fill-rule="evenodd" clip-rule="evenodd" d="M1279.71 980.729L1350.51 793.631H1422.75L1493.54 980.729H1431.41L1386.63 862.361L1341.84 980.729H1279.71Z" fill="#004662"/>
<path fill-rule="evenodd" clip-rule="evenodd" d="M1431.41 980.729H1493.54L1422.75 793.631H1360.62L1431.41 980.729Z" fill="#004662"/>
<path d="M1503.36 1025.57C1503.36 1008.69 1489.69 995.019 1472.82 995.019H1457.54C1440.67 995.019 1427 1008.69 1427 1025.57V1025.57C1427 1029.78 1430.42 1033.2 1434.63 1033.2H1495.73C1499.95 1033.2 1503.36 1029.78 1503.36 1025.57V1025.57Z" fill="#2A9D8F"/>
<path d="M1340.28 1025.57C1340.28 1008.69 1326.6 995.019 1309.73 995.019H1294.46C1277.59 995.019 1263.91 1008.69 1263.91 1025.57V1025.57C1263.91 1029.78 1267.33 1033.2 1271.55 1033.2H1332.64C1336.86 1033.2 1340.28 1029.78 1340.28 1025.57V1025.57Z" fill="#2A9D8F"/>
<path d="M1672.05 715.081L1598.78 683.965C1589.2 679.893 1578.12 684.364 1574.05 693.952V693.952C1569.98 703.54 1574.45 714.613 1584.04 718.685L1657.3 749.801L1672.05 715.081Z" fill="#F4A261"/>
<path d="M1672.71 715.475L1608.57 688.233L1593.82 722.953L1657.96 750.195L1672.71 715.475Z" fill="#E76F51"/>
<path d="M1671.12 715.081L1744.39 683.965C1753.97 679.893 1765.05 684.364 1769.12 693.952V693.952C1773.19 703.54 1768.72 714.613 1759.13 718.685L1685.87 749.801L1671.12 715.081Z" fill="#F4A261"/>
<path d="M1670.46 715.475L1736.5 687.429L1751.24 722.149L1685.21 750.195L1670.46 715.475Z" fill="#E76F51"/>
<path d="M1663.78 717.852C1666.4 710.974 1676.13 710.974 1678.74 717.852L1707.54 793.63H1634.99L1663.78 717.852Z" fill="#E76F51"/>
<path fill-rule="evenodd" clip-rule="evenodd" d="M1564.35 980.728L1635.14 793.63H1707.38L1778.17 980.728H1716.05L1671.26 862.36L1626.47 980.728H1564.35Z" fill="#004662"/>
<path fill-rule="evenodd" clip-rule="evenodd" d="M1716.05 980.728H1778.18L1707.38 793.63H1645.26L1716.05 980.728Z" fill="#004662"/>
<path d="M1650.33 730.924L1610.9 700.667C1617.47 692.472 1636.53 670.409 1660.19 647.716C1689.76 619.349 1719.33 676.082 1709.47 700.667C1701.58 720.334 1666.76 729.033 1650.33 730.924Z" fill="#2A9D8F"/>
<path d="M1690.35 678.857C1690.35 689.401 1681.81 697.948 1671.26 697.948C1660.72 697.948 1652.17 689.401 1652.17 678.857C1652.17 668.313 1660.72 659.765 1671.26 659.765C1681.81 659.765 1690.35 668.313 1690.35 678.857Z" fill="#F4A261"/>
<path d="M1788 1025.57C1788 1008.69 1774.32 995.019 1757.45 995.019H1742.18C1725.31 995.019 1711.63 1008.69 1711.63 1025.57V1025.57C1711.63 1029.78 1715.05 1033.2 1719.27 1033.2H1780.36C1784.58 1033.2 1788 1029.78 1788 1025.57V1025.57Z" fill="#2A9D8F"/>
<path d="M1624.91 1025.57C1624.91 1008.69 1611.23 995.019 1594.36 995.019H1579.09C1562.22 995.019 1548.54 1008.69 1548.54 1025.57V1025.57C1548.54 1029.78 1551.96 1033.2 1556.18 1033.2H1617.27C1621.49 1033.2 1624.91 1029.78 1624.91 1025.57V1025.57Z" fill="#2A9D8F"/>
<path d="M1558.8 506L1549 511.6L1525 572.2L1516.8 591.4C1512 592.867 1505.2 593.6 1496.4 593.6C1490.93 593.6 1486.8 593.333 1484 592.8L1455.2 514.4L1442.4 507.2L1442.6 496.2H1486.2L1502 546.8L1504.8 562H1507.6C1511.73 540.4 1515.2 518.467 1518 496.2H1558.2L1558.8 506Z" fill="#FFECDB"/>
<path d="M1595.93 515.8C1595.93 518.2 1596.8 520.4 1598.53 522.4C1600.27 524.267 1606.47 528 1617.13 533.6C1627.8 539.067 1635 544.2 1638.73 549C1642.47 553.667 1644.33 559 1644.33 565C1644.33 574.067 1640.6 581.533 1633.13 587.4C1625.67 593.133 1615.73 596 1603.33 596C1589.33 596 1575.4 592.4 1561.53 585.2L1572.93 559C1584.53 567.933 1596.53 574.6 1608.93 579C1611.33 576.867 1612.53 574.4 1612.53 571.6C1612.53 569.067 1611.53 566.8 1609.53 564.8C1607.67 562.8 1601.53 559.2 1591.13 554C1580.87 548.667 1573.87 543.733 1570.13 539.2C1566.53 534.533 1564.73 529.267 1564.73 523.4C1564.73 514.067 1568.8 506.533 1576.93 500.8C1585.2 494.933 1595.87 492 1608.93 492C1621.07 492 1631.4 494.2 1639.93 498.6L1640.33 505.6C1640.33 512.533 1639.2 519.533 1636.93 526.6H1619.33L1613.13 508.4L1603.93 507.4C1598.6 509 1595.93 511.8 1595.93 515.8Z" fill="#FFECDB"/>
<path d="M1691.13 600.4C1687.53 598.933 1683.53 596.533 1679.13 593.2C1674.73 589.867 1671.4 586.6 1669.13 583.4C1674.46 572.867 1680.4 565.667 1686.93 561.8C1694.93 565.133 1701.93 570.8 1707.93 578.8C1704.6 587.867 1699 595.067 1691.13 600.4Z" fill="#FFECDB"/>
</svg>
