<svg width="1200" height="1200" viewBox="0 0 1200 1200" fill="none" xmlns="http://www.w3.org/2000/svg">
<rect width="1200" height="1200" fill="#BFDFED"/>
<circle cx="937.77" cy="701.001" r="28.0009" fill="#622F00"/>
<path d="M930.293 749.009C932.907 742.132 942.636 742.132 945.25 749.009L990.973 869.334H884.57L930.293 749.009Z" fill="#E9C46A"/>
<path d="M830.911 1069.8L762.059 1029.06C746.849 1020.06 727.223 1025.1 718.223 1040.31L706 1060.96L795.507 1113.93C799.31 1116.18 804.216 1114.92 806.466 1111.12L830.911 1069.8Z" fill="#622F00"/>
<path d="M975.288 952.967C984.125 952.967 991.288 945.804 991.288 936.967V868.705H848.586V952.967H975.288Z" fill="#FFECDB"/>
<path d="M1095.94 1097.03H909.307V974.326C909.307 963.281 918.261 954.326 929.307 954.326H1075.94C1086.98 954.326 1095.94 963.281 1095.94 974.326V1097.03Z" fill="#004662"/>
<rect width="84.262" height="169.883" transform="matrix(-0.869662 -0.493647 -0.493647 0.869662 921.977 910.301)" fill="#FFECDB"/>
<path d="M917.28 782.646L830.562 872.998C819.983 884.021 820.342 901.532 831.365 912.111V912.111C842.387 922.69 859.898 922.33 870.477 911.308L957.195 820.955L917.28 782.646Z" fill="#622F00"/>
<rect width="118.994" height="55.3249" transform="matrix(-0.692446 0.72147 0.72147 0.692446 917.275 782.649)" fill="#E9C46A"/>
<path d="M700.013 718.252C696.922 712.77 689.596 711.471 684.809 715.557L613.932 776.053L685.295 902.642L765.411 834.26L700.013 718.252Z" fill="#E76F51"/>
<path d="M722.91 721.498L630.709 782.933L702.072 909.522L794.273 848.087L722.91 721.498Z" fill="#FFECDB"/>
<path d="M706.133 714.617L613.932 776.053L630.709 782.933L722.91 721.497L706.133 714.617Z" fill="#E9C46A"/>
<path d="M630.709 782.933L722.874 752.379C727.414 750.874 732.383 752.794 734.732 756.96L796.087 865.796C799.177 871.278 796.496 878.219 790.523 880.199L702.072 909.522L630.709 782.933Z" fill="#E76F51"/>
<path d="M613.932 776.053L630.709 782.933L702.072 909.522L685.295 902.642L613.932 776.053Z" fill="#004662"/>
<path d="M727.414 801.161C728.223 816.502 716.183 829.607 700.523 830.432C684.863 831.257 671.512 819.49 670.704 804.15C669.896 788.809 681.935 775.704 697.595 774.879C713.255 774.054 726.606 785.821 727.414 801.161Z" fill="white"/>
<path d="M712.369 801.954C712.773 809.624 706.883 816.17 699.213 816.574C691.543 816.978 684.997 811.088 684.593 803.418C684.189 795.748 690.079 789.202 697.749 788.798C705.419 788.393 711.965 794.284 712.369 801.954Z" fill="#004662"/>
<path d="M816.357 772.87C817.166 788.21 805.644 801.288 790.623 802.08C775.602 802.871 762.77 791.077 761.962 775.736C761.153 760.396 772.675 747.318 787.696 746.527C802.717 745.735 815.549 757.529 816.357 772.87Z" fill="white"/>
<path d="M802.469 773.602C802.873 781.272 796.983 787.818 789.313 788.222C781.643 788.626 775.097 782.736 774.693 775.065C774.289 767.395 780.179 760.85 787.849 760.445C795.519 760.041 802.065 765.931 802.469 773.602Z" fill="#004662"/>
<path d="M364.412 352.929C368.338 358.099 376.286 357.039 378.72 351.022L385.1 335.248L396.956 305.934L335.001 314.195L364.412 352.929Z" fill="#F4A261"/>
<path d="M308.492 115.362L370.447 107.102L396.956 305.935L335.001 314.195L308.492 115.362Z" fill="#2A9D8F"/>
<path d="M304.842 87.9865L366.797 79.7264L370.447 107.102L308.492 115.362L304.842 87.9865Z" fill="#E76F51"/>
<path d="M302.138 67.7082C301.51 62.9927 304.698 58.677 309.261 58.0687L354.694 52.0113C359.257 51.403 363.465 54.7326 364.093 59.4481L366.797 79.7263L304.842 87.9864L302.138 67.7082Z" fill="#F4A261"/>
<path d="M364.303 353.173C368.252 358.034 376.353 356.954 378.89 351.229L383.893 339.938L356.517 343.588L364.303 353.173Z" fill="#E76F51"/>
<path d="M396.766 139.52C398.729 154.242 388.386 167.767 373.664 169.729C358.943 171.692 345.418 161.349 343.456 146.628C341.493 131.907 351.836 118.382 366.557 116.419C381.278 114.456 394.803 124.799 396.766 139.52Z" fill="white"/>
<path d="M383.894 141.97C384.849 149.131 379.495 155.754 371.936 156.762C364.376 157.77 357.474 152.781 356.519 145.619C355.564 138.458 360.918 131.835 368.478 130.827C376.037 129.819 382.94 134.808 383.894 141.97Z" fill="#004662"/>
<path d="M464.868 133.374C466.831 148.095 456.488 161.62 441.767 163.583C427.046 165.545 413.521 155.202 411.558 140.481C409.595 125.76 419.938 112.235 434.66 110.272C449.381 108.31 462.906 118.652 464.868 133.374Z" fill="white"/>
<path d="M451.709 133.662C452.717 141.221 447.728 148.124 440.566 149.079C433.405 150.033 426.782 144.679 425.774 137.12C424.766 129.56 429.755 122.658 436.917 121.703C444.078 120.748 450.701 126.102 451.709 133.662Z" fill="#004662"/>
<path d="M210.501 187.131L150.883 161.81C143.081 158.497 134.07 162.135 130.756 169.937V169.937C127.443 177.739 131.081 186.75 138.883 190.064L198.502 215.385L210.501 187.131Z" fill="#EECCA4"/>
<rect width="56.7072" height="30.696" transform="matrix(-0.920427 -0.390915 -0.390915 0.920427 211.038 187.451)" fill="#E76F51"/>
<path d="M209.745 187.131L269.364 161.81C277.166 158.496 286.177 162.135 289.49 169.937V169.937C292.804 177.739 289.165 186.75 281.363 190.063L221.745 215.384L209.745 187.131Z" fill="#EECCA4"/>
<rect x="209.209" y="187.451" width="58.3805" height="30.696" transform="rotate(-23.0114 209.209 187.451)" fill="#E76F51"/>
<path d="M202.382 193.051C204.996 186.173 214.725 186.173 217.339 193.051L239.379 251.05H180.343L202.382 193.051Z" fill="#E76F51"/>
<path fill-rule="evenodd" clip-rule="evenodd" d="M122.859 403.3L180.468 251.05H239.251L296.86 403.3H246.305L209.859 306.979L173.414 403.3H122.859Z" fill="#E9C46A"/>
<path fill-rule="evenodd" clip-rule="evenodd" d="M188.699 251.05H239.251L296.86 403.3H246.305L246.307 403.3L188.699 251.05Z" fill="#E9C46A"/>
<path d="M192.825 200.023L160.741 175.401C166.089 168.733 181.596 150.779 200.846 132.313C224.91 109.23 248.973 155.396 240.952 175.401C234.535 191.406 206.194 198.484 192.825 200.023Z" fill="#2A9D8F"/>
<circle cx="209.86" cy="157.654" r="15.5357" fill="#EECCA4"/>
<path d="M304.855 439.786C304.855 426.057 293.727 414.928 279.998 414.928H267.57C253.841 414.928 242.713 426.057 242.713 439.786V439.786C242.713 443.218 245.495 446 248.927 446H298.641C302.073 446 304.855 443.218 304.855 439.786V439.786Z" fill="#2A9D8F"/>
<path d="M172.143 439.786C172.143 426.057 161.014 414.928 147.286 414.928H134.857C121.129 414.928 110 426.057 110 439.786V439.786C110 443.218 112.782 446 116.214 446H165.929C169.361 446 172.143 443.218 172.143 439.786V439.786Z" fill="#2A9D8F"/>
<path d="M825.402 234.207L897.693 203.504C906.512 199.758 916.697 203.871 920.443 212.69V212.69C924.188 221.509 920.076 231.694 911.257 235.44L838.965 266.143L825.402 234.207Z" fill="#CFA26E"/>
<path d="M824.796 234.569L893.485 205.396L907.048 237.332L838.36 266.505L824.796 234.569Z" fill="#E76F51"/>
<path d="M808.563 194.068C808.563 203.767 816.425 211.629 826.124 211.629C835.822 211.629 843.685 203.767 843.685 194.068C843.685 184.37 835.822 176.507 826.124 176.507C816.425 176.507 808.563 184.37 808.563 194.068Z" fill="#CFA26E"/>
<path d="M833.602 231.514C830.989 224.637 821.259 224.637 818.646 231.514L792.758 299.638H859.489L833.602 231.514Z" fill="#E76F51"/>
<path fill-rule="evenodd" clip-rule="evenodd" d="M924.465 471.734L859.348 299.639H792.902L727.784 471.734H784.928L826.125 362.857L867.321 471.734H924.465Z" fill="#004662"/>
<path fill-rule="evenodd" clip-rule="evenodd" d="M826.125 362.857L784.928 471.734H727.784L792.901 299.639H850.045L826.125 362.857Z" fill="#004662"/>
<path d="M732.385 484.878H770.628C788.301 484.878 802.628 499.205 802.628 516.878V520H740.385C735.966 520 732.385 516.418 732.385 512V484.878Z" fill="#CFA26E"/>
<path d="M871.991 484.878H910.234C927.907 484.878 942.234 499.205 942.234 516.878V520H879.991C875.573 520 871.991 516.418 871.991 512V484.878Z" fill="#CFA26E"/>
<path d="M753.201 185.956C758.856 156.26 787.973 169.6 801.824 179.983C798.74 233.571 777.406 244.124 767.124 242.702L720 211.982C728.711 215.68 747.546 215.652 753.201 185.956Z" fill="#E9C46A"/>
<path fill-rule="evenodd" clip-rule="evenodd" d="M975.933 306L1110.84 306V305.479C1091.83 302.386 1077.31 285.888 1077.31 266V120H942.405V266C942.405 285.888 956.919 302.386 975.933 305.479V306Z" fill="#E76F51"/>
<path d="M1050.29 181.545C1050.29 197.009 1037.76 209.545 1022.29 209.545C1006.83 209.545 994.293 197.009 994.293 181.545C994.293 166.081 1006.83 153.545 1022.29 153.545C1037.76 153.545 1050.29 166.081 1050.29 181.545Z" fill="white"/>
<path d="M1036.29 181.545C1036.29 189.277 1030.03 195.545 1022.29 195.545C1014.56 195.545 1008.29 189.277 1008.29 181.545C1008.29 173.813 1014.56 167.545 1022.29 167.545C1030.03 167.545 1036.29 173.813 1036.29 181.545Z" fill="#004662"/>
<path d="M1150.84 181.545C1150.84 197.009 1138.31 209.545 1122.84 209.545C1107.38 209.545 1094.84 197.009 1094.84 181.545C1094.84 166.081 1107.38 153.545 1122.84 153.545C1138.31 153.545 1150.84 166.081 1150.84 181.545Z" fill="white"/>
<path d="M1136.84 179.865C1136.84 187.597 1130.57 193.865 1122.84 193.865C1115.11 193.865 1108.84 187.597 1108.84 179.865C1108.84 172.133 1115.11 165.865 1122.84 165.865C1130.57 165.865 1136.84 172.133 1136.84 179.865Z" fill="#004662"/>
<path fill-rule="evenodd" clip-rule="evenodd" d="M1057.05 258.509L1056.72 258.901C1036.57 282.494 1000.03 282.272 980.165 258.435L992.457 248.192C1005.97 264.414 1030.84 264.565 1044.55 248.509L1044.89 248.117L1057.05 258.509Z" fill="#BFDFED"/>
<path d="M215.289 771.506L289.275 740.083C298.3 736.25 308.725 740.459 312.558 749.485V749.485C316.391 758.51 312.182 768.935 303.156 772.768L229.17 804.191L215.289 771.506Z" fill="#965B24"/>
<rect x="215.286" y="771.501" width="76.3769" height="35.5106" transform="rotate(-23.0114 215.286 771.501)" fill="#2A9D8F"/>
<circle r="17.9725" transform="matrix(-1 0 0 1 216.646 730.426)" fill="#965B24"/>
<path d="M224.124 768.289C221.51 761.411 211.781 761.411 209.167 768.289L182.498 838.471H250.793L224.124 768.289Z" fill="#2A9D8F"/>
<path fill-rule="evenodd" clip-rule="evenodd" d="M317.292 1014.6L250.648 838.472H182.644L116 1014.6H174.484L216.646 903.173L258.809 1014.6H317.292Z" fill="#D73C15"/>
<path fill-rule="evenodd" clip-rule="evenodd" d="M174.483 1014.6H116L182.644 838.472H241.127L174.483 1014.6Z" fill="#E76F51"/>
<path d="M120.708 1028.05H160.598C178.271 1028.05 192.598 1042.38 192.598 1060.05V1064H128.708C124.29 1064 120.708 1060.42 120.708 1056V1028.05Z" fill="#965B24"/>
<path d="M263.588 1028.05H303.478C321.152 1028.05 335.478 1042.38 335.478 1060.05V1064H271.588C267.17 1064 263.588 1060.42 263.588 1056V1028.05Z" fill="#965B24"/>
<circle cx="167.032" cy="697.505" r="33.5052" fill="black"/>
<path d="M462.724 581.868L487.515 542L496.968 547.878L472.177 587.746L462.724 581.868Z" fill="#E76F51"/>
<path d="M504.856 659.182L551.67 662.713L550.833 673.813L504.019 670.282L504.856 659.182Z" fill="#E76F51"/>
<path d="M496.237 611.967L539.946 594.834L544.008 605.198L500.299 622.331L496.237 611.967Z" fill="#E76F51"/>
<path d="M486.938 706.025L526.798 730.828L520.916 740.28L481.057 715.476L486.938 706.025Z" fill="#E76F51"/>
<path d="M311.081 696.746L306.714 673.006L431.987 581.705L456.822 716.725L311.081 696.746Z" fill="#E9C46A"/>
<path fill-rule="evenodd" clip-rule="evenodd" d="M436.568 682.949C425.809 699.405 401.424 699.601 390.78 682.915L396.885 679.021C404.631 691.165 422.554 691.152 430.508 678.987L436.568 682.949Z" fill="#E76F51"/>
<path d="M291 676.404L300.656 674.628L304.902 697.718L295.246 699.494L291 676.404Z" fill="#E9C46A"/>
<path d="M405.592 641.059C405.592 654.386 394.788 665.19 381.461 665.19C368.133 665.19 357.33 654.386 357.33 641.059C357.33 627.731 368.133 616.927 381.461 616.927C394.788 616.927 405.592 627.731 405.592 641.059Z" fill="white"/>
<path d="M393.526 641.059C393.526 647.722 388.124 653.124 381.461 653.124C374.797 653.124 369.395 647.722 369.395 641.059C369.395 634.395 374.797 628.993 381.461 628.993C388.124 628.993 393.526 634.395 393.526 641.059Z" fill="#004662"/>
<path d="M481.503 641.059C481.503 654.386 470.699 665.19 457.372 665.19C444.045 665.19 433.241 654.386 433.241 641.059C433.241 627.731 444.045 616.927 457.372 616.927C470.699 616.927 481.503 627.731 481.503 641.059Z" fill="white"/>
<path d="M469.437 639.611C469.437 646.274 464.035 651.676 457.372 651.676C450.708 651.676 445.306 646.274 445.306 639.611C445.306 632.947 450.708 627.545 457.372 627.545C464.035 627.545 469.437 632.947 469.437 639.611Z" fill="#004662"/>
</svg>
