<svg width="9725" height="3291" viewBox="0 0 9725 3291" fill="none" xmlns="http://www.w3.org/2000/svg">
<rect width="9725" height="3291" fill="#BFDFED"/>
<path d="M7776 318C7776 262.772 7820.77 218 7876 218H8911C8966.23 218 9011 262.772 9011 318V1106C9011 1161.23 8966.23 1206 8911 1206H7876C7820.77 1206 7776 1161.23 7776 1106V318Z" fill="#2A9D8F"/>
<path d="M4896 694C4896 638.772 4940.77 594 4996 594H6031C6086.23 594 6131 638.772 6131 694V1482C6131 1537.23 6086.23 1582 6031 1582H4996C4940.77 1582 4896 1537.23 4896 1482V694Z" fill="#2A9D8F"/>
<path d="M382 1796C382 1740.77 426.772 1696 482 1696H1517C1572.23 1696 1617 1740.77 1617 1796V2584C1617 2639.23 1572.23 2684 1517 2684H482C426.772 2684 382 2639.23 382 2584V1796Z" fill="#2A9D8F"/>
<path d="M1513.14 739.923C1519.3 750.59 1534.7 750.59 1540.86 739.923L1557 711.962L1587 660H1467L1513.14 739.923Z" fill="#F4A261"/>
<path d="M1467 274H1587V660H1467V274Z" fill="#2A9D8F"/>
<path d="M1467 220H1587V274H1467V220Z" fill="#E76F51"/>
<path d="M1467 182C1467 173.163 1474.16 166 1483 166H1571C1579.84 166 1587 173.163 1587 182V220H1467V182Z" fill="#F4A261"/>
<path d="M1513.15 740.022C1519.31 750.683 1534.69 750.683 1540.85 740.022L1553 719H1501L1513.15 740.022Z" fill="#E76F51"/>
<path d="M3567.14 961.923C3573.3 972.59 3588.7 972.59 3594.86 961.923L3611 933.962L3641 882H3521L3567.14 961.923Z" fill="#F4A261"/>
<path d="M3521 496H3641V882H3521V496Z" fill="#2A9D8F"/>
<path d="M3521 442H3641V496H3521V442Z" fill="#E76F51"/>
<path d="M3521 404C3521 395.163 3528.16 388 3537 388H3625C3633.84 388 3641 395.163 3641 404V442H3521V404Z" fill="#F4A261"/>
<path d="M3567.15 962.022C3573.31 972.683 3588.69 972.683 3594.85 962.022L3607 941H3555L3567.15 962.022Z" fill="#E76F51"/>
<path d="M815.688 359.606L867.054 277L886.641 289.18L835.274 371.786L815.688 359.606Z" fill="#E76F51"/>
<path d="M902.986 519.803L999.985 527.12L998.25 550.119L901.251 542.802L902.986 519.803Z" fill="#E76F51"/>
<path d="M885.127 421.973L975.693 386.473L984.11 407.947L893.544 443.447L885.127 421.973Z" fill="#E76F51"/>
<path d="M865.859 616.861L948.449 668.255L936.263 687.838L853.673 636.444L865.859 616.861Z" fill="#E76F51"/>
<path d="M495.431 589.457L488.646 552.569L754.507 397.603L793.096 607.405L495.431 589.457Z" fill="#E9C46A"/>
<path d="M454 560.959L474.007 557.28L480.315 591.583L460.308 595.262L454 560.959Z" fill="#E9C46A"/>
<path d="M643.652 563.064L740.869 566.429L740.071 589.48L642.855 586.115L643.652 563.064Z" fill="#E76F51"/>
<path d="M631 507C631 534.614 608.614 557 581 557C553.386 557 531 534.614 531 507C531 479.386 553.386 457 581 457C608.614 457 631 479.386 631 507Z" fill="white"/>
<path d="M606 507C606 520.807 594.807 532 581 532C567.193 532 556 520.807 556 507C556 493.193 567.193 482 581 482C594.807 482 606 493.193 606 507Z" fill="#004662"/>
<path d="M740 443C740 470.614 717.614 493 690 493C662.386 493 640 470.614 640 443C640 415.386 662.386 393 690 393C717.614 393 740 415.386 740 443Z" fill="white"/>
<path d="M715 440C715 453.807 703.807 465 690 465C676.193 465 665 453.807 665 440C665 426.193 676.193 415 690 415C703.807 415 715 426.193 715 440Z" fill="#004662"/>
<path d="M3780.69 1147.61L3832.05 1065L3851.64 1077.18L3800.27 1159.79L3780.69 1147.61Z" fill="#E76F51"/>
<path d="M3867.99 1307.8L3964.99 1315.12L3963.25 1338.12L3866.25 1330.8L3867.99 1307.8Z" fill="#E76F51"/>
<path d="M3850.13 1209.97L3940.69 1174.47L3949.11 1195.95L3858.54 1231.45L3850.13 1209.97Z" fill="#E76F51"/>
<path d="M3830.86 1404.86L3913.45 1456.26L3901.26 1475.84L3818.67 1424.44L3830.86 1404.86Z" fill="#E76F51"/>
<path d="M3460.43 1377.46L3453.65 1340.57L3719.51 1185.6L3758.1 1395.4L3460.43 1377.46Z" fill="#E9C46A"/>
<path d="M3419 1348.96L3439.01 1345.28L3445.31 1379.58L3425.31 1383.26L3419 1348.96Z" fill="#E9C46A"/>
<path d="M3608.65 1351.06L3705.87 1354.43L3705.07 1377.48L3607.85 1374.12L3608.65 1351.06Z" fill="#E76F51"/>
<path d="M3596 1295C3596 1322.61 3573.61 1345 3546 1345C3518.39 1345 3496 1322.61 3496 1295C3496 1267.39 3518.39 1245 3546 1245C3573.61 1245 3596 1267.39 3596 1295Z" fill="white"/>
<path d="M3571 1295C3571 1308.81 3559.81 1320 3546 1320C3532.19 1320 3521 1308.81 3521 1295C3521 1281.19 3532.19 1270 3546 1270C3559.81 1270 3571 1281.19 3571 1295Z" fill="#E76F51"/>
<path d="M3705 1231C3705 1258.61 3682.61 1281 3655 1281C3627.39 1281 3605 1258.61 3605 1231C3605 1203.39 3627.39 1181 3655 1181C3682.61 1181 3705 1203.39 3705 1231Z" fill="white"/>
<path d="M3680 1228C3680 1241.81 3668.81 1253 3655 1253C3641.19 1253 3630 1241.81 3630 1228C3630 1214.19 3641.19 1203 3655 1203C3668.81 1203 3680 1214.19 3680 1228Z" fill="#E76F51"/>
<path d="M7513.69 1414.61L7565.05 1332L7584.64 1344.18L7533.27 1426.79L7513.69 1414.61Z" fill="#E76F51"/>
<path d="M7600.99 1574.8L7697.99 1582.12L7696.25 1605.12L7599.25 1597.8L7600.99 1574.8Z" fill="#E76F51"/>
<path d="M7583.13 1476.97L7673.69 1441.47L7682.11 1462.95L7591.54 1498.45L7583.13 1476.97Z" fill="#E76F51"/>
<path d="M7563.86 1671.86L7646.45 1723.26L7634.26 1742.84L7551.67 1691.44L7563.86 1671.86Z" fill="#E76F51"/>
<path d="M7193.43 1644.46L7186.65 1607.57L7452.51 1452.6L7491.1 1662.4L7193.43 1644.46Z" fill="#E9C46A"/>
<path d="M7152 1615.96L7172.01 1612.28L7178.31 1646.58L7158.31 1650.26L7152 1615.96Z" fill="#E9C46A"/>
<path d="M7341.65 1618.06L7438.87 1621.43L7438.07 1644.48L7340.85 1641.12L7341.65 1618.06Z" fill="#E76F51"/>
<path d="M7249.23 1522.87L7265.61 1503.98C7292.75 1472.69 7340.12 1469.32 7371.41 1496.46L7390.29 1512.84L7373.91 1531.73C7346.77 1563.02 7299.41 1566.39 7268.11 1539.25L7249.23 1522.87Z" fill="white"/>
<path d="M7345.01 1516.35C7345.99 1530.12 7335.61 1542.08 7321.84 1543.06C7308.07 1544.04 7296.11 1533.67 7295.13 1519.89C7294.15 1506.12 7304.53 1494.16 7318.3 1493.18C7332.07 1492.21 7344.03 1502.58 7345.01 1516.35Z" fill="#004662"/>
<path d="M7406.01 1568.56L7422.39 1549.67C7449.53 1518.38 7496.9 1515.01 7528.19 1542.15L7547.08 1558.53L7530.7 1577.42C7503.56 1608.71 7456.19 1612.08 7424.9 1584.94L7406.01 1568.56Z" fill="white"/>
<path d="M7501.79 1562.04C7502.77 1575.81 7492.4 1587.77 7478.63 1588.75C7464.85 1589.73 7452.89 1579.36 7451.92 1565.58C7450.94 1551.81 7461.31 1539.85 7475.08 1538.88C7488.85 1537.9 7500.81 1548.27 7501.79 1562.04Z" fill="#004662"/>
<path d="M1627 343C1627 370.614 1604.61 393 1577 393C1549.39 393 1527 370.614 1527 343C1527 315.386 1549.39 293 1577 293C1604.61 293 1627 315.386 1627 343Z" fill="white"/>
<path d="M1602 343C1602 356.807 1590.81 368 1577 368C1563.19 368 1552 356.807 1552 343C1552 329.193 1563.19 318 1577 318C1590.81 318 1602 329.193 1602 343Z" fill="#004662"/>
<path d="M3681 565C3681 592.614 3658.61 615 3631 615C3603.39 615 3581 592.614 3581 565C3581 537.386 3603.39 515 3631 515C3658.61 515 3681 537.386 3681 565Z" fill="white"/>
<path d="M3656 565C3656 578.807 3644.81 590 3631 590C3617.19 590 3606 578.807 3606 565C3606 551.193 3617.19 540 3631 540C3644.81 540 3656 551.193 3656 565Z" fill="#E76F51"/>
<path d="M1759 348C1759 375.614 1736.61 398 1709 398C1681.39 398 1659 375.614 1659 348C1659 320.386 1681.39 298 1709 298C1736.61 298 1759 320.386 1759 348Z" fill="white"/>
<path d="M1734 345C1734 358.807 1722.81 370 1709 370C1695.19 370 1684 358.807 1684 345C1684 331.193 1695.19 320 1709 320C1722.81 320 1734 331.193 1734 345Z" fill="#004662"/>
<path d="M3813 570C3813 597.614 3790.61 620 3763 620C3735.39 620 3713 597.614 3713 570C3713 542.386 3735.39 520 3763 520C3790.61 520 3813 542.386 3813 570Z" fill="white"/>
<path d="M3788 567C3788 580.807 3776.81 592 3763 592C3749.19 592 3738 580.807 3738 567C3738 553.193 3749.19 542 3763 542C3776.81 542 3788 553.193 3788 567Z" fill="#E76F51"/>
<path d="M7194.59 1010.5C7195.3 1022.79 7209.06 1029.71 7219.35 1022.95L7246.34 1005.22L7296.49 972.278L7189.28 918.363L7194.59 1010.5Z" fill="#F4A261"/>
<path d="M7362.71 573.516L7469.91 627.431L7296.49 972.278L7189.28 918.363L7362.71 573.516Z" fill="#2A9D8F"/>
<path d="M7386.97 525.273L7494.17 579.188L7469.91 627.431L7362.71 573.516L7386.97 525.273Z" fill="#E76F51"/>
<path d="M7404.04 491.324C7408.01 483.43 7417.63 480.249 7425.52 484.219L7504.14 523.756C7512.04 527.727 7515.22 537.345 7511.25 545.239L7494.17 579.188L7386.97 525.273L7404.04 491.324Z" fill="#F4A261"/>
<path d="M7194.55 1010.59C7195.27 1022.88 7209.01 1029.79 7219.31 1023.04L7239.6 1009.71L7193.15 986.349L7194.55 1010.59Z" fill="#E76F51"/>
<path d="M7200.7 677.529L7224.44 669.679C7263.76 656.671 7306.19 678.007 7319.19 717.333L7327.05 741.068L7303.31 748.919C7263.98 761.926 7221.56 740.591 7208.55 701.265L7200.7 677.529Z" fill="white"/>
<path d="M7286.34 720.919C7280.13 733.254 7265.1 738.225 7252.77 732.022C7240.43 725.818 7235.46 710.79 7241.67 698.455C7247.87 686.12 7262.9 681.149 7275.23 687.352C7287.57 693.556 7292.54 708.584 7286.34 720.919Z" fill="#004662"/>
<path d="M7380.87 702.097L7404.61 694.247C7443.93 681.239 7486.36 702.575 7499.36 741.901L7507.21 765.636L7483.48 773.487C7444.15 786.494 7401.73 765.159 7388.72 725.833L7380.87 702.097Z" fill="white"/>
<path d="M7466.51 745.487C7460.3 757.822 7445.27 762.793 7432.94 756.59C7420.6 750.386 7415.63 735.358 7421.84 723.023C7428.04 710.688 7443.07 705.717 7455.4 711.92C7467.74 718.124 7472.71 733.152 7466.51 745.487Z" fill="#004662"/>
<path d="M318 806C318 789.432 331.431 776 348 776H770.9C787.469 776 800.9 789.431 800.9 806V1047.14C800.9 1063.71 787.469 1077.14 770.9 1077.14H348C331.431 1077.14 318 1063.71 318 1047.14V806Z" fill="#E76F51"/>
<path d="M348.182 822.182C348.182 813.345 355.345 806.182 364.182 806.182H754.719C763.556 806.182 770.719 813.345 770.719 822.182V1031.63C770.719 1040.47 763.556 1047.63 754.719 1047.63H364.182C355.345 1047.63 348.182 1040.47 348.182 1031.63V822.182Z" fill="#2A9D8F"/>
<path d="M841.086 1122.71C814.617 1110.37 785.767 1103.97 756.562 1103.97H372.129C359.288 1103.97 355.42 1121.42 367.058 1126.85L526.644 1201.26C553.112 1213.6 581.963 1220 611.168 1220H995.6C1008.44 1220 1012.31 1202.55 1000.67 1197.12L841.086 1122.71Z" fill="#E76F51"/>
<path d="M793.34 1181.14C780.07 1174.93 765.597 1171.71 750.944 1171.71H700.709C692.154 1171.71 689.57 1183.33 697.317 1186.96L700.478 1188.44C713.749 1194.65 728.222 1197.87 742.874 1197.87H793.11C801.664 1197.87 804.249 1186.25 796.502 1182.62L793.34 1181.14Z" fill="#2A9D8F"/>
<path d="M631.139 981.069C631.139 1018.11 601.111 1048.14 564.069 1048.14C527.028 1048.14 497 1018.11 497 981.069C497 944.028 527.028 914 564.069 914C601.111 914 631.139 944.028 631.139 981.069Z" fill="white"/>
<path d="M597.605 981.069C597.605 999.59 582.591 1014.6 564.07 1014.6C545.549 1014.6 530.535 999.59 530.535 981.069C530.535 962.548 545.549 947.534 564.07 947.534C582.591 947.534 597.605 962.548 597.605 981.069Z" fill="#004662"/>
<path d="M951.504 981.093C951.504 1018.13 921.476 1048.16 884.435 1048.16C847.393 1048.16 817.365 1018.13 817.365 981.093C817.365 944.051 847.393 914.023 884.435 914.023C921.476 914.023 951.504 944.051 951.504 981.093Z" fill="white"/>
<path d="M917.605 981.054C917.605 999.575 902.591 1014.59 884.07 1014.59C865.549 1014.59 850.535 999.575 850.535 981.054C850.535 962.534 865.549 947.52 884.07 947.52C902.591 947.52 917.605 962.534 917.605 981.054Z" fill="#004662"/>
<path d="M4143 1084C4143 1067.43 4156.43 1054 4173 1054H4595.9C4612.47 1054 4625.9 1067.43 4625.9 1084V1325.14C4625.9 1341.71 4612.47 1355.14 4595.9 1355.14H4173C4156.43 1355.14 4143 1341.71 4143 1325.14V1084Z" fill="#E76F51"/>
<path d="M4173.18 1100.18C4173.18 1091.35 4180.35 1084.18 4189.18 1084.18H4579.72C4588.56 1084.18 4595.72 1091.35 4595.72 1100.18V1309.63C4595.72 1318.47 4588.56 1325.63 4579.72 1325.63H4189.18C4180.35 1325.63 4173.18 1318.47 4173.18 1309.63V1100.18Z" fill="#2A9D8F"/>
<path d="M4666.09 1400.71C4639.62 1388.37 4610.77 1381.97 4581.56 1381.97H4197.13C4184.29 1381.97 4180.42 1399.42 4192.06 1404.85L4351.64 1479.26C4378.11 1491.6 4406.96 1498 4436.17 1498H4820.6C4833.44 1498 4837.31 1480.55 4825.67 1475.12L4666.09 1400.71Z" fill="#E76F51"/>
<path d="M4618.34 1459.14C4605.07 1452.93 4590.6 1449.71 4575.94 1449.71H4525.71C4517.15 1449.71 4514.57 1461.33 4522.32 1464.96L4525.48 1466.44C4538.75 1472.65 4553.22 1475.87 4567.87 1475.87H4618.11C4626.66 1475.87 4629.25 1464.25 4621.5 1460.62L4618.34 1459.14Z" fill="#2A9D8F"/>
<path d="M4456.14 1259.07C4456.14 1296.11 4426.11 1326.14 4389.07 1326.14C4352.03 1326.14 4322 1296.11 4322 1259.07C4322 1222.03 4352.03 1192 4389.07 1192C4426.11 1192 4456.14 1222.03 4456.14 1259.07Z" fill="white"/>
<path d="M4422.6 1259.07C4422.6 1277.59 4407.59 1292.6 4389.07 1292.6C4370.55 1292.6 4355.54 1277.59 4355.54 1259.07C4355.54 1240.55 4370.55 1225.53 4389.07 1225.53C4407.59 1225.53 4422.6 1240.55 4422.6 1259.07Z" fill="#E76F51"/>
<path d="M4776.5 1259.09C4776.5 1296.13 4746.48 1326.16 4709.43 1326.16C4672.39 1326.16 4642.37 1296.13 4642.37 1259.09C4642.37 1222.05 4672.39 1192.02 4709.43 1192.02C4746.48 1192.02 4776.5 1222.05 4776.5 1259.09Z" fill="white"/>
<path d="M4742.6 1259.05C4742.6 1277.58 4727.59 1292.59 4709.07 1292.59C4690.55 1292.59 4675.54 1277.58 4675.54 1259.05C4675.54 1240.53 4690.55 1225.52 4709.07 1225.52C4727.59 1225.52 4742.6 1240.53 4742.6 1259.05Z" fill="#E76F51"/>
<path d="M1211 1034C1211 1017.43 1224.43 1004 1241 1004H1663.9C1680.47 1004 1693.9 1017.43 1693.9 1034V1275.14C1693.9 1291.71 1680.47 1305.14 1663.9 1305.14H1241C1224.43 1305.14 1211 1291.71 1211 1275.14V1034Z" fill="#2A9D8F"/>
<path d="M1241.18 1050.18C1241.18 1041.35 1248.35 1034.18 1257.18 1034.18H1647.72C1656.56 1034.18 1663.72 1041.35 1663.72 1050.18V1259.63C1663.72 1268.47 1656.56 1275.63 1647.72 1275.63H1257.18C1248.35 1275.63 1241.18 1268.47 1241.18 1259.63V1050.18Z" fill="#E76F51"/>
<path d="M1734.09 1350.71C1707.62 1338.37 1678.77 1331.97 1649.56 1331.97H1265.13C1252.29 1331.97 1248.42 1349.42 1260.06 1354.85L1419.64 1429.26C1446.11 1441.6 1474.96 1448 1504.17 1448H1888.6C1901.44 1448 1905.31 1430.55 1893.67 1425.12L1734.09 1350.71Z" fill="#2A9D8F"/>
<path d="M1686.34 1409.14C1673.07 1402.93 1658.6 1399.71 1643.94 1399.71H1593.71C1585.15 1399.71 1582.57 1411.33 1590.32 1414.96L1593.48 1416.44C1606.75 1422.65 1621.22 1425.87 1635.87 1425.87H1686.11C1694.66 1425.87 1697.25 1414.25 1689.5 1410.62L1686.34 1409.14Z" fill="#E76F51"/>
<path d="M1622.14 915.069C1622.14 952.111 1592.11 982.139 1555.07 982.139C1518.03 982.139 1488 952.111 1488 915.069C1488 878.028 1518.03 848 1555.07 848C1592.11 848 1622.14 878.028 1622.14 915.069Z" fill="white"/>
<path d="M1588.6 915.069C1588.6 933.59 1573.59 948.604 1555.07 948.604C1536.55 948.604 1521.54 933.59 1521.54 915.069C1521.54 896.548 1536.55 881.534 1555.07 881.534C1573.59 881.534 1588.6 896.548 1588.6 915.069Z" fill="#004662"/>
<path d="M1942.5 915.093C1942.5 952.134 1912.48 982.162 1875.43 982.162C1838.39 982.162 1808.37 952.134 1808.37 915.093C1808.37 878.051 1838.39 848.023 1875.43 848.023C1912.48 848.023 1942.5 878.051 1942.5 915.093Z" fill="white"/>
<path d="M1908.6 915.054C1908.6 933.575 1893.59 948.589 1875.07 948.589C1856.55 948.589 1841.54 933.575 1841.54 915.054C1841.54 896.534 1856.55 881.52 1875.07 881.52C1893.59 881.52 1908.6 896.534 1908.6 915.054Z" fill="#004662"/>
<path d="M7384 2024C7384 2007.43 7397.43 1994 7414 1994H7836.9C7853.47 1994 7866.9 2007.43 7866.9 2024V2265.14C7866.9 2281.71 7853.47 2295.14 7836.9 2295.14H7414C7397.43 2295.14 7384 2281.71 7384 2265.14V2024Z" fill="#E76F51"/>
<path d="M7414.18 2040.18C7414.18 2031.35 7421.35 2024.18 7430.18 2024.18H7820.72C7829.56 2024.18 7836.72 2031.35 7836.72 2040.18V2249.63C7836.72 2258.47 7829.56 2265.63 7820.72 2265.63H7430.18C7421.35 2265.63 7414.18 2258.47 7414.18 2249.63V2040.18Z" fill="#2A9D8F"/>
<path d="M7907.09 2340.71C7880.62 2328.37 7851.77 2321.97 7822.56 2321.97H7438.13C7425.29 2321.97 7421.42 2339.42 7433.06 2344.85L7592.64 2419.26C7619.11 2431.6 7647.96 2438 7677.17 2438H8061.6C8074.44 2438 8078.31 2420.55 8066.67 2415.12L7907.09 2340.71Z" fill="#E76F51"/>
<path d="M7859.34 2399.14C7846.07 2392.93 7831.6 2389.71 7816.94 2389.71H7766.71C7758.15 2389.71 7755.57 2401.33 7763.32 2404.96L7766.48 2406.44C7779.75 2412.65 7794.22 2415.87 7808.87 2415.87H7859.11C7867.66 2415.87 7870.25 2404.25 7862.5 2400.62L7859.34 2399.14Z" fill="#2A9D8F"/>
<path d="M7587 2170.5L7629.47 2128.03C7658.76 2098.74 7706.25 2098.74 7735.54 2128.03L7778.01 2170.5L7735.54 2212.97C7706.25 2242.26 7658.76 2242.26 7629.47 2212.97L7587 2170.5Z" fill="white"/>
<path d="M7716.66 2170.89C7716.66 2189.54 7701.54 2204.66 7682.89 2204.66C7664.25 2204.66 7649.13 2189.54 7649.13 2170.89C7649.13 2152.25 7664.25 2137.13 7682.89 2137.13C7701.54 2137.13 7716.66 2152.25 7716.66 2170.89Z" fill="#004662"/>
<path d="M7885 2170.5L7927.47 2128.03C7956.76 2098.74 8004.25 2098.74 8033.54 2128.03L8076.01 2170.5L8033.54 2212.97C8004.25 2242.26 7956.76 2242.26 7927.47 2212.97L7885 2170.5Z" fill="white"/>
<path d="M8014.66 2170.89C8014.66 2189.54 7999.54 2204.66 7980.89 2204.66C7962.25 2204.66 7947.13 2189.54 7947.13 2170.89C7947.13 2152.25 7962.25 2137.13 7980.89 2137.13C7999.54 2137.13 8014.66 2152.25 8014.66 2170.89Z" fill="#004662"/>
<path d="M8000 876C8000 859.431 8013.43 846 8030 846H8170C8186.57 846 8200 859.431 8200 876V1016C8200 1032.57 8186.57 1046 8170 1046H8030C8013.43 1046 8000 1032.57 8000 1016V876Z" fill="#BFDFED"/>
<path d="M8000 1092C8000 1075.43 8013.43 1062 8030 1062H8170C8186.57 1062 8200 1075.43 8200 1092V1096C8200 1112.57 8186.57 1126 8170 1126H8030C8013.43 1126 8000 1112.57 8000 1096V1092Z" fill="#F4A261"/>
<path d="M8082.68 557C8090.38 543.667 8109.62 543.667 8117.32 557L8282.68 843.41C8290.38 856.743 8280.76 873.41 8265.36 873.41H7934.64C7919.25 873.41 7909.62 856.743 7917.32 843.41L8082.68 557Z" fill="#BFDFED"/>
<path d="M7999 750.503L8041.47 708.033C8070.76 678.744 8118.25 678.744 8147.54 708.033L8190.01 750.503L8147.54 792.974C8118.25 822.263 8070.76 822.263 8041.47 792.974L7999 750.503Z" fill="white"/>
<path d="M8128.66 750.894C8128.66 769.542 8113.54 784.659 8094.89 784.659C8076.25 784.659 8061.13 769.542 8061.13 750.894C8061.13 732.246 8076.25 717.128 8094.89 717.128C8113.54 717.128 8128.66 732.246 8128.66 750.894Z" fill="#004662"/>
<path d="M8204 817.503L8246.47 775.033C8275.76 745.743 8323.25 745.743 8352.54 775.033L8395.01 817.503L8352.54 859.973C8323.25 889.263 8275.76 889.263 8246.47 859.973L8204 817.503Z" fill="white"/>
<path d="M8333.66 817.894C8333.66 836.542 8318.54 851.659 8299.89 851.659C8281.25 851.659 8266.13 836.542 8266.13 817.894C8266.13 799.246 8281.25 784.128 8299.89 784.128C8318.54 784.128 8333.66 799.246 8333.66 817.894Z" fill="#004662"/>
<path d="M5281 1252C5281 1235.43 5294.43 1222 5311 1222H5451C5467.57 1222 5481 1235.43 5481 1252V1392C5481 1408.57 5467.57 1422 5451 1422H5311C5294.43 1422 5281 1408.57 5281 1392V1252Z" fill="#BFDFED"/>
<path d="M5281 1468C5281 1451.43 5294.43 1438 5311 1438H5451C5467.57 1438 5481 1451.43 5481 1468V1472C5481 1488.57 5467.57 1502 5451 1502H5311C5294.43 1502 5281 1488.57 5281 1472V1468Z" fill="#F4A261"/>
<path d="M5363.68 933C5371.38 919.667 5390.62 919.667 5398.32 933L5563.68 1219.41C5571.38 1232.74 5561.76 1249.41 5546.36 1249.41H5215.64C5200.25 1249.41 5190.62 1232.74 5198.32 1219.41L5363.68 933Z" fill="#BFDFED"/>
<path d="M606 2354C606 2337.43 619.431 2324 636 2324H776C792.569 2324 806 2337.43 806 2354V2494C806 2510.57 792.569 2524 776 2524H636C619.431 2524 606 2510.57 606 2494V2354Z" fill="#BFDFED"/>
<path d="M606 2570C606 2553.43 619.431 2540 636 2540H776C792.569 2540 806 2553.43 806 2570V2574C806 2590.57 792.569 2604 776 2604H636C619.431 2604 606 2590.57 606 2574V2570Z" fill="#F4A261"/>
<path d="M688.68 2035C696.378 2021.67 715.623 2021.67 723.321 2035L888.68 2321.41C896.378 2334.74 886.755 2351.41 871.359 2351.41H540.641C525.245 2351.41 515.623 2334.74 523.321 2321.41L688.68 2035Z" fill="#BFDFED"/>
<path d="M5281.14 1126.07C5281.14 1163.11 5251.11 1193.14 5214.07 1193.14C5177.03 1193.14 5147 1163.11 5147 1126.07C5147 1089.03 5177.03 1059 5214.07 1059C5251.11 1059 5281.14 1089.03 5281.14 1126.07Z" fill="white"/>
<path d="M5247.6 1126.07C5247.6 1144.59 5232.59 1159.6 5214.07 1159.6C5195.55 1159.6 5180.54 1144.59 5180.54 1126.07C5180.54 1107.55 5195.55 1092.53 5214.07 1092.53C5232.59 1092.53 5247.6 1107.55 5247.6 1126.07Z" fill="#F4A261"/>
<path d="M606.139 2228.07C606.139 2265.11 576.111 2295.14 539.069 2295.14C502.028 2295.14 472 2265.11 472 2228.07C472 2191.03 502.028 2161 539.069 2161C576.111 2161 606.139 2191.03 606.139 2228.07Z" fill="white"/>
<path d="M572.605 2228.07C572.605 2246.59 557.591 2261.6 539.07 2261.6C520.549 2261.6 505.535 2246.59 505.535 2228.07C505.535 2209.55 520.549 2194.53 539.07 2194.53C557.591 2194.53 572.605 2209.55 572.605 2228.07Z" fill="#004662"/>
<path d="M5448.14 1126.07C5448.14 1163.11 5418.11 1193.14 5381.07 1193.14C5344.03 1193.14 5314 1163.11 5314 1126.07C5314 1089.03 5344.03 1059 5381.07 1059C5418.11 1059 5448.14 1089.03 5448.14 1126.07Z" fill="white"/>
<path d="M5414.24 1126.03C5414.24 1144.55 5399.22 1159.57 5380.7 1159.57C5362.18 1159.57 5347.17 1144.55 5347.17 1126.03C5347.17 1107.51 5362.18 1092.5 5380.7 1092.5C5399.22 1092.5 5414.24 1107.51 5414.24 1126.03Z" fill="#F4A261"/>
<path d="M773.139 2228.07C773.139 2265.11 743.111 2295.14 706.069 2295.14C669.028 2295.14 639 2265.11 639 2228.07C639 2191.03 669.028 2161 706.069 2161C743.111 2161 773.139 2191.03 773.139 2228.07Z" fill="white"/>
<path d="M739.237 2228.03C739.237 2246.55 724.223 2261.57 705.703 2261.57C687.182 2261.57 672.168 2246.55 672.168 2228.03C672.168 2209.51 687.182 2194.5 705.703 2194.5C724.223 2194.5 739.237 2209.51 739.237 2228.03Z" fill="#004662"/>
<path d="M8548 656C8548 639.431 8561.43 626 8578 626H8718C8734.57 626 8748 639.431 8748 656V1016C8748 1032.57 8734.57 1046 8718 1046H8578C8561.43 1046 8548 1032.57 8548 1016V656Z" fill="#F4A261"/>
<path d="M8548 1092C8548 1075.43 8561.43 1062 8578 1062H8718C8734.57 1062 8748 1075.43 8748 1092V1096C8748 1112.57 8734.57 1126 8718 1126H8578C8561.43 1126 8548 1112.57 8548 1096V1092Z" fill="#BFDFED"/>
<path d="M8630.68 357C8638.38 343.667 8657.62 343.667 8665.32 357L8830.68 643.41C8838.38 656.743 8828.76 673.41 8813.36 673.41H8482.64C8467.25 673.41 8457.62 656.743 8465.32 643.41L8630.68 357Z" fill="#F4A261"/>
<path d="M8548 579.503L8590.47 537.033C8619.76 507.744 8667.25 507.744 8696.54 537.033L8739.01 579.503L8696.54 621.974C8667.25 651.263 8619.76 651.263 8590.47 621.974L8548 579.503Z" fill="white"/>
<path d="M8677.66 579.894C8677.66 598.542 8662.54 613.659 8643.89 613.659C8625.25 613.659 8610.13 598.542 8610.13 579.894C8610.13 561.246 8625.25 546.128 8643.89 546.128C8662.54 546.128 8677.66 561.246 8677.66 579.894Z" fill="#004662"/>
<path d="M8392 479.503L8434.47 437.033C8463.76 407.744 8511.25 407.744 8540.54 437.033L8583.01 479.503L8540.54 521.974C8511.25 551.263 8463.76 551.263 8434.47 521.974L8392 479.503Z" fill="white"/>
<path d="M8521.66 479.894C8521.66 498.542 8506.54 513.659 8487.89 513.659C8469.25 513.659 8454.13 498.542 8454.13 479.894C8454.13 461.246 8469.25 446.128 8487.89 446.128C8506.54 446.128 8521.66 461.246 8521.66 479.894Z" fill="#004662"/>
<path d="M5829 1032C5829 1015.43 5842.43 1002 5859 1002H5999C6015.57 1002 6029 1015.43 6029 1032V1392C6029 1408.57 6015.57 1422 5999 1422H5859C5842.43 1422 5829 1408.57 5829 1392V1032Z" fill="#F4A261"/>
<path d="M5829 1468C5829 1451.43 5842.43 1438 5859 1438H5999C6015.57 1438 6029 1451.43 6029 1468V1472C6029 1488.57 6015.57 1502 5999 1502H5859C5842.43 1502 5829 1488.57 5829 1472V1468Z" fill="#BFDFED"/>
<path d="M5911.68 733C5919.38 719.667 5938.62 719.667 5946.32 733L6111.68 1019.41C6119.38 1032.74 6109.76 1049.41 6094.36 1049.41H5763.64C5748.25 1049.41 5738.62 1032.74 5746.32 1019.41L5911.68 733Z" fill="#F4A261"/>
<path d="M1154 2134C1154 2117.43 1167.43 2104 1184 2104H1324C1340.57 2104 1354 2117.43 1354 2134V2494C1354 2510.57 1340.57 2524 1324 2524H1184C1167.43 2524 1154 2510.57 1154 2494V2134Z" fill="#F4A261"/>
<path d="M1154 2570C1154 2553.43 1167.43 2540 1184 2540H1324C1340.57 2540 1354 2553.43 1354 2570V2574C1354 2590.57 1340.57 2604 1324 2604H1184C1167.43 2604 1154 2590.57 1154 2574V2570Z" fill="#BFDFED"/>
<path d="M1236.68 1835C1244.38 1821.67 1263.62 1821.67 1271.32 1835L1436.68 2121.41C1444.38 2134.74 1434.76 2151.41 1419.36 2151.41H1088.64C1073.25 2151.41 1063.62 2134.74 1071.32 2121.41L1236.68 1835Z" fill="#F4A261"/>
<path d="M6012.14 903.069C6012.14 940.111 5982.11 970.139 5945.07 970.139C5908.03 970.139 5878 940.111 5878 903.069C5878 866.028 5908.03 836 5945.07 836C5982.11 836 6012.14 866.028 6012.14 903.069Z" fill="white"/>
<path d="M5978.6 903.069C5978.6 921.59 5963.59 936.604 5945.07 936.604C5926.55 936.604 5911.54 921.59 5911.54 903.069C5911.54 884.548 5926.55 869.534 5945.07 869.534C5963.59 869.534 5978.6 884.548 5978.6 903.069Z" fill="#BFDFED"/>
<path d="M1337.14 2005.07C1337.14 2042.11 1307.11 2072.14 1270.07 2072.14C1233.03 2072.14 1203 2042.11 1203 2005.07C1203 1968.03 1233.03 1938 1270.07 1938C1307.11 1938 1337.14 1968.03 1337.14 2005.07Z" fill="white"/>
<path d="M1303.6 2005.07C1303.6 2023.59 1288.59 2038.6 1270.07 2038.6C1251.55 2038.6 1236.54 2023.59 1236.54 2005.07C1236.54 1986.55 1251.55 1971.53 1270.07 1971.53C1288.59 1971.53 1303.6 1986.55 1303.6 2005.07Z" fill="#004662"/>
<path d="M6179.14 903.069C6179.14 940.111 6149.11 970.139 6112.07 970.139C6075.03 970.139 6045 940.111 6045 903.069C6045 866.028 6075.03 836 6112.07 836C6149.11 836 6179.14 866.028 6179.14 903.069Z" fill="white"/>
<path d="M6145.24 903.031C6145.24 921.552 6130.22 936.566 6111.7 936.566C6093.18 936.566 6078.17 921.552 6078.17 903.031C6078.17 884.51 6093.18 869.496 6111.7 869.496C6130.22 869.496 6145.24 884.51 6145.24 903.031Z" fill="#BFDFED"/>
<path d="M1504.14 2005.07C1504.14 2042.11 1474.11 2072.14 1437.07 2072.14C1400.03 2072.14 1370 2042.11 1370 2005.07C1370 1968.03 1400.03 1938 1437.07 1938C1474.11 1938 1504.14 1968.03 1504.14 2005.07Z" fill="white"/>
<path d="M1470.24 2005.03C1470.24 2023.55 1455.22 2038.57 1436.7 2038.57C1418.18 2038.57 1403.17 2023.55 1403.17 2005.03C1403.17 1986.51 1418.18 1971.5 1436.7 1971.5C1455.22 1971.5 1470.24 1986.51 1470.24 2005.03Z" fill="#004662"/>
<path d="M8278 1586H8627V1636H8278V1586Z" fill="#E76F51"/>
<path d="M8409 1611C8409 1671.2 8360.2 1720 8300 1720C8239.8 1720 8191 1671.2 8191 1611C8191 1550.8 8239.8 1502 8300 1502C8360.2 1502 8409 1550.8 8409 1611Z" fill="#E76F51"/>
<path d="M8377 1612C8377 1653.42 8343.42 1687 8302 1687C8260.58 1687 8227 1653.42 8227 1612C8227 1570.58 8260.58 1537 8302 1537C8343.42 1537 8377 1570.58 8377 1612Z" fill="#BFDFED"/>
<path d="M8711 1611C8711 1671.2 8662.2 1720 8602 1720C8541.8 1720 8493 1671.2 8493 1611C8493 1550.8 8541.8 1502 8602 1502C8662.2 1502 8711 1550.8 8711 1611Z" fill="#E76F51"/>
<path d="M8738.15 1577.46C8733.1 1567.63 8736.96 1555.58 8746.78 1550.52L9021.55 1409.15C9031.37 1404.1 9043.43 1407.96 9048.48 1417.78L9053.06 1426.68C9058.11 1436.5 9054.25 1448.56 9044.42 1453.61L8769.66 1594.98C8759.84 1600.04 8747.78 1596.17 8742.73 1586.35L8738.15 1577.46Z" fill="#E76F51"/>
<path d="M8404.15 1510.57C8399.09 1500.75 8402.96 1488.69 8412.78 1483.63L8557.55 1409.15C8567.37 1404.1 8579.43 1407.96 8584.48 1417.78L8589.06 1426.68C8594.11 1436.5 8590.25 1448.56 8580.42 1453.61L8435.66 1528.1C8425.84 1533.15 8413.78 1529.28 8408.72 1519.46L8404.15 1510.57Z" fill="#E76F51"/>
<path d="M8129 1719.5L8171.47 1677.03C8200.76 1647.74 8248.25 1647.74 8277.54 1677.03L8320.01 1719.5L8277.54 1761.97C8248.25 1791.26 8200.76 1791.26 8171.47 1761.97L8129 1719.5Z" fill="white"/>
<path d="M8258.66 1719.89C8258.66 1738.54 8243.54 1753.66 8224.89 1753.66C8206.25 1753.66 8191.13 1738.54 8191.13 1719.89C8191.13 1701.25 8206.25 1686.13 8224.89 1686.13C8243.54 1686.13 8258.66 1701.25 8258.66 1719.89Z" fill="#004662"/>
<path d="M8677 1612C8677 1653.42 8643.42 1687 8602 1687C8560.58 1687 8527 1653.42 8527 1612C8527 1570.58 8560.58 1537 8602 1537C8643.42 1537 8677 1570.58 8677 1612Z" fill="#BFDFED"/>
<path d="M8427 1719.5L8469.47 1677.03C8498.76 1647.74 8546.25 1647.74 8575.54 1677.03L8618.01 1719.5L8575.54 1761.97C8546.25 1791.26 8498.76 1791.26 8469.47 1761.97L8427 1719.5Z" fill="white"/>
<path d="M8556.66 1719.89C8556.66 1738.54 8541.54 1753.66 8522.89 1753.66C8504.25 1753.66 8489.13 1738.54 8489.13 1719.89C8489.13 1701.25 8504.25 1686.13 8522.89 1686.13C8541.54 1686.13 8556.66 1701.25 8556.66 1719.89Z" fill="#004662"/>
<path d="M4138 572H4487V622H4138V572Z" fill="#E76F51"/>
<path d="M4269 597C4269 657.199 4220.2 706 4160 706C4099.8 706 4051 657.199 4051 597C4051 536.801 4099.8 488 4160 488C4220.2 488 4269 536.801 4269 597Z" fill="#E76F51"/>
<path d="M4237 598C4237 639.421 4203.42 673 4162 673C4120.58 673 4087 639.421 4087 598C4087 556.579 4120.58 523 4162 523C4203.42 523 4237 556.579 4237 598Z" fill="#BFDFED"/>
<path d="M4571 597C4571 657.199 4522.2 706 4462 706C4401.8 706 4353 657.199 4353 597C4353 536.801 4401.8 488 4462 488C4522.2 488 4571 536.801 4571 597Z" fill="#E76F51"/>
<path d="M4598.15 563.456C4593.1 553.634 4596.96 541.575 4606.78 536.522L4881.55 395.151C4891.37 390.097 4903.43 393.963 4908.48 403.785L4913.06 412.677C4918.11 422.499 4914.25 434.558 4904.42 439.611L4629.66 580.982C4619.84 586.035 4607.78 582.17 4602.73 572.348L4598.15 563.456Z" fill="#E76F51"/>
<path d="M4264.15 496.569C4259.09 486.747 4262.96 474.688 4272.78 469.635L4417.55 395.15C4427.37 390.097 4439.43 393.962 4444.48 403.784L4449.06 412.676C4454.11 422.498 4450.25 434.557 4440.42 439.611L4295.66 514.095C4285.84 519.149 4273.78 515.283 4268.72 505.461L4264.15 496.569Z" fill="#E76F51"/>
<path d="M4537 598C4537 639.421 4503.42 673 4462 673C4420.58 673 4387 639.421 4387 598C4387 556.579 4420.58 523 4462 523C4503.42 523 4537 556.579 4537 598Z" fill="#BFDFED"/>
<path d="M1907 1860H2256V1910H1907V1860Z" fill="#E76F51"/>
<path d="M2038 1885C2038 1945.2 1989.2 1994 1929 1994C1868.8 1994 1820 1945.2 1820 1885C1820 1824.8 1868.8 1776 1929 1776C1989.2 1776 2038 1824.8 2038 1885Z" fill="#E76F51"/>
<path d="M2006 1886C2006 1927.42 1972.42 1961 1931 1961C1889.58 1961 1856 1927.42 1856 1886C1856 1844.58 1889.58 1811 1931 1811C1972.42 1811 2006 1844.58 2006 1886Z" fill="#BFDFED"/>
<path d="M2340 1885C2340 1945.2 2291.2 1994 2231 1994C2170.8 1994 2122 1945.2 2122 1885C2122 1824.8 2170.8 1776 2231 1776C2291.2 1776 2340 1824.8 2340 1885Z" fill="#E76F51"/>
<path d="M2367.15 1851.46C2362.1 1841.63 2365.96 1829.58 2375.78 1824.52L2650.55 1683.15C2660.37 1678.1 2672.43 1681.96 2677.48 1691.78L2682.06 1700.68C2687.11 1710.5 2683.25 1722.56 2673.42 1727.61L2398.66 1868.98C2388.84 1874.04 2376.78 1870.17 2371.73 1860.35L2367.15 1851.46Z" fill="#E76F51"/>
<path d="M2033.15 1784.57C2028.09 1774.75 2031.96 1762.69 2041.78 1757.63L2186.55 1683.15C2196.37 1678.1 2208.43 1681.96 2213.48 1691.78L2218.06 1700.68C2223.11 1710.5 2219.25 1722.56 2209.42 1727.61L2064.66 1802.1C2054.84 1807.15 2042.78 1803.28 2037.72 1793.46L2033.15 1784.57Z" fill="#E76F51"/>
<path d="M2306 1886C2306 1927.42 2272.42 1961 2231 1961C2189.58 1961 2156 1927.42 2156 1886C2156 1844.58 2189.58 1811 2231 1811C2272.42 1811 2306 1844.58 2306 1886Z" fill="#BFDFED"/>
<path d="M4166.14 689.069C4166.14 726.111 4136.11 756.139 4099.07 756.139C4062.03 756.139 4032 726.111 4032 689.069C4032 652.028 4062.03 622 4099.07 622C4136.11 622 4166.14 652.028 4166.14 689.069Z" fill="white"/>
<path d="M4132.6 689.069C4132.6 707.59 4117.59 722.604 4099.07 722.604C4080.55 722.604 4065.54 707.59 4065.54 689.069C4065.54 670.549 4080.55 655.535 4099.07 655.535C4117.59 655.535 4132.6 670.549 4132.6 689.069Z" fill="#E76F51"/>
<path d="M1935.14 1977.07C1935.14 2014.11 1905.11 2044.14 1868.07 2044.14C1831.03 2044.14 1801 2014.11 1801 1977.07C1801 1940.03 1831.03 1910 1868.07 1910C1905.11 1910 1935.14 1940.03 1935.14 1977.07Z" fill="white"/>
<path d="M1901.6 1977.07C1901.6 1995.59 1886.59 2010.6 1868.07 2010.6C1849.55 2010.6 1834.54 1995.59 1834.54 1977.07C1834.54 1958.55 1849.55 1943.53 1868.07 1943.53C1886.59 1943.53 1901.6 1958.55 1901.6 1977.07Z" fill="#004662"/>
<path d="M4486.5 689.093C4486.5 726.134 4456.48 756.162 4419.43 756.162C4382.39 756.162 4352.37 726.134 4352.37 689.093C4352.37 652.051 4382.39 622.023 4419.43 622.023C4456.48 622.023 4486.5 652.051 4486.5 689.093Z" fill="white"/>
<path d="M4452.6 689.054C4452.6 707.575 4437.59 722.589 4419.07 722.589C4400.55 722.589 4385.54 707.575 4385.54 689.054C4385.54 670.534 4400.55 655.52 4419.07 655.52C4437.59 655.52 4452.6 670.534 4452.6 689.054Z" fill="#E76F51"/>
<path d="M2255.5 1977.09C2255.5 2014.13 2225.48 2044.16 2188.43 2044.16C2151.39 2044.16 2121.37 2014.13 2121.37 1977.09C2121.37 1940.05 2151.39 1910.02 2188.43 1910.02C2225.48 1910.02 2255.5 1940.05 2255.5 1977.09Z" fill="white"/>
<path d="M2221.6 1977.05C2221.6 1995.58 2206.59 2010.59 2188.07 2010.59C2169.55 2010.59 2154.54 1995.58 2154.54 1977.05C2154.54 1958.53 2169.55 1943.52 2188.07 1943.52C2206.59 1943.52 2221.6 1958.53 2221.6 1977.05Z" fill="#004662"/>
<path d="M2285.13 2831L2283.13 2886H1837.13L1831.13 2854C1859.13 2834 1904.46 2814.67 1967.13 2796V2402L1850.13 2448L1813.12 2376L2085.12 2216L2168.12 2277V2810L2285.13 2831Z" fill="#004662"/>
<path d="M5257.41 2665C5254.74 2737 5242.41 2810.67 5220.41 2886L5197.41 2885V2886H4731.41L4709.41 2788L4923.41 2561C4984.74 2491.67 5015.41 2437 5015.41 2397C5015.41 2373 5007.74 2353.33 4992.41 2338C4977.74 2322.67 4956.41 2313.67 4928.41 2311L4870.41 2498H4743.41C4728.74 2449.33 4721.41 2387.67 4721.41 2313L4722.41 2285C4801.74 2239 4883.41 2216 4967.41 2216C5041.41 2216 5101.74 2235.67 5148.41 2275C5195.74 2313.67 5219.41 2362.67 5219.41 2422C5219.41 2460 5207.41 2498.33 5183.41 2537C5159.41 2575.67 5117.74 2623.67 5058.41 2681L4937.41 2799L4941.41 2806L5079.41 2777L5173.41 2642L5257.41 2665Z" fill="#004662"/>
<path d="M9016.34 2544C9061.67 2548.67 9099 2567 9128.34 2599C9158.34 2630.33 9173.34 2667.67 9173.34 2711C9173.34 2768.33 9147 2815.33 9094.34 2852C9042.34 2888 8974.34 2906 8890.34 2906C8802.34 2906 8718 2888.33 8637.34 2853L8694.34 2670L8819.34 2750C8862.67 2776.67 8898.67 2793.33 8927.34 2800C8949.34 2778 8960.34 2753 8960.34 2725C8960.34 2697 8949.34 2673 8927.34 2653C8905.34 2632.33 8876 2622 8839.34 2622L8788.34 2623L8783.34 2531H8795.34C8837.34 2529 8872 2517 8899.34 2495C8927.34 2472.33 8941.34 2445.67 8941.34 2415C8941.34 2388.33 8931.34 2366 8911.34 2348C8892 2329.33 8866.67 2318.33 8835.34 2315L8785.34 2473H8669.34C8659.34 2435.67 8654.34 2388.33 8654.34 2331L8656.34 2282L8655.34 2280C8718.67 2237.33 8799 2216 8896.34 2216C8971 2216 9031.34 2232.33 9077.34 2265C9124 2297.67 9147.34 2339.33 9147.34 2390C9147.34 2422 9136 2452 9113.34 2480C9091.34 2508 9059 2529.33 9016.34 2544Z" fill="#004662"/>
<path d="M2152.69 413.606L2204.05 331L2223.64 343.18L2172.27 425.786L2152.69 413.606Z" fill="#E76F51"/>
<path d="M2239.99 573.803L2336.99 581.12L2335.25 604.119L2238.25 596.802L2239.99 573.803Z" fill="#E76F51"/>
<path d="M2222.13 475.973L2312.69 440.473L2321.11 461.947L2230.54 497.447L2222.13 475.973Z" fill="#E76F51"/>
<path d="M2202.86 670.861L2285.45 722.255L2273.26 741.838L2190.67 690.444L2202.86 670.861Z" fill="#E76F51"/>
<path d="M1832.43 643.457L1825.65 606.569L2091.51 451.603L2130.1 661.405L1832.43 643.457Z" fill="#E9C46A"/>
<path d="M1791 614.959L1811.01 611.28L1817.31 645.583L1797.31 649.262L1791 614.959Z" fill="#E9C46A"/>
<path d="M1980.65 617.064L2077.87 620.429L2077.07 643.48L1979.85 640.115L1980.65 617.064Z" fill="#E76F51"/>
<path d="M2044 525C2044 552.614 2021.61 575 1994 575C1966.39 575 1944 552.614 1944 525C1944 497.386 1966.39 475 1994 475C2021.61 475 2044 497.386 2044 525Z" fill="white"/>
<path d="M2019 525C2019 538.807 2007.81 550 1994 550C1980.19 550 1969 538.807 1969 525C1969 511.193 1980.19 500 1994 500C2007.81 500 2019 511.193 2019 525Z" fill="#004662"/>
<path d="M2192 525C2192 552.614 2169.61 575 2142 575C2114.39 575 2092 552.614 2092 525C2092 497.386 2114.39 475 2142 475C2169.61 475 2192 497.386 2192 525Z" fill="white"/>
<path d="M2167 522C2167 535.807 2155.81 547 2142 547C2128.19 547 2117 535.807 2117 522C2117 508.193 2128.19 497 2142 497C2155.81 497 2167 508.193 2167 522Z" fill="#004662"/>
</svg>
