<svg width="1920" height="1080" viewBox="0 0 1920 1080" fill="none" xmlns="http://www.w3.org/2000/svg">
<g clip-path="url(#clip0)">
<rect width="1920" height="1080" fill="#BFDFED"/>
<path d="M359.293 380.06C359.734 384.504 364.777 386.743 368.369 384.091L377.786 377.138L395.287 364.218L355.988 346.765L359.293 380.06Z" fill="#F4A261"/>
<path d="M412 220.643L451.299 238.096L395.287 364.218L355.988 346.765L412 220.643Z" fill="#2A9D8F"/>
<path d="M419.712 203.278L459.011 220.731L451.299 238.096L412 220.643L419.712 203.278Z" fill="#E76F51"/>
<path d="M425.424 190.416C426.752 187.425 430.175 186.042 433.069 187.327L461.888 200.126C464.782 201.411 466.051 204.878 464.723 207.869L459.01 220.731L419.711 203.279L425.424 190.416Z" fill="#F4A261"/>
<path d="M359.141 380.164C359.707 384.435 364.845 386.717 368.393 384.273L375.39 379.453L358.025 371.742L359.141 380.164Z" fill="#E76F51"/>
<path d="M455.063 266.576C450.916 275.913 439.985 280.121 430.647 275.974C421.309 271.827 417.101 260.896 421.248 251.558C425.395 242.22 436.327 238.012 445.664 242.159C455.002 246.306 459.21 257.238 455.063 266.576Z" fill="white"/>
<path d="M446.634 263.379C444.617 267.922 439.094 269.878 434.299 267.749C429.504 265.619 427.252 260.21 429.27 255.668C431.287 251.125 436.81 249.169 441.605 251.298C446.4 253.428 448.652 258.837 446.634 263.379Z" fill="#004662"/>
<path d="M497.206 287.48C493.059 296.818 482.127 301.026 472.789 296.879C463.452 292.732 459.244 281.8 463.391 272.462C467.538 263.124 478.469 258.917 487.807 263.064C497.145 267.211 501.353 278.142 497.206 287.48Z" fill="white"/>
<path d="M489.387 282.913C487.257 287.708 481.848 289.96 477.306 287.942C472.763 285.925 470.807 280.402 472.936 275.607C475.066 270.812 480.475 268.56 485.017 270.578C489.56 272.595 491.516 278.118 489.387 282.913Z" fill="#004662"/>
<path d="M1586.79 957.643L1547.49 975.096L1603.5 1101.22L1642.8 1083.76L1586.79 957.643Z" fill="#2A9D8F"/>
<path d="M1579.08 940.278L1539.78 957.731L1547.49 975.096L1586.79 957.643L1579.08 940.278Z" fill="#E76F51"/>
<path d="M1573.37 927.416C1572.04 924.425 1568.62 923.042 1565.72 924.327L1536.9 937.126C1534.01 938.411 1532.74 941.878 1534.07 944.869L1539.78 957.731L1579.08 940.279L1573.37 927.416Z" fill="#F4A261"/>
<path d="M1543.73 1003.58C1547.87 1012.91 1558.81 1017.12 1568.14 1012.97C1577.48 1008.83 1581.69 997.896 1577.54 988.558C1573.4 979.22 1562.46 975.012 1553.13 979.159C1543.79 983.306 1539.58 994.238 1543.73 1003.58Z" fill="white"/>
<path d="M1552.16 1000.38C1554.17 1004.92 1559.7 1006.88 1564.49 1004.75C1569.29 1002.62 1571.54 997.21 1569.52 992.668C1567.5 988.125 1561.98 986.169 1557.19 988.298C1552.39 990.428 1550.14 995.837 1552.16 1000.38Z" fill="#004662"/>
<path d="M1501.59 1024.48C1505.73 1033.82 1516.66 1038.03 1526 1033.88C1535.34 1029.73 1539.55 1018.8 1535.4 1009.46C1531.25 1000.12 1520.32 995.917 1510.98 1000.06C1501.65 1004.21 1497.44 1015.14 1501.59 1024.48Z" fill="white"/>
<path d="M1509.4 1019.91C1511.53 1024.71 1516.94 1026.96 1521.49 1024.94C1526.03 1022.92 1527.98 1017.4 1525.85 1012.61C1523.73 1007.81 1518.32 1005.56 1513.77 1007.58C1509.23 1009.6 1507.27 1015.12 1509.4 1019.91Z" fill="#004662"/>
<path d="M160 695.931C160 676.087 176.096 660 195.951 660H568.049C587.904 660 604 676.087 604 695.931V979.069C604 998.913 587.904 1015 568.049 1015H195.951C176.096 1015 160 998.913 160 979.069V695.931Z" fill="#2A9D8F"/>
<path d="M240 896.8C240 890.835 244.835 886 250.8 886H301.2C307.165 886 312 890.835 312 896.8V947.2C312 953.165 307.165 958 301.2 958H250.8C244.835 958 240 953.165 240 947.2V896.8Z" fill="#C0D6DF"/>
<path d="M240 973.781C240 967.827 244.835 963 250.8 963H301.2C307.165 963 312 967.827 312 973.781V975.219C312 981.173 307.165 986 301.2 986H250.8C244.835 986 240 981.173 240 975.219V973.781Z" fill="#F4A261"/>
<path d="M270.287 781.615C273.048 776.795 279.952 776.795 282.713 781.615L342.028 885.155C344.789 889.975 341.338 896 335.815 896H217.185C211.662 896 208.211 889.975 210.972 885.155L270.287 781.615Z" fill="#C0D6DF"/>
<path d="M240 851C240 864.255 229.255 875 216 875C202.745 875 192 864.255 192 851C192 837.745 202.745 827 216 827C229.255 827 240 837.745 240 851Z" fill="white"/>
<path d="M229 851.5C229 858.404 223.404 864 216.5 864C209.596 864 204 858.404 204 851.5C204 844.596 209.596 839 216.5 839C223.404 839 229 844.596 229 851.5Z" fill="#004662"/>
<path d="M301 851C301 864.255 290.031 875 276.5 875C262.969 875 252 864.255 252 851C252 837.745 262.969 827 276.5 827C290.031 827 301 837.745 301 851Z" fill="white"/>
<path d="M288 851.5C288 858.404 282.627 864 276 864C269.373 864 264 858.404 264 851.5C264 844.596 269.373 839 276 839C282.627 839 288 844.596 288 851.5Z" fill="#004662"/>
<path d="M437 817.786C437 811.829 441.835 807 447.8 807H498.2C504.165 807 509 811.829 509 817.786V947.214C509 953.171 504.165 958 498.2 958H447.8C441.835 958 437 953.171 437 947.214V817.786Z" fill="#F4A261"/>
<path d="M437 973.781C437 967.827 441.835 963 447.8 963H498.2C504.165 963 509 967.827 509 973.781V975.219C509 981.173 504.165 986 498.2 986H447.8C441.835 986 437 981.173 437 975.219V973.781Z" fill="#C0D6DF"/>
<path d="M467.287 709.615C470.048 704.795 476.952 704.795 479.713 709.615L539.028 813.155C541.789 817.975 538.338 824 532.815 824H414.185C408.662 824 405.211 817.975 407.972 813.155L467.287 709.615Z" fill="#F4A261"/>
<path d="M503 771C503 784.255 492.255 795 479 795C465.745 795 455 784.255 455 771C455 757.745 465.745 747 479 747C492.255 747 503 757.745 503 771Z" fill="white"/>
<path d="M491 771C491 777.627 485.627 783 479 783C472.373 783 467 777.627 467 771C467 764.373 472.373 759 479 759C485.627 759 491 764.373 491 771Z" fill="#004662"/>
<path d="M564 771C564 784.255 553.031 795 539.5 795C525.969 795 515 784.255 515 771C515 757.745 525.969 747 539.5 747C553.031 747 564 757.745 564 771Z" fill="white"/>
<path d="M551 771C551 777.627 545.627 783 539 783C532.373 783 527 777.627 527 771C527 764.373 532.373 759 539 759C545.627 759 551 764.373 551 771Z" fill="#004662"/>
<path d="M1565 54.0063H1690V72.0063H1565V54.0063Z" fill="#E76F51"/>
<path d="M1611 63.0063C1611 84.5455 1593.32 102.006 1571.5 102.006C1549.68 102.006 1532 84.5455 1532 63.0063C1532 41.4672 1549.68 24.0063 1571.5 24.0063C1593.32 24.0063 1611 41.4672 1611 63.0063Z" fill="#E76F51"/>
<path d="M1599 63.0063C1599 77.918 1587.14 90.0064 1572.5 90.0064C1557.86 90.0064 1546 77.918 1546 63.0063C1546 48.0947 1557.86 36.0063 1572.5 36.0063C1587.14 36.0063 1599 48.0947 1599 63.0063Z" fill="#C0D6DF"/>
<path d="M1719 63.0063C1719 84.5455 1701.76 102.006 1680.5 102.006C1659.24 102.006 1642 84.5455 1642 63.0063C1642 41.4672 1659.24 24.0063 1680.5 24.0063C1701.76 24.0063 1719 41.4672 1719 63.0063Z" fill="#E76F51"/>
<path d="M1729.49 50.78C1727.67 47.2499 1729.06 42.9158 1732.59 41.0995L1831.35 -9.71087C1834.88 -11.5272 1839.21 -10.1378 1841.03 -6.60775L1842.67 -3.41184C1844.49 0.118267 1843.1 4.45238 1839.57 6.26868L1740.81 57.079C1737.28 58.8953 1732.95 57.506 1731.13 53.9759L1729.49 50.78Z" fill="#E76F51"/>
<path d="M1609.44 26.74C1607.63 23.2099 1609.02 18.8757 1612.55 17.0594L1664.58 -9.71124C1668.11 -11.5275 1672.44 -10.1382 1674.26 -6.60812L1675.9 -3.41221C1677.72 0.117891 1676.33 4.45201 1672.8 6.2683L1620.77 33.039C1617.24 34.8553 1612.91 33.466 1611.09 29.9359L1609.44 26.74Z" fill="#E76F51"/>
<path d="M1707 63.0063C1707 77.918 1694.91 90.0064 1680 90.0064C1665.09 90.0064 1653 77.918 1653 63.0063C1653 48.0947 1665.09 36.0063 1680 36.0063C1694.91 36.0063 1707 48.0947 1707 63.0063Z" fill="#C0D6DF"/>
<path d="M1575 96.0063C1575 109.261 1564.03 120.006 1550.5 120.006C1536.97 120.006 1526 109.261 1526 96.0063C1526 82.7515 1536.97 72.0063 1550.5 72.0063C1564.03 72.0063 1575 82.7515 1575 96.0063Z" fill="white"/>
<path d="M1562 96.0063C1562 102.634 1556.63 108.006 1550 108.006C1543.37 108.006 1538 102.634 1538 96.0063C1538 89.3789 1543.37 84.0063 1550 84.0063C1556.63 84.0063 1562 89.3789 1562 96.0063Z" fill="#004662"/>
<path d="M1689 96.0063C1689 109.261 1678.48 120.006 1665.5 120.006C1652.52 120.006 1642 109.261 1642 96.0063C1642 82.7515 1652.52 72.0063 1665.5 72.0063C1678.48 72.0063 1689 82.7515 1689 96.0063Z" fill="white"/>
<path d="M1677 96.0063C1677 102.634 1671.63 108.006 1665 108.006C1658.37 108.006 1653 102.634 1653 96.0063C1653 89.3789 1658.37 84.0063 1665 84.0063C1671.63 84.0063 1677 89.3789 1677 96.0063Z" fill="#004662"/>
<path d="M1395 596.146C1395 589.852 1389.26 585.124 1383.08 586.332L1257 611V805L1395 778V596.146Z" fill="#E76F51"/>
<path d="M1419.5 619L1272 630V824L1419.5 813V619Z" fill="#FFECDB"/>
<path d="M1404.5 600L1257 611L1272 630L1419.5 619L1404.5 600Z" fill="#E9C46A"/>
<path d="M1272 630L1401.92 655.419C1406.61 656.337 1410 660.45 1410 665.233V838.853C1410 845.147 1404.26 849.876 1398.08 848.667L1272 824V630Z" fill="#E76F51"/>
<path d="M1257 611L1272 630V824L1257 805V611Z" fill="#004662"/>
<path d="M1375 695C1375 708.254 1364.03 719 1350.5 719C1336.97 719 1326 708.254 1326 695C1326 681.745 1336.97 671 1350.5 671C1364.03 671 1375 681.745 1375 695Z" fill="white"/>
<path d="M1362 695C1362 701.627 1356.63 707 1350 707C1343.37 707 1338 701.627 1338 695C1338 688.372 1343.37 683 1350 683C1356.63 683 1362 688.372 1362 695Z" fill="#004662"/>
<path d="M1489 695C1489 708.254 1478.48 719 1465.5 719C1452.52 719 1442 708.254 1442 695C1442 681.745 1452.52 671 1465.5 671C1478.48 671 1489 681.745 1489 695Z" fill="white"/>
<path d="M1477 695C1477 701.627 1471.63 707 1465 707C1458.37 707 1453 701.627 1453 695C1453 688.372 1458.37 683 1465 683C1471.63 683 1477 688.372 1477 695Z" fill="#004662"/>
<path d="M-24 152.759C-24 146.817 -19.3272 142 -13.5631 142H133.563C139.327 142 144 146.817 144 152.759V239.241C144 245.183 139.327 250 133.563 250H-13.5631C-19.3272 250 -24 245.183 -24 239.241V152.759Z" fill="#004662"/>
<path d="M-13 158.765C-13 155.581 -10.5248 153 -7.4715 153H127.471C130.525 153 133 155.581 133 158.765V234.235C133 237.419 130.525 240 127.471 240H-7.4715C-10.5248 240 -13 237.419 -13 234.235V158.765Z" fill="#FFECDB"/>
<path d="M157.132 266.783C147.935 262.315 137.91 260 127.761 260H-5.82431C-10.2865 260 -11.6307 266.316 -7.58656 268.28L47.8676 295.217C57.0651 299.685 67.0902 302 77.2385 302H210.824C215.287 302 216.631 295.684 212.587 293.72L157.132 266.783Z" fill="#004662"/>
<path d="M141.273 287.245C136.622 285.108 131.55 284 126.414 284H108.808C105.81 284 104.904 287.998 107.619 289.246L108.727 289.755C113.378 291.892 118.45 293 123.586 293H141.192C144.19 293 145.096 289.002 142.381 287.754L141.273 287.245Z" fill="#FFECDB"/>
<path d="M119 110.5C119 123.479 108.479 134 95.5 134C82.5213 134 72 123.479 72 110.5C72 97.5213 82.5213 87 95.5 87C108.479 87 119 97.5213 119 110.5Z" fill="white"/>
<path d="M107 110C107 116.627 101.851 122 95.5 122C89.1487 122 84 116.627 84 110C84 103.373 89.1487 98 95.5 98C101.851 98 107 103.373 107 110Z" fill="#004662"/>
<path d="M229 110.5C229 123.479 218.926 134 206.5 134C194.074 134 184 123.479 184 110.5C184 97.5213 194.074 87 206.5 87C218.926 87 229 97.5213 229 110.5Z" fill="white"/>
<path d="M218 110C218 116.627 212.851 122 206.5 122C200.149 122 195 116.627 195 110C195 103.373 200.149 98 206.5 98C212.851 98 218 103.373 218 110Z" fill="#004662"/>
<path d="M77 556.859C77 550.862 81.8397 546 87.8097 546H240.19C246.16 546 251 550.862 251 556.859V644.141C251 650.138 246.16 655 240.19 655H87.8097C81.8397 655 77 650.138 77 644.141V556.859Z" fill="#FFECDB"/>
<path d="M88 562.765C88 559.581 90.56 557 93.7178 557H233.282C236.44 557 239 559.581 239 562.765V638.235C239 641.419 236.44 644 233.282 644H93.7178C90.56 644 88 641.419 88 638.235V562.765Z" fill="#2A9D8F"/>
<path d="M265.075 670.783C255.55 666.315 245.169 664 234.66 664H96.3242C91.7033 664 90.3113 670.316 94.4992 672.28L151.925 699.217C161.45 703.685 171.831 706 182.34 706H320.676C325.297 706 326.689 699.684 322.501 697.72L265.075 670.783Z" fill="#FFECDB"/>
<path d="M248.201 692.245C243.428 690.108 238.222 689 232.951 689H214.882C211.805 689 210.875 692.998 213.662 694.246L214.799 694.755C219.572 696.892 224.778 698 230.049 698H248.118C251.195 698 252.125 694.002 249.338 692.754L248.201 692.245Z" fill="#2A9D8F"/>
<path d="M190 620C190 633.255 179.031 644 165.5 644C151.969 644 141 633.255 141 620C141 606.745 151.969 596 165.5 596C179.031 596 190 606.745 190 620Z" fill="white"/>
<path d="M177 620C177 626.627 171.627 632 165 632C158.373 632 153 626.627 153 620C153 613.373 158.373 608 165 608C171.627 608 177 613.373 177 620Z" fill="#004662"/>
<path d="M304 620.5C304 634.031 293.479 645 280.5 645C267.521 645 257 634.031 257 620.5C257 606.969 267.521 596 280.5 596C293.479 596 304 606.969 304 620.5Z" fill="white"/>
<path d="M293 620C293 626.627 287.404 632 280.5 632C273.596 632 268 626.627 268 620C268 613.373 273.596 608 280.5 608C287.404 608 293 613.373 293 620Z" fill="#004662"/>
<path d="M1148.31 184.28L1220.08 153.8C1228.83 150.082 1238.94 154.165 1242.66 162.92V162.92C1246.38 171.675 1242.3 181.786 1233.54 185.505L1161.77 215.985L1148.31 184.28Z" fill="#965B24"/>
<path d="M1148.31 184.276L1216.5 155.315L1229.96 187.02L1161.77 215.981L1148.31 184.276Z" fill="#2A9D8F"/>
<path d="M1132.19 144.433C1132.19 154.062 1140 161.867 1149.63 161.867C1159.26 161.867 1167.06 154.062 1167.06 144.433C1167.06 134.805 1159.26 127 1149.63 127C1140 127 1132.19 134.805 1132.19 144.433Z" fill="#965B24"/>
<path d="M1157.1 181.751C1154.49 174.873 1144.76 174.873 1142.15 181.751L1116.5 249.238H1182.75L1157.1 181.751Z" fill="#2A9D8F"/>
<path fill-rule="evenodd" clip-rule="evenodd" d="M1247.25 420.084L1182.61 249.237H1116.65L1052 420.084H1108.73L1149.63 311.997L1190.52 420.084H1247.25Z" fill="#D73C15"/>
<path fill-rule="evenodd" clip-rule="evenodd" d="M1108.73 420.085H1052L1116.65 249.238H1173.37L1108.73 420.085Z" fill="#E76F51"/>
<path d="M1056.57 433.133H1094.3C1111.97 433.133 1126.3 447.46 1126.3 465.133V468H1064.57C1060.15 468 1056.57 464.418 1056.57 460V433.133Z" fill="#965B24"/>
<path d="M1195.16 433.133H1232.89C1250.57 433.133 1264.89 447.46 1264.89 465.133V468H1203.16C1198.74 468 1195.16 464.418 1195.16 460V433.133Z" fill="#965B24"/>
<path d="M1134 112.5C1134 130.449 1119.45 145 1101.5 145C1083.55 145 1069 130.449 1069 112.5C1069 94.5507 1083.55 80 1101.5 80C1119.45 80 1134 94.5507 1134 112.5Z" fill="black"/>
<path d="M1798.35 430.403L1698.48 387.987C1685.41 382.437 1670.32 388.532 1664.77 401.601V401.601C1659.22 414.671 1665.31 429.765 1678.38 435.316L1778.25 477.732L1798.35 430.403Z" fill="#EECCA4"/>
<path d="M1799.25 430.94L1711.82 393.806L1691.72 441.135L1779.15 478.269L1799.25 430.94Z" fill="#E76F51"/>
<path d="M1797.09 430.403L1896.96 387.987C1910.03 382.437 1925.12 388.532 1930.67 401.601V401.601C1936.23 414.671 1930.13 429.765 1917.06 435.316L1817.19 477.732L1797.09 430.403Z" fill="#EECCA4"/>
<path d="M1796.19 430.94L1886.21 392.711L1906.31 440.039L1816.29 478.269L1796.19 430.94Z" fill="#E76F51"/>
<path d="M1789.8 427.034C1792.42 420.156 1802.15 420.156 1804.76 427.034L1846.73 537.477H1747.84L1789.8 427.034Z" fill="#E76F51"/>
<path fill-rule="evenodd" clip-rule="evenodd" d="M1651.54 792.519L1748.05 537.478H1846.52L1943.02 792.519H1858.33L1797.28 631.166L1736.23 792.519H1651.54Z" fill="#E9C46A"/>
<path fill-rule="evenodd" clip-rule="evenodd" d="M1858.34 792.519H1943.02L1846.52 537.478H1761.83L1858.34 792.519Z" fill="#E9C46A"/>
<path d="M1768.75 452L1715 410.754C1723.96 399.584 1749.93 369.509 1782.18 338.575C1822.49 299.907 1862.8 377.242 1849.36 410.754C1838.62 437.564 1791.14 449.422 1768.75 452Z" fill="#2A9D8F"/>
<path d="M1823.31 381.025C1823.31 395.398 1811.66 407.049 1797.28 407.049C1782.91 407.049 1771.26 395.398 1771.26 381.025C1771.26 366.652 1782.91 355 1797.28 355C1811.66 355 1823.31 366.652 1823.31 381.025Z" fill="#EECCA4"/>
<path d="M1956.41 843.999C1956.41 826.325 1942.09 811.999 1924.41 811.999H1884.31C1866.64 811.999 1852.31 826.325 1852.31 843.999V856.048C1852.31 860.466 1855.9 864.048 1860.31 864.048H1948.41C1952.83 864.048 1956.41 860.466 1956.41 856.048V843.999Z" fill="#2A9D8F"/>
<path d="M1734.1 843.999C1734.1 826.325 1719.77 811.999 1702.1 811.999H1662C1644.33 811.999 1630 826.325 1630 843.999V856.048C1630 860.466 1633.58 864.048 1638 864.048H1726.1C1730.52 864.048 1734.1 860.466 1734.1 856.048V843.999Z" fill="#2A9D8F"/>
<path d="M976.025 915.804L1044.88 875.062C1060.09 866.062 1079.71 871.096 1088.71 886.306L1100.94 906.962L1011.43 959.926C1007.63 962.176 1002.72 960.918 1000.47 957.115L976.025 915.804Z" fill="#622F00"/>
<path d="M831.921 799C823.128 799 816 791.859 816 783.05V715H958V799H831.921Z" fill="#FFECDB"/>
<path d="M711 943.028H897.63V820.326C897.63 809.28 888.675 800.326 877.63 800.326H731C719.954 800.326 711 809.28 711 820.326V943.028Z" fill="#004662"/>
<path d="M884.96 756.301L958.239 714.705L1042.1 862.446L968.822 904.042L884.96 756.301Z" fill="#FFECDB"/>
<path d="M889.657 628.646L976.375 718.998C986.954 730.021 986.595 747.532 975.572 758.111V758.111C964.55 768.69 947.039 768.33 936.46 757.308L849.742 666.955L889.657 628.646Z" fill="#622F00"/>
<path fill-rule="evenodd" clip-rule="evenodd" d="M972.059 714.5L889.662 628.649L889.49 628.815L876.644 595.009C874.031 588.132 864.301 588.132 861.688 595.009L815.964 715.334L896.176 715.334L932.144 752.809L972.059 714.5Z" fill="#E9C46A"/>
<path d="M841.165 547.001C841.165 562.465 853.702 575.002 869.166 575.002C884.631 575.002 897.167 562.465 897.167 547.001C897.167 531.536 884.631 519 869.166 519C853.702 519 841.165 531.536 841.165 547.001Z" fill="#622F00"/>
<path d="M797.725 92.8677L822.515 53L831.968 58.8782L807.178 98.7458L797.725 92.8677Z" fill="#E76F51"/>
<path d="M839.856 170.182L886.67 173.714L885.833 184.814L839.019 181.282L839.856 170.182Z" fill="#E76F51"/>
<path d="M831.237 122.967L874.946 105.834L879.009 116.198L835.3 133.331L831.237 122.967Z" fill="#E76F51"/>
<path d="M821.938 217.024L861.797 241.828L855.916 251.279L816.056 226.475L821.938 217.024Z" fill="#E76F51"/>
<path d="M646.081 207.746L641.715 184.006L766.988 92.7051L791.822 227.725L646.081 207.746Z" fill="#E9C46A"/>
<path fill-rule="evenodd" clip-rule="evenodd" d="M771.568 193.949C760.809 210.405 736.424 210.601 725.78 193.915L731.885 190.021C739.631 202.165 757.554 202.152 765.508 189.987L771.568 193.949Z" fill="#E76F51"/>
<path d="M626 187.404L635.656 185.628L639.902 208.718L630.246 210.494L626 187.404Z" fill="#E9C46A"/>
<path d="M740.592 152.059C740.592 165.386 729.788 176.19 716.461 176.19C703.134 176.19 692.33 165.386 692.33 152.059C692.33 138.732 703.134 127.928 716.461 127.928C729.788 127.928 740.592 138.732 740.592 152.059Z" fill="white"/>
<path d="M728.527 152.059C728.527 158.722 723.125 164.124 716.461 164.124C709.797 164.124 704.396 158.722 704.396 152.059C704.396 145.395 709.797 139.993 716.461 139.993C723.125 139.993 728.527 145.395 728.527 152.059Z" fill="#004662"/>
<path d="M816.502 152.059C816.502 165.386 805.699 176.19 792.371 176.19C779.044 176.19 768.24 165.386 768.24 152.059C768.24 138.732 779.044 127.928 792.371 127.928C805.699 127.928 816.502 138.732 816.502 152.059Z" fill="white"/>
<path d="M804.438 150.611C804.438 157.275 799.036 162.677 792.372 162.677C785.709 162.677 780.307 157.275 780.307 150.611C780.307 143.947 785.709 138.545 792.372 138.545C799.036 138.545 804.438 143.947 804.438 150.611Z" fill="#004662"/>
</g>
<defs>
<clipPath id="clip0">
<rect width="1920" height="1080" fill="white"/>
</clipPath>
</defs>
</svg>
