<svg width="1920" height="1080" viewBox="0 0 1920 1080" fill="none" xmlns="http://www.w3.org/2000/svg">
<g clip-path="url(#clip0)">
<rect width="1920" height="1080" fill="white"/>
<path d="M320 540H0V1080H320V540Z" fill="#004662"/>
<path d="M640 0H320V1080H640V0Z" fill="#2A9D8F"/>
<path d="M960 0H640V1080H960V0Z" fill="#E9C46A"/>
<path d="M1280 0H960V1080H1280V0Z" fill="#F4A261"/>
<path d="M1600 540H1280V1080H1600V540Z" fill="#E76F51"/>
<path d="M320 0H0V540H320V0Z" fill="#BFDFED"/>
<path d="M1600 0H1280V540H1600V0Z" fill="#FFECDB"/>
<path d="M1920 0H1600V540H1920V0Z" fill="white"/>
<path d="M1920 540H1600V1080H1920V540Z" fill="black"/>
<path d="M1765.11 888.936L1766.3 905.007L1769.28 892.97H1771.54L1774.53 905.007L1775.71 888.936H1778.27L1776.39 908.671H1773.32L1770.41 897.084L1767.51 908.671H1764.45L1762.54 888.936H1765.11V888.936Z" fill="white"/>
<path fill-rule="evenodd" clip-rule="evenodd" d="M1761.99 888.436H1765.11V888.936L1765.61 888.899L1766.57 901.848L1768.89 892.47H1771.93L1774.26 901.848L1775.24 888.436H1778.82L1776.84 909.171H1772.93L1770.41 899.142L1767.9 909.171H1763.99L1761.99 888.436ZM1764.65 889.436H1763.1L1764.9 908.171H1767.12L1770.41 895.027L1773.71 908.171H1775.93L1777.72 889.436H1776.17L1774.79 908.166L1771.15 893.47H1769.68L1766.03 908.166L1764.65 889.436Z" fill="white"/>
<path d="M1741.74 888.936H1744.22V901.996C1744.22 903.34 1744.62 904.428 1745.4 905.273C1746.18 906.11 1747.3 906.521 1748.74 906.521C1750.17 906.521 1751.28 906.11 1752.07 905.273C1752.85 904.436 1753.25 903.349 1753.25 901.996V888.936H1755.73V901.819C1755.73 904.017 1755.07 905.756 1753.75 907.004C1752.45 908.252 1750.76 908.888 1748.74 908.888C1746.72 908.888 1745.04 908.252 1743.72 907.004C1742.41 905.748 1741.75 904.017 1741.75 901.819V888.936H1741.74Z" fill="white"/>
<path fill-rule="evenodd" clip-rule="evenodd" d="M1741.74 888.936V888.436H1744.72V901.996C1744.72 903.232 1745.08 904.192 1745.77 904.933C1746.43 905.642 1747.4 906.021 1748.73 906.021C1750.07 906.021 1751.03 905.642 1751.7 904.931C1752.39 904.2 1752.75 903.241 1752.75 901.996V888.436H1756.23V901.819C1756.23 904.121 1755.54 906.004 1754.1 907.366C1752.69 908.713 1750.88 909.388 1748.74 909.388C1746.61 909.388 1744.8 908.713 1743.38 907.368L1743.37 907.364C1741.95 905.995 1741.25 904.123 1741.25 901.819V888.936H1741.74ZM1742.25 889.436V901.819C1742.25 903.91 1742.88 905.499 1744.06 906.642C1745.28 907.792 1746.84 908.388 1748.74 908.388C1750.65 908.388 1752.21 907.792 1753.41 906.643L1753.41 906.641C1754.61 905.507 1755.23 903.912 1755.23 901.819V889.436H1753.75V901.996C1753.75 903.455 1753.31 904.671 1752.43 905.614L1752.43 905.616C1751.53 906.579 1750.27 907.021 1748.73 907.021C1747.2 907.021 1745.94 906.579 1745.04 905.614L1745.03 905.612C1744.16 904.662 1743.72 903.448 1743.72 901.996V889.436H1742.25Z" fill="white"/>
<path d="M1791.43 919.139H1727.82V921.554H1791.43V919.139Z" fill="white"/>
<path d="M1768.99 940.476L1763.65 931.345H1766.5L1770.42 938.061L1774.34 931.345H1777.17L1771.82 940.484L1778.05 951.081H1775.2L1770.41 942.908L1765.62 951.081H1762.77L1768.99 940.476Z" fill="white"/>
<path fill-rule="evenodd" clip-rule="evenodd" d="M1762.78 930.845H1766.78L1770.42 937.069L1774.05 930.845H1778.05L1772.4 940.484L1778.93 951.581H1774.92L1770.41 943.897L1765.91 951.581H1761.9L1768.41 940.476L1762.78 930.845ZM1764.52 931.845L1769.57 940.476L1763.64 950.581H1765.33L1770.41 941.919L1775.49 950.581H1777.18L1771.24 940.485L1776.3 931.845H1774.63L1770.42 939.052L1766.21 931.845H1764.52Z" fill="white"/>
<path d="M1741.73 931.345H1744.21V944.405C1744.21 945.75 1744.61 946.837 1745.39 947.683C1746.18 948.52 1747.29 948.931 1748.73 948.931C1750.16 948.931 1751.27 948.52 1752.06 947.683C1752.84 946.845 1753.24 945.758 1753.24 944.405V931.345H1755.72V944.228C1755.72 946.427 1755.06 948.166 1753.74 949.414C1752.44 950.662 1750.76 951.298 1748.74 951.298C1746.71 951.298 1745.03 950.662 1743.71 949.414C1742.41 948.158 1741.75 946.427 1741.75 944.228V931.345H1741.73Z" fill="white"/>
<path fill-rule="evenodd" clip-rule="evenodd" d="M1741.73 931.345V930.845H1744.71V944.405C1744.71 945.642 1745.08 946.602 1745.76 947.342C1746.42 948.051 1747.39 948.431 1748.73 948.431C1750.06 948.431 1751.02 948.052 1751.7 947.341C1752.38 946.609 1752.74 945.651 1752.74 944.405V930.845H1756.22V944.228C1756.22 946.531 1755.53 948.414 1754.09 949.776C1752.68 951.123 1750.87 951.798 1748.74 951.798C1746.6 951.798 1744.79 951.122 1743.37 949.777L1743.36 949.774C1741.94 948.405 1741.25 946.533 1741.25 944.228V931.345H1741.73ZM1742.25 931.845V944.228C1742.25 946.32 1742.87 947.909 1744.06 949.052C1745.27 950.202 1746.83 950.798 1748.74 950.798C1750.64 950.798 1752.2 950.201 1753.4 949.053L1753.4 949.05C1754.6 947.917 1755.22 946.321 1755.22 944.228V931.845H1753.74V944.405C1753.74 945.865 1753.31 947.08 1752.43 948.024L1752.42 948.026C1751.52 948.988 1750.26 949.431 1748.73 949.431C1747.2 949.431 1745.93 948.989 1745.03 948.024L1745.03 948.022C1744.15 947.072 1743.71 945.858 1743.71 944.405V931.845H1742.25Z" fill="white"/>
<path d="M1760 982C1725.81 982 1698 954.189 1698 920C1698 885.811 1725.81 858 1760 858C1794.19 858 1822 885.811 1822 920C1822 954.189 1794.19 982 1760 982ZM1760 861.221C1727.59 861.221 1701.22 887.591 1701.22 920C1701.22 952.409 1727.59 978.779 1760 978.779C1792.41 978.779 1818.78 952.409 1818.78 920C1818.78 887.591 1792.42 861.221 1760 861.221Z" fill="white"/>
<path d="M539.488 998.208H612.928C616.96 987.648 621.28 978.912 625.888 972L640 972.288V1075.1L629.92 1075.39C626.464 1069.82 623.296 1063.49 620.416 1056.38H539.2V1078.85L523.072 1079.14L512.128 1062.72L508.096 1056.38H489.376C470.944 1056.38 455.392 1050.34 442.72 1038.24C430.048 1026.14 423.712 1011.36 423.712 993.888C423.712 978.912 428.416 963.456 437.824 947.52L488.224 976.896C476.512 988.992 466.24 1003.39 457.408 1020.1L503.488 998.784V965.952L519.616 965.664L539.488 980.64V998.208Z" fill="#E9C46A"/>
<path d="M621.28 808.348L644.896 849.532C644.896 862.588 637.792 873.34 623.584 881.788L643.456 911.74L644.32 922.684C644.32 935.548 640.576 946.3 633.088 954.94C625.408 963.58 616.48 967.9 606.304 967.9C599.776 967.9 593.344 965.884 587.008 961.852C580.48 957.628 575.2 951.484 571.168 943.42L570.016 889.276H548.416C534.208 889.276 524.8 893.596 520.192 902.236C520.576 906.46 521.536 910.012 523.072 912.892L555.328 921.244L555.616 954.076C544.48 957.34 533.728 958.972 523.36 958.972L509.248 957.82C504.832 945.532 501.28 931.708 498.592 916.348C495.904 900.796 494.56 888.316 494.56 878.908C494.56 860.284 501.664 845.596 515.872 834.844C519.328 832.54 528.16 831.388 542.368 831.388H599.968C605.92 831.388 608.896 829.084 608.896 824.476L608.608 814.972L608.32 809.212L621.28 808.348ZM601.984 911.452C606.784 911.452 610.816 910.012 614.08 907.132L610.336 889.276H588.736C588.736 904.06 593.152 911.452 601.984 911.452Z" fill="#E9C46A"/>
<path d="M614.656 726.253C618.112 717.997 621.856 711.085 625.888 705.517L640 705.805V805.741L629.92 806.029C626.08 799.885 622.528 792.589 619.264 784.141H458.848L453.376 805.741L438.976 806.316C432.64 788.076 428.896 767.053 427.744 743.245L443.296 726.253H614.656Z" fill="#E9C46A"/>
<path d="M614.656 619.94C618.112 611.684 621.856 604.772 625.888 599.204L640 599.492V699.428L629.92 699.716C626.08 693.572 622.528 686.276 619.264 677.828H458.848L453.376 699.428L438.976 700.004C432.64 681.764 428.896 660.74 427.744 636.932L443.296 619.94H614.656Z" fill="#E9C46A"/>
<path d="M576.352 351.297C597.088 352.065 618.304 355.617 640 361.953L639.712 368.577H640V502.785L611.776 509.121L546.4 447.489C526.432 429.825 510.688 420.993 499.168 420.993C492.256 420.993 486.592 423.201 482.176 427.617C477.76 431.841 475.168 437.985 474.4 446.049L528.256 462.753V499.329C514.24 503.553 496.48 505.665 474.976 505.665L466.912 505.377C453.664 482.529 447.04 459.009 447.04 434.817C447.04 413.505 452.704 396.129 464.032 382.689C475.168 369.057 489.28 362.241 506.368 362.241C517.312 362.241 528.352 365.697 539.488 372.609C550.624 379.521 564.448 391.521 580.96 408.609L614.944 443.457L616.96 442.305L608.608 402.561L569.728 375.489L576.352 351.297Z" fill="#E9C46A"/>
<path d="M546.112 347.51C517.504 347.51 493.984 339.638 475.552 323.894C456.928 307.958 447.616 287.894 447.616 263.702C447.616 239.702 456.736 219.926 474.976 204.374C493.216 188.63 516.832 180.758 545.824 180.758C575.392 180.758 599.296 188.246 617.536 203.222C635.776 218.198 644.896 238.166 644.896 263.126C644.896 288.278 635.68 308.63 617.248 324.182C598.624 339.734 574.912 347.51 546.112 347.51ZM478.144 274.07C483.328 278.102 492.064 281.27 504.352 283.574C516.64 285.878 529.6 287.03 543.232 287.03C562.24 287.03 578.944 284.726 593.344 280.118C607.552 275.318 614.656 268.31 614.656 259.094C614.656 256.982 614.272 254.87 613.504 252.758C607.744 248.918 599.104 245.942 587.584 243.83C575.872 241.526 563.296 240.374 549.856 240.374C530.272 240.374 513.376 242.774 499.168 247.574C484.768 252.182 477.568 258.998 477.568 268.022L478.144 274.07Z" fill="#E9C46A"/>
<path d="M576.352 13.7968C597.088 14.5648 618.304 18.1168 640 24.4528L639.712 31.0768H640V165.285L611.776 171.621L546.4 109.989C526.432 92.3248 510.688 83.4927 499.168 83.4927C492.256 83.4927 486.592 85.7008 482.176 90.1168C477.76 94.3408 475.168 100.485 474.4 108.549L528.256 125.253V161.829C514.24 166.053 496.48 168.165 474.976 168.165L466.912 167.877C453.664 145.029 447.04 121.509 447.04 97.3168C447.04 76.0048 452.704 58.6287 464.032 45.1887C475.168 31.5567 489.28 24.7407 506.368 24.7407C517.312 24.7407 528.352 28.1968 539.488 35.1088C550.624 42.0208 564.448 54.0208 580.96 71.1088L614.944 105.957L616.96 104.805L608.608 65.0607L569.728 37.9888L576.352 13.7968Z" fill="#E9C46A"/>
<path d="M546.112 10.01C517.504 10.01 493.984 2.13804 475.552 -13.606C456.928 -29.542 447.616 -49.606 447.616 -73.798C447.616 -97.798 456.736 -117.574 474.976 -133.126C493.216 -148.87 516.832 -156.742 545.824 -156.742C575.392 -156.742 599.296 -149.254 617.536 -134.278C635.776 -119.302 644.896 -99.334 644.896 -74.374C644.896 -49.222 635.68 -28.87 617.248 -13.318C598.624 2.23401 574.912 10.01 546.112 10.01ZM478.144 -63.4301C483.328 -59.3981 492.064 -56.23 504.352 -53.926C516.64 -51.622 529.6 -50.47 543.232 -50.47C562.24 -50.47 578.944 -52.774 593.344 -57.382C607.552 -62.182 614.656 -69.19 614.656 -78.406C614.656 -80.518 614.272 -82.6299 613.504 -84.7419C607.744 -88.5819 599.104 -91.558 587.584 -93.67C575.872 -95.974 563.296 -97.126 549.856 -97.126C530.272 -97.126 513.376 -94.726 499.168 -89.926C484.768 -85.318 477.568 -78.502 477.568 -69.478L478.144 -63.4301Z" fill="#E9C46A"/>
<path d="M859.488 2084.21H932.928C936.96 2073.65 941.28 2064.91 945.888 2058L960 2058.29V2161.1L949.92 2161.39C946.464 2155.82 943.296 2149.49 940.416 2142.38H859.2V2164.85L843.072 2165.14L832.128 2148.72L828.096 2142.38H809.376C790.944 2142.38 775.392 2136.34 762.72 2124.24C750.048 2112.14 743.712 2097.36 743.712 2079.89C743.712 2064.91 748.416 2049.46 757.824 2033.52L808.224 2062.9C796.512 2074.99 786.24 2089.39 777.408 2106.1L823.488 2084.78V2051.95L839.616 2051.66L859.488 2066.64V2084.21Z" fill="#F4A261"/>
<path d="M941.28 1894.35L964.896 1935.53C964.896 1948.59 957.792 1959.34 943.584 1967.79L963.456 1997.74L964.32 2008.68C964.32 2021.55 960.576 2032.3 953.088 2040.94C945.408 2049.58 936.48 2053.9 926.304 2053.9C919.776 2053.9 913.344 2051.88 907.008 2047.85C900.48 2043.63 895.2 2037.48 891.168 2029.42L890.016 1975.28H868.416C854.208 1975.28 844.8 1979.6 840.192 1988.24C840.576 1992.46 841.536 1996.01 843.072 1998.89L875.328 2007.24L875.616 2040.08C864.48 2043.34 853.728 2044.97 843.36 2044.97L829.248 2043.82C824.832 2031.53 821.28 2017.71 818.592 2002.35C815.904 1986.8 814.56 1974.32 814.56 1964.91C814.56 1946.28 821.664 1931.6 835.872 1920.84C839.328 1918.54 848.16 1917.39 862.368 1917.39H919.968C925.92 1917.39 928.896 1915.08 928.896 1910.48L928.608 1900.97L928.32 1895.21L941.28 1894.35ZM921.984 1997.45C926.784 1997.45 930.816 1996.01 934.08 1993.13L930.336 1975.28H908.736C908.736 1990.06 913.152 1997.45 921.984 1997.45Z" fill="#F4A261"/>
<path d="M934.656 1812.25C938.112 1804 941.856 1797.08 945.888 1791.52L960 1791.8V1891.74L949.92 1892.03C946.08 1885.88 942.528 1878.59 939.264 1870.14H778.848L773.376 1891.74L758.976 1892.32C752.64 1874.08 748.896 1853.05 747.744 1829.24L763.296 1812.25H934.656Z" fill="#F4A261"/>
<path d="M934.656 1705.94C938.112 1697.68 941.856 1690.77 945.888 1685.2L960 1685.49V1785.43L949.92 1785.72C946.08 1779.57 942.528 1772.28 939.264 1763.83H778.848L773.376 1785.43L758.976 1786C752.64 1767.76 748.896 1746.74 747.744 1722.93L763.296 1705.94H934.656Z" fill="#F4A261"/>
<path d="M896.352 1437.3C917.088 1438.06 938.304 1441.62 960 1447.95L959.712 1454.58H960V1588.78L931.776 1595.12L866.4 1533.49C846.432 1515.82 830.688 1506.99 819.168 1506.99C812.256 1506.99 806.592 1509.2 802.176 1513.62C797.76 1517.84 795.168 1523.98 794.4 1532.05L848.256 1548.75V1585.33C834.24 1589.55 816.48 1591.66 794.976 1591.66L786.912 1591.38C773.664 1568.53 767.04 1545.01 767.04 1520.82C767.04 1499.5 772.704 1482.13 784.032 1468.69C795.168 1455.06 809.28 1448.24 826.368 1448.24C837.312 1448.24 848.352 1451.7 859.488 1458.61C870.624 1465.52 884.448 1477.52 900.96 1494.61L934.944 1529.46L936.96 1528.3L928.608 1488.56L889.728 1461.49L896.352 1437.3Z" fill="#F4A261"/>
<path d="M866.112 1433.51C837.504 1433.51 813.984 1425.64 795.552 1409.89C776.928 1393.96 767.616 1373.89 767.616 1349.7C767.616 1325.7 776.736 1305.93 794.976 1290.37C813.216 1274.63 836.832 1266.76 865.824 1266.76C895.392 1266.76 919.296 1274.25 937.536 1289.22C955.776 1304.2 964.896 1324.17 964.896 1349.13C964.896 1374.28 955.68 1394.63 937.248 1410.18C918.624 1425.73 894.912 1433.51 866.112 1433.51ZM798.144 1360.07C803.328 1364.1 812.064 1367.27 824.352 1369.57C836.64 1371.88 849.6 1373.03 863.232 1373.03C882.24 1373.03 898.944 1370.73 913.344 1366.12C927.552 1361.32 934.656 1354.31 934.656 1345.09C934.656 1342.98 934.272 1340.87 933.504 1338.76C927.744 1334.92 919.104 1331.94 907.584 1329.83C895.872 1327.53 883.296 1326.37 869.856 1326.37C850.272 1326.37 833.376 1328.77 819.168 1333.57C804.768 1338.18 797.568 1345 797.568 1354.02L798.144 1360.07Z" fill="#F4A261"/>
<path d="M896.352 1099.8C917.088 1100.56 938.304 1104.12 960 1110.45L959.712 1117.08H960V1251.28L931.776 1257.62L866.4 1195.99C846.432 1178.32 830.688 1169.49 819.168 1169.49C812.256 1169.49 806.592 1171.7 802.176 1176.12C797.76 1180.34 795.168 1186.48 794.4 1194.55L848.256 1211.25V1247.83C834.24 1252.05 816.48 1254.16 794.976 1254.16L786.912 1253.88C773.664 1231.03 767.04 1207.51 767.04 1183.32C767.04 1162 772.704 1144.63 784.032 1131.19C795.168 1117.56 809.28 1110.74 826.368 1110.74C837.312 1110.74 848.352 1114.2 859.488 1121.11C870.624 1128.02 884.448 1140.02 900.96 1157.11L934.944 1191.96L936.96 1190.8L928.608 1151.06L889.728 1123.99L896.352 1099.8Z" fill="#F4A261"/>
<path d="M866.112 1096.01C837.504 1096.01 813.984 1088.14 795.552 1072.39C776.928 1056.46 767.616 1036.39 767.616 1012.2C767.616 988.202 776.736 968.426 794.976 952.874C813.216 937.13 836.832 929.258 865.824 929.258C895.392 929.258 919.296 936.746 937.536 951.722C955.776 966.698 964.896 986.666 964.896 1011.63C964.896 1036.78 955.68 1057.13 937.248 1072.68C918.624 1088.23 894.912 1096.01 866.112 1096.01ZM798.144 1022.57C803.328 1026.6 812.064 1029.77 824.352 1032.07C836.64 1034.38 849.6 1035.53 863.232 1035.53C882.24 1035.53 898.944 1033.23 913.344 1028.62C927.552 1023.82 934.656 1016.81 934.656 1007.59C934.656 1005.48 934.272 1003.37 933.504 1001.26C927.744 997.418 919.104 994.442 907.584 992.33C895.872 990.026 883.296 988.874 869.856 988.874C850.272 988.874 833.376 991.274 819.168 996.074C804.768 1000.68 797.568 1007.5 797.568 1016.52L798.144 1022.57Z" fill="#F4A261"/>
<path d="M859.488 776.208H932.928C936.96 765.648 941.28 756.912 945.888 750L960 750.288V853.104L949.92 853.392C946.464 847.824 943.296 841.488 940.416 834.384H859.2V856.848L843.072 857.136L832.128 840.72L828.096 834.384H809.376C790.944 834.384 775.392 828.336 762.72 816.24C750.048 804.144 743.712 789.36 743.712 771.888C743.712 756.912 748.416 741.456 757.824 725.52L808.224 754.896C796.512 766.992 786.24 781.392 777.408 798.096L823.488 776.784V743.952L839.616 743.664L859.488 758.64V776.208Z" fill="#F4A261"/>
<path d="M941.28 586.348L964.896 627.532C964.896 640.588 957.792 651.34 943.584 659.788L963.456 689.74L964.32 700.684C964.32 713.548 960.576 724.3 953.088 732.94C945.408 741.58 936.48 745.9 926.304 745.9C919.776 745.9 913.344 743.884 907.008 739.852C900.48 735.628 895.2 729.484 891.168 721.42L890.016 667.276H868.416C854.208 667.276 844.8 671.596 840.192 680.236C840.576 684.46 841.536 688.012 843.072 690.892L875.328 699.244L875.616 732.076C864.48 735.34 853.728 736.972 843.36 736.972L829.248 735.82C824.832 723.532 821.28 709.708 818.592 694.348C815.904 678.796 814.56 666.316 814.56 656.908C814.56 638.284 821.664 623.596 835.872 612.844C839.328 610.54 848.16 609.388 862.368 609.388H919.968C925.92 609.388 928.896 607.084 928.896 602.476L928.608 592.972L928.32 587.212L941.28 586.348ZM921.984 689.452C926.784 689.452 930.816 688.012 934.08 685.132L930.336 667.276H908.736C908.736 682.06 913.152 689.452 921.984 689.452Z" fill="#F4A261"/>
<path d="M934.656 504.253C938.112 495.997 941.856 489.085 945.888 483.517L960 483.805V583.741L949.92 584.029C946.08 577.885 942.528 570.589 939.264 562.141H778.848L773.376 583.741L758.976 584.316C752.64 566.076 748.896 545.053 747.744 521.245L763.296 504.253H934.656Z" fill="#F4A261"/>
<path d="M934.656 397.94C938.112 389.684 941.856 382.772 945.888 377.204L960 377.492V477.428L949.92 477.716C946.08 471.572 942.528 464.276 939.264 455.828H778.848L773.376 477.428L758.976 478.004C752.64 459.764 748.896 438.74 747.744 414.932L763.296 397.94H934.656Z" fill="#F4A261"/>
<path d="M896.352 129.297C917.088 130.065 938.304 133.617 960 139.953L959.712 146.577H960V280.785L931.776 287.121L866.4 225.489C846.432 207.825 830.688 198.993 819.168 198.993C812.256 198.993 806.592 201.201 802.176 205.617C797.76 209.841 795.168 215.985 794.4 224.049L848.256 240.753V277.329C834.24 281.553 816.48 283.665 794.976 283.665L786.912 283.377C773.664 260.529 767.04 237.009 767.04 212.817C767.04 191.505 772.704 174.129 784.032 160.689C795.168 147.057 809.28 140.241 826.368 140.241C837.312 140.241 848.352 143.697 859.488 150.609C870.624 157.521 884.448 169.521 900.96 186.609L934.944 221.457L936.96 220.305L928.608 180.561L889.728 153.489L896.352 129.297Z" fill="#F4A261"/>
<path d="M866.112 125.51C837.504 125.51 813.984 117.638 795.552 101.894C776.928 85.958 767.616 65.894 767.616 41.702C767.616 17.702 776.736 -2.07398 794.976 -17.626C813.216 -33.37 836.832 -41.242 865.824 -41.242C895.392 -41.242 919.296 -33.754 937.536 -18.778C955.776 -3.80202 964.896 16.166 964.896 41.126C964.896 66.278 955.68 86.63 937.248 102.182C918.624 117.734 894.912 125.51 866.112 125.51ZM798.144 52.07C803.328 56.102 812.064 59.27 824.352 61.574C836.64 63.878 849.6 65.03 863.232 65.03C882.24 65.03 898.944 62.726 913.344 58.118C927.552 53.318 934.656 46.31 934.656 37.094C934.656 34.982 934.272 32.87 933.504 30.758C927.744 26.918 919.104 23.942 907.584 21.83C895.872 19.526 883.296 18.374 869.856 18.374C850.272 18.374 833.376 20.774 819.168 25.574C804.768 30.182 797.568 36.998 797.568 46.022L798.144 52.07Z" fill="#F4A261"/>
<path d="M896.352 -208.203C917.088 -207.435 938.304 -203.883 960 -197.547L959.712 -190.923H960V-56.7153L931.776 -50.3793L866.4 -112.011C846.432 -129.675 830.688 -138.507 819.168 -138.507C812.256 -138.507 806.592 -136.299 802.176 -131.883C797.76 -127.659 795.168 -121.515 794.4 -113.451L848.256 -96.7473V-60.1713C834.24 -55.9473 816.48 -53.8353 794.976 -53.8353L786.912 -54.1232C773.664 -76.9712 767.04 -100.491 767.04 -124.683C767.04 -145.995 772.704 -163.371 784.032 -176.811C795.168 -190.443 809.28 -197.259 826.368 -197.259C837.312 -197.259 848.352 -193.803 859.488 -186.891C870.624 -179.979 884.448 -167.979 900.96 -150.891L934.944 -116.043L936.96 -117.195L928.608 -156.939L889.728 -184.011L896.352 -208.203Z" fill="#F4A261"/>
<path d="M866.112 -211.99C837.504 -211.99 813.984 -219.862 795.552 -235.606C776.928 -251.542 767.616 -271.606 767.616 -295.798C767.616 -319.798 776.736 -339.574 794.976 -355.126C813.216 -370.87 836.832 -378.742 865.824 -378.742C895.392 -378.742 919.296 -371.254 937.536 -356.278C955.776 -341.302 964.896 -321.334 964.896 -296.374C964.896 -271.222 955.68 -250.87 937.248 -235.318C918.624 -219.766 894.912 -211.99 866.112 -211.99ZM798.144 -285.43C803.328 -281.398 812.064 -278.23 824.352 -275.926C836.64 -273.622 849.6 -272.47 863.232 -272.47C882.24 -272.47 898.944 -274.774 913.344 -279.382C927.552 -284.182 934.656 -291.19 934.656 -300.406C934.656 -302.518 934.272 -304.63 933.504 -306.742C927.744 -310.582 919.104 -313.558 907.584 -315.67C895.872 -317.974 883.296 -319.126 869.856 -319.126C850.272 -319.126 833.376 -316.726 819.168 -311.926C804.768 -307.318 797.568 -300.502 797.568 -291.478L798.144 -285.43Z" fill="#F4A261"/>
<path d="M1188.49 1861.21H1261.93C1265.96 1850.65 1270.28 1841.91 1274.89 1835L1289 1835.29V1938.1L1278.92 1938.39C1275.46 1932.82 1272.3 1926.49 1269.42 1919.38H1188.2V1941.85L1172.07 1942.14L1161.13 1925.72L1157.1 1919.38H1138.38C1119.94 1919.38 1104.39 1913.34 1091.72 1901.24C1079.05 1889.14 1072.71 1874.36 1072.71 1856.89C1072.71 1841.91 1077.42 1826.46 1086.82 1810.52L1137.22 1839.9C1125.51 1851.99 1115.24 1866.39 1106.41 1883.1L1152.49 1861.78V1828.95L1168.62 1828.66L1188.49 1843.64V1861.21Z" fill="#E76F51"/>
<path d="M1270.28 1671.35L1293.9 1712.53C1293.9 1725.59 1286.79 1736.34 1272.58 1744.79L1292.46 1774.74L1293.32 1785.68C1293.32 1798.55 1289.58 1809.3 1282.09 1817.94C1274.41 1826.58 1265.48 1830.9 1255.3 1830.9C1248.78 1830.9 1242.34 1828.88 1236.01 1824.85C1229.48 1820.63 1224.2 1814.48 1220.17 1806.42L1219.02 1752.28H1197.42C1183.21 1752.28 1173.8 1756.6 1169.19 1765.24C1169.58 1769.46 1170.54 1773.01 1172.07 1775.89L1204.33 1784.24L1204.62 1817.08C1193.48 1820.34 1182.73 1821.97 1172.36 1821.97L1158.25 1820.82C1153.83 1808.53 1150.28 1794.71 1147.59 1779.35C1144.9 1763.8 1143.56 1751.32 1143.56 1741.91C1143.56 1723.28 1150.66 1708.6 1164.87 1697.84C1168.33 1695.54 1177.16 1694.39 1191.37 1694.39H1248.97C1254.92 1694.39 1257.9 1692.08 1257.9 1687.48L1257.61 1677.97L1257.32 1672.21L1270.28 1671.35ZM1250.98 1774.45C1255.78 1774.45 1259.82 1773.01 1263.08 1770.13L1259.34 1752.28H1237.74C1237.74 1767.06 1242.15 1774.45 1250.98 1774.45Z" fill="#E76F51"/>
<path d="M1263.66 1589.25C1267.11 1581 1270.86 1574.08 1274.89 1568.52L1289 1568.8V1668.74L1278.92 1669.03C1275.08 1662.88 1271.53 1655.59 1268.26 1647.14H1107.85L1102.38 1668.74L1087.98 1669.32C1081.64 1651.08 1077.9 1630.05 1076.74 1606.24L1092.3 1589.25H1263.66Z" fill="#E76F51"/>
<path d="M1263.66 1482.94C1267.11 1474.68 1270.86 1467.77 1274.89 1462.2L1289 1462.49V1562.43L1278.92 1562.72C1275.08 1556.57 1271.53 1549.28 1268.26 1540.83H1107.85L1102.38 1562.43L1087.98 1563C1081.64 1544.76 1077.9 1523.74 1076.74 1499.93L1092.3 1482.94H1263.66Z" fill="#E76F51"/>
<path d="M1225.35 1214.3C1246.09 1215.06 1267.3 1218.62 1289 1224.95L1288.71 1231.58H1289V1365.78L1260.78 1372.12L1195.4 1310.49C1175.43 1292.82 1159.69 1283.99 1148.17 1283.99C1141.26 1283.99 1135.59 1286.2 1131.18 1290.62C1126.76 1294.84 1124.17 1300.98 1123.4 1309.05L1177.26 1325.75V1362.33C1163.24 1366.55 1145.48 1368.66 1123.98 1368.66L1115.91 1368.38C1102.66 1345.53 1096.04 1322.01 1096.04 1297.82C1096.04 1276.5 1101.7 1259.13 1113.03 1245.69C1124.17 1232.06 1138.28 1225.24 1155.37 1225.24C1166.31 1225.24 1177.35 1228.7 1188.49 1235.61C1199.62 1242.52 1213.45 1254.52 1229.96 1271.61L1263.94 1306.46L1265.96 1305.3L1257.61 1265.56L1218.73 1238.49L1225.35 1214.3Z" fill="#E76F51"/>
<path d="M1195.11 1210.51C1166.5 1210.51 1142.98 1202.64 1124.55 1186.89C1105.93 1170.96 1096.62 1150.89 1096.62 1126.7C1096.62 1102.7 1105.74 1082.93 1123.98 1067.37C1142.22 1051.63 1165.83 1043.76 1194.82 1043.76C1224.39 1043.76 1248.3 1051.25 1266.54 1066.22C1284.78 1081.2 1293.9 1101.17 1293.9 1126.13C1293.9 1151.28 1284.68 1171.63 1266.25 1187.18C1247.62 1202.73 1223.91 1210.51 1195.11 1210.51ZM1127.14 1137.07C1132.33 1141.1 1141.06 1144.27 1153.35 1146.57C1165.64 1148.88 1178.6 1150.03 1192.23 1150.03C1211.24 1150.03 1227.94 1147.73 1242.34 1143.12C1256.55 1138.32 1263.66 1131.31 1263.66 1122.09C1263.66 1119.98 1263.27 1117.87 1262.5 1115.76C1256.74 1111.92 1248.1 1108.94 1236.58 1106.83C1224.87 1104.53 1212.3 1103.37 1198.86 1103.37C1179.27 1103.37 1162.38 1105.77 1148.17 1110.57C1133.77 1115.18 1126.57 1122 1126.57 1131.02L1127.14 1137.07Z" fill="#E76F51"/>
<path d="M1225.35 876.797C1246.09 877.565 1267.3 881.117 1289 887.453L1288.71 894.077H1289V1028.28L1260.78 1034.62L1195.4 972.989C1175.43 955.325 1159.69 946.493 1148.17 946.493C1141.26 946.493 1135.59 948.701 1131.18 953.117C1126.76 957.341 1124.17 963.485 1123.4 971.549L1177.26 988.253V1024.83C1163.24 1029.05 1145.48 1031.16 1123.98 1031.16L1115.91 1030.88C1102.66 1008.03 1096.04 984.509 1096.04 960.317C1096.04 939.005 1101.7 921.629 1113.03 908.189C1124.17 894.557 1138.28 887.741 1155.37 887.741C1166.31 887.741 1177.35 891.197 1188.49 898.109C1199.62 905.021 1213.45 917.021 1229.96 934.109L1263.94 968.957L1265.96 967.805L1257.61 928.061L1218.73 900.989L1225.35 876.797Z" fill="#E76F51"/>
<path d="M1195.11 873.01C1166.5 873.01 1142.98 865.138 1124.55 849.394C1105.93 833.458 1096.62 813.394 1096.62 789.202C1096.62 765.202 1105.74 745.426 1123.98 729.874C1142.22 714.13 1165.83 706.258 1194.82 706.258C1224.39 706.258 1248.3 713.746 1266.54 728.722C1284.78 743.698 1293.9 763.666 1293.9 788.626C1293.9 813.778 1284.68 834.13 1266.25 849.682C1247.62 865.234 1223.91 873.01 1195.11 873.01ZM1127.14 799.57C1132.33 803.602 1141.06 806.77 1153.35 809.074C1165.64 811.378 1178.6 812.53 1192.23 812.53C1211.24 812.53 1227.94 810.226 1242.34 805.618C1256.55 800.818 1263.66 793.81 1263.66 784.594C1263.66 782.482 1263.27 780.37 1262.5 778.258C1256.74 774.418 1248.1 771.442 1236.58 769.33C1224.87 767.026 1212.3 765.874 1198.86 765.874C1179.27 765.874 1162.38 768.274 1148.17 773.074C1133.77 777.682 1126.57 784.498 1126.57 793.522L1127.14 799.57Z" fill="#E76F51"/>
<path d="M1179.49 512.208H1252.93C1256.96 501.648 1261.28 492.912 1265.89 486L1280 486.288V589.104L1269.92 589.392C1266.46 583.824 1263.3 577.488 1260.42 570.384H1179.2V592.848L1163.07 593.136L1152.13 576.72L1148.1 570.384H1129.38C1110.94 570.384 1095.39 564.336 1082.72 552.24C1070.05 540.144 1063.71 525.36 1063.71 507.888C1063.71 492.912 1068.42 477.456 1077.82 461.52L1128.22 490.896C1116.51 502.992 1106.24 517.392 1097.41 534.096L1143.49 512.784V479.952L1159.62 479.664L1179.49 494.64V512.208Z" fill="#E76F51"/>
<path d="M1261.28 322.348L1284.9 363.532C1284.9 376.588 1277.79 387.34 1263.58 395.788L1283.46 425.74L1284.32 436.684C1284.32 449.548 1280.58 460.3 1273.09 468.94C1265.41 477.58 1256.48 481.9 1246.3 481.9C1239.78 481.9 1233.34 479.884 1227.01 475.852C1220.48 471.628 1215.2 465.484 1211.17 457.42L1210.02 403.276H1188.42C1174.21 403.276 1164.8 407.596 1160.19 416.236C1160.58 420.46 1161.54 424.012 1163.07 426.892L1195.33 435.244L1195.62 468.076C1184.48 471.34 1173.73 472.972 1163.36 472.972L1149.25 471.82C1144.83 459.532 1141.28 445.708 1138.59 430.348C1135.9 414.796 1134.56 402.316 1134.56 392.908C1134.56 374.284 1141.66 359.596 1155.87 348.844C1159.33 346.54 1168.16 345.388 1182.37 345.388H1239.97C1245.92 345.388 1248.9 343.084 1248.9 338.476L1248.61 328.972L1248.32 323.212L1261.28 322.348ZM1241.98 425.452C1246.78 425.452 1250.82 424.012 1254.08 421.132L1250.34 403.276H1228.74C1228.74 418.06 1233.15 425.452 1241.98 425.452Z" fill="#E76F51"/>
<path d="M1254.66 240.253C1258.11 231.997 1261.86 225.085 1265.89 219.517L1280 219.805V319.741L1269.92 320.029C1266.08 313.885 1262.53 306.589 1259.26 298.141H1098.85L1093.38 319.741L1078.98 320.316C1072.64 302.076 1068.9 281.053 1067.74 257.245L1083.3 240.253H1254.66Z" fill="#E76F51"/>
<path d="M1254.66 133.94C1258.11 125.684 1261.86 118.772 1265.89 113.204L1280 113.492V213.428L1269.92 213.716C1266.08 207.572 1262.53 200.276 1259.26 191.828H1098.85L1093.38 213.428L1078.98 214.004C1072.64 195.764 1068.9 174.74 1067.74 150.932L1083.3 133.94H1254.66Z" fill="#E76F51"/>
<path d="M1216.35 -134.703C1237.09 -133.935 1258.3 -130.383 1280 -124.047L1279.71 -117.423H1280V16.7847L1251.78 23.1207L1186.4 -38.5112C1166.43 -56.1752 1150.69 -65.0073 1139.17 -65.0073C1132.26 -65.0073 1126.59 -62.7992 1122.18 -58.3832C1117.76 -54.1592 1115.17 -48.0152 1114.4 -39.9512L1168.26 -23.2473V13.3287C1154.24 17.5527 1136.48 19.6647 1114.98 19.6647L1106.91 19.3768C1093.66 -3.47123 1087.04 -26.9912 1087.04 -51.1832C1087.04 -72.4952 1092.7 -89.8713 1104.03 -103.311C1115.17 -116.943 1129.28 -123.759 1146.37 -123.759C1157.31 -123.759 1168.35 -120.303 1179.49 -113.391C1190.62 -106.479 1204.45 -94.4792 1220.96 -77.3912L1254.94 -42.5433L1256.96 -43.6953L1248.61 -83.4393L1209.73 -110.511L1216.35 -134.703Z" fill="#E76F51"/>
<path d="M1186.11 -138.49C1157.5 -138.49 1133.98 -146.362 1115.55 -162.106C1096.93 -178.042 1087.62 -198.106 1087.62 -222.298C1087.62 -246.298 1096.74 -266.074 1114.98 -281.626C1133.22 -297.37 1156.83 -305.242 1185.82 -305.242C1215.39 -305.242 1239.3 -297.754 1257.54 -282.778C1275.78 -267.802 1284.9 -247.834 1284.9 -222.874C1284.9 -197.722 1275.68 -177.37 1257.25 -161.818C1238.62 -146.266 1214.91 -138.49 1186.11 -138.49ZM1118.14 -211.93C1123.33 -207.898 1132.06 -204.73 1144.35 -202.426C1156.64 -200.122 1169.6 -198.97 1183.23 -198.97C1202.24 -198.97 1218.94 -201.274 1233.34 -205.882C1247.55 -210.682 1254.66 -217.69 1254.66 -226.906C1254.66 -229.018 1254.27 -231.13 1253.5 -233.242C1247.74 -237.082 1239.1 -240.058 1227.58 -242.17C1215.87 -244.474 1203.3 -245.626 1189.86 -245.626C1170.27 -245.626 1153.38 -243.226 1139.17 -238.426C1124.77 -233.818 1117.57 -227.002 1117.57 -217.978L1118.14 -211.93Z" fill="#E76F51"/>
<path d="M1216.35 -472.203C1237.09 -471.435 1258.3 -467.883 1280 -461.547L1279.71 -454.923H1280V-320.715L1251.78 -314.379L1186.4 -376.011C1166.43 -393.675 1150.69 -402.507 1139.17 -402.507C1132.26 -402.507 1126.59 -400.299 1122.18 -395.883C1117.76 -391.659 1115.17 -385.515 1114.4 -377.451L1168.26 -360.747V-324.171C1154.24 -319.947 1136.48 -317.835 1114.98 -317.835L1106.91 -318.123C1093.66 -340.971 1087.04 -364.491 1087.04 -388.683C1087.04 -409.995 1092.7 -427.371 1104.03 -440.811C1115.17 -454.443 1129.28 -461.259 1146.37 -461.259C1157.31 -461.259 1168.35 -457.803 1179.49 -450.891C1190.62 -443.979 1204.45 -431.979 1220.96 -414.891L1254.94 -380.043L1256.96 -381.195L1248.61 -420.939L1209.73 -448.011L1216.35 -472.203Z" fill="#E76F51"/>
<path d="M1186.11 -475.99C1157.5 -475.99 1133.98 -483.862 1115.55 -499.606C1096.93 -515.542 1087.62 -535.606 1087.62 -559.798C1087.62 -583.798 1096.74 -603.574 1114.98 -619.126C1133.22 -634.87 1156.83 -642.742 1185.82 -642.742C1215.39 -642.742 1239.3 -635.254 1257.54 -620.278C1275.78 -605.302 1284.9 -585.334 1284.9 -560.374C1284.9 -535.222 1275.68 -514.87 1257.25 -499.318C1238.62 -483.766 1214.91 -475.99 1186.11 -475.99ZM1118.14 -549.43C1123.33 -545.398 1132.06 -542.23 1144.35 -539.926C1156.64 -537.622 1169.6 -536.47 1183.23 -536.47C1202.24 -536.47 1218.94 -538.774 1233.34 -543.382C1247.55 -548.182 1254.66 -555.19 1254.66 -564.406C1254.66 -566.518 1254.27 -568.63 1253.5 -570.742C1247.74 -574.582 1239.1 -577.558 1227.58 -579.67C1215.87 -581.974 1203.3 -583.126 1189.86 -583.126C1170.27 -583.126 1153.38 -580.726 1139.17 -575.926C1124.77 -571.318 1117.57 -564.502 1117.57 -555.478L1118.14 -549.43Z" fill="#E76F51"/>
</g>
<defs>
<clipPath id="clip0">
<rect width="1920" height="1080" fill="white"/>
</clipPath>
</defs>
</svg>
