<svg width="3080" height="1840" viewBox="0 0 3080 1840" fill="none" xmlns="http://www.w3.org/2000/svg">
<path d="M196 243C196 284.333 196 325.667 196 367" stroke="#181E53" stroke-width="5" stroke-linecap="round" stroke-linejoin="round"/>
<path d="M1384 238C1384 282.333 1384 326.667 1384 371" stroke="#181E53" stroke-width="5" stroke-linecap="round" stroke-linejoin="round"/>
<rect y="366" width="1000" height="740" rx="64" fill="#181E53"/>
<rect x="1147" y="366" width="1933" height="1474" rx="64" fill="#181E53"/>
<rect x="98.5" y="2.5" width="807" height="238" rx="37.5" fill="white"/>
<path d="M292.31 112.536C291.585 108.611 288.705 106.648 283.67 106.648C280.982 106.648 278.913 107.245 277.462 108.44C276.012 109.592 275.286 111 275.286 112.664C275.286 114.285 275.734 115.523 276.63 116.376C277.526 117.229 278.977 117.976 280.982 118.616L289.366 121.496C292.225 122.477 294.486 123.821 296.15 125.528C297.857 127.235 298.71 129.645 298.71 132.76C298.71 135.832 297.388 138.435 294.742 140.568C292.097 142.659 288.556 143.704 284.118 143.704C279.681 143.704 276.033 142.595 273.174 140.376C270.358 138.115 268.908 134.957 268.822 130.904H273.75C273.75 133.549 274.668 135.576 276.502 136.984C278.38 138.392 280.769 139.096 283.67 139.096C286.614 139.096 288.94 138.456 290.646 137.176C292.353 135.853 293.206 134.317 293.206 132.568C293.206 130.776 292.673 129.368 291.606 128.344C290.582 127.32 289.046 126.467 286.998 125.784L279.894 123.16C276.566 122.051 274.049 120.728 272.342 119.192C270.636 117.656 269.782 115.416 269.782 112.472C269.782 109.485 270.977 107.011 273.366 105.048C275.756 103.043 279.105 102.04 283.414 102.04C287.724 102.04 291.009 103 293.27 104.92C295.574 106.797 296.897 109.336 297.238 112.536H292.31ZM325.62 142.104C321.951 143.811 318.602 144.173 315.572 143.192C313.396 142.509 311.86 141.08 310.964 138.904C310.495 137.837 310.26 136.557 310.26 135.064V116.248H305.332V112.408H310.26V103.896H315.252V112.408H324.852V116.248H315.252V135C315.252 138.115 316.703 139.672 319.604 139.672C321.183 139.672 322.954 139.288 324.916 138.52L325.62 142.104ZM352.627 123.16C352.627 120.387 352.051 118.403 350.899 117.208C349.747 116.013 348.061 115.416 345.843 115.416C343.667 115.416 341.896 115.864 340.531 116.76C339.208 117.613 338.547 118.979 338.547 120.856H332.979C332.979 116.163 335.496 113.261 340.531 112.152C342.067 111.811 343.731 111.64 345.523 111.64C349.32 111.64 352.285 112.6 354.419 114.52C356.552 116.44 357.619 119.363 357.619 123.288V143H353.267L352.755 137.88C350.877 141.763 347.485 143.704 342.579 143.704C339.293 143.704 336.648 142.787 334.643 140.952C332.68 139.117 331.699 136.835 331.699 134.104C331.699 131.373 332.787 129.24 334.963 127.704C337.181 126.168 339.933 125.4 343.219 125.4C346.504 125.4 349.64 125.955 352.627 127.064V123.16ZM352.627 130.264C349.597 129.411 346.952 128.984 344.691 128.984C342.429 128.984 340.595 129.389 339.187 130.2C337.779 131.011 337.075 132.291 337.075 134.04C337.075 137.88 339.251 139.8 343.603 139.8C346.077 139.8 348.189 138.925 349.939 137.176C351.731 135.384 352.627 133.08 352.627 130.264ZM381.975 116.696C377.154 116.696 374.658 120.493 374.487 128.088V143H369.431V112.344H374.487V118.232C376.023 113.965 378.733 111.832 382.615 111.832C383.853 111.832 385.026 112.024 386.135 112.408L385.879 117.336C384.599 116.909 383.298 116.696 381.975 116.696ZM409.87 142.104C406.201 143.811 402.852 144.173 399.822 143.192C397.646 142.509 396.11 141.08 395.214 138.904C394.745 137.837 394.51 136.557 394.51 135.064V116.248H389.582V112.408H394.51V103.896H399.502V112.408H409.102V116.248H399.502V135C399.502 138.115 400.953 139.672 403.854 139.672C405.433 139.672 407.204 139.288 409.166 138.52L409.87 142.104ZM433.183 99.416H438.239V143H433.183V99.416ZM451.44 112.344H456.496V143H451.44V112.344ZM453.936 105.176C452.912 105.176 452.102 104.899 451.504 104.344C450.95 103.747 450.672 102.979 450.672 102.04C450.672 101.059 450.95 100.291 451.504 99.736C452.102 99.1387 452.912 98.84 453.936 98.84C454.96 98.84 455.771 99.1387 456.368 99.736C457.008 100.291 457.328 101.059 457.328 102.04C457.328 102.979 457.008 103.747 456.368 104.344C455.771 104.899 454.96 105.176 453.936 105.176ZM470.629 112.408L479.845 137.688L489.125 112.408H494.821L482.661 143H477.093L464.933 112.408H470.629ZM512.993 139.608C517.217 139.608 519.627 137.752 520.225 134.04H525.409C524.939 137.112 523.574 139.501 521.313 141.208C519.094 142.872 516.321 143.704 512.993 143.704C508.897 143.704 505.569 142.253 503.009 139.352C500.449 136.408 499.169 132.504 499.169 127.64C499.169 122.776 500.449 118.893 503.009 115.992C505.611 113.091 509.046 111.64 513.313 111.64C517.622 111.64 520.822 113.304 522.913 116.632C525.046 119.96 525.793 124.013 525.153 128.792H504.225C504.225 131.949 504.993 134.552 506.529 136.6C508.065 138.605 510.219 139.608 512.993 139.608ZM516.705 116.44C515.723 115.928 514.529 115.672 513.121 115.672C510.518 115.672 508.449 116.568 506.913 118.36C505.419 120.109 504.545 122.307 504.289 124.952H520.609C520.609 120.685 519.307 117.848 516.705 116.44ZM533.77 119.896C533.77 117.379 534.837 115.373 536.97 113.88C539.146 112.387 542.069 111.64 545.738 111.64C549.408 111.64 552.266 112.408 554.314 113.944C556.405 115.48 557.493 117.421 557.578 119.768H552.65C552.266 116.995 549.92 115.608 545.61 115.608C543.52 115.608 541.898 116.077 540.746 117.016C539.637 117.955 539.082 118.979 539.082 120.088C539.082 121.155 539.509 122.072 540.362 122.84C541.216 123.565 542.581 124.205 544.458 124.76L550.602 126.808C553.205 127.619 555.189 128.664 556.554 129.944C557.962 131.181 558.666 132.909 558.666 135.128C558.666 137.304 557.536 139.288 555.274 141.08C553.013 142.829 549.856 143.704 545.802 143.704C541.749 143.704 538.592 142.808 536.33 141.016C534.069 139.181 532.874 136.835 532.746 133.976H537.61C537.696 135.896 538.464 137.347 539.914 138.328C541.408 139.267 543.264 139.736 545.482 139.736C547.701 139.736 549.536 139.267 550.986 138.328C552.437 137.389 553.162 136.28 553.162 135C553.162 133.677 552.736 132.675 551.882 131.992C551.029 131.309 549.642 130.712 547.722 130.2L541.77 128.216C536.437 126.637 533.77 123.864 533.77 119.896ZM585.058 142.104C581.388 143.811 578.039 144.173 575.01 143.192C572.834 142.509 571.298 141.08 570.402 138.904C569.932 137.837 569.698 136.557 569.698 135.064V116.248H564.77V112.408H569.698V103.896H574.69V112.408H584.29V116.248H574.69V135C574.69 138.115 576.14 139.672 579.042 139.672C580.62 139.672 582.391 139.288 584.354 138.52L585.058 142.104ZM605.6 116.696C600.779 116.696 598.283 120.493 598.112 128.088V143H593.056V112.344H598.112V118.232C599.648 113.965 602.358 111.832 606.24 111.832C607.478 111.832 608.651 112.024 609.76 112.408L609.504 117.336C608.224 116.909 606.923 116.696 605.6 116.696ZM628.055 139.608C632.279 139.608 634.69 137.752 635.287 134.04H640.471C640.002 137.112 638.637 139.501 636.375 141.208C634.157 142.872 631.383 143.704 628.055 143.704C623.959 143.704 620.631 142.253 618.071 139.352C615.511 136.408 614.231 132.504 614.231 127.64C614.231 122.776 615.511 118.893 618.071 115.992C620.674 113.091 624.109 111.64 628.375 111.64C632.685 111.64 635.885 113.304 637.975 116.632C640.109 119.96 640.855 124.013 640.215 128.792H619.287C619.287 131.949 620.055 134.552 621.591 136.6C623.127 138.605 625.282 139.608 628.055 139.608ZM631.767 116.44C630.786 115.928 629.591 115.672 628.183 115.672C625.581 115.672 623.511 116.568 621.975 118.36C620.482 120.109 619.607 122.307 619.351 124.952H635.671C635.671 120.685 634.37 117.848 631.767 116.44ZM669.377 123.16C669.377 120.387 668.801 118.403 667.649 117.208C666.497 116.013 664.811 115.416 662.593 115.416C660.417 115.416 658.646 115.864 657.281 116.76C655.958 117.613 655.297 118.979 655.297 120.856H649.729C649.729 116.163 652.246 113.261 657.281 112.152C658.817 111.811 660.481 111.64 662.273 111.64C666.07 111.64 669.035 112.6 671.169 114.52C673.302 116.44 674.369 119.363 674.369 123.288V143H670.017L669.505 137.88C667.627 141.763 664.235 143.704 659.329 143.704C656.043 143.704 653.398 142.787 651.393 140.952C649.43 139.117 648.449 136.835 648.449 134.104C648.449 131.373 649.537 129.24 651.713 127.704C653.931 126.168 656.683 125.4 659.969 125.4C663.254 125.4 666.39 125.955 669.377 127.064V123.16ZM669.377 130.264C666.347 129.411 663.702 128.984 661.441 128.984C659.179 128.984 657.345 129.389 655.937 130.2C654.529 131.011 653.825 132.291 653.825 134.04C653.825 137.88 656.001 139.8 660.353 139.8C662.827 139.8 664.939 138.925 666.689 137.176C668.481 135.384 669.377 133.08 669.377 130.264ZM691.109 118.296C693.115 113.859 696.549 111.64 701.413 111.64C704.059 111.64 706.277 112.301 708.069 113.624C709.861 114.904 711.163 116.696 711.973 119C713.893 114.093 717.456 111.64 722.661 111.64C726.331 111.64 729.168 112.835 731.173 115.224C733.179 117.613 734.181 120.877 734.181 125.016V143H729.189V125.016C729.189 122.072 728.485 119.853 727.077 118.36C725.712 116.867 723.728 116.12 721.125 116.12C718.523 116.12 716.496 117.187 715.045 119.32C713.637 121.453 712.933 124.397 712.933 128.152V143H707.941V125.016C707.941 122.072 707.237 119.853 705.829 118.36C704.464 116.867 702.501 116.12 699.941 116.12C697.381 116.12 695.312 117.165 693.733 119.256C692.155 121.347 691.323 124.248 691.237 127.96V143H686.181V112.408H690.533L691.109 118.296Z" fill="#181E53"/>
<rect x="98.5" y="2.5" width="807" height="238" rx="37.5" stroke="#181E53" stroke-width="5"/>
<rect x="1243.5" y="2.5" width="807" height="238" rx="37.5" fill="white"/>
<path d="M1496.08 138.584H1514V143H1491.03V102.744H1496.08V138.584ZM1521.28 112.344H1526.34V143H1521.28V112.344ZM1523.78 105.176C1522.76 105.176 1521.95 104.899 1521.35 104.344C1520.79 103.747 1520.52 102.979 1520.52 102.04C1520.52 101.059 1520.79 100.291 1521.35 99.736C1521.95 99.1387 1522.76 98.84 1523.78 98.84C1524.8 98.84 1525.61 99.1387 1526.21 99.736C1526.85 100.291 1527.17 101.059 1527.17 102.04C1527.17 102.979 1526.85 103.747 1526.21 104.344C1525.61 104.899 1524.8 105.176 1523.78 105.176ZM1540.47 112.408L1549.69 137.688L1558.97 112.408H1564.67L1552.51 143H1546.94L1534.78 112.408H1540.47ZM1582.84 139.608C1587.06 139.608 1589.47 137.752 1590.07 134.04H1595.25C1594.78 137.112 1593.42 139.501 1591.16 141.208C1588.94 142.872 1586.16 143.704 1582.84 143.704C1578.74 143.704 1575.41 142.253 1572.85 139.352C1570.29 136.408 1569.01 132.504 1569.01 127.64C1569.01 122.776 1570.29 118.893 1572.85 115.992C1575.46 113.091 1578.89 111.64 1583.16 111.64C1587.47 111.64 1590.67 113.304 1592.76 116.632C1594.89 119.96 1595.64 124.013 1595 128.792H1574.07C1574.07 131.949 1574.84 134.552 1576.37 136.6C1577.91 138.605 1580.06 139.608 1582.84 139.608ZM1586.55 116.44C1585.57 115.928 1584.37 115.672 1582.96 115.672C1580.36 115.672 1578.29 116.568 1576.76 118.36C1575.26 120.109 1574.39 122.307 1574.13 124.952H1590.45C1590.45 120.685 1589.15 117.848 1586.55 116.44ZM1603.61 119.896C1603.61 117.379 1604.68 115.373 1606.81 113.88C1608.99 112.387 1611.91 111.64 1615.58 111.64C1619.25 111.64 1622.11 112.408 1624.16 113.944C1626.25 115.48 1627.34 117.421 1627.42 119.768H1622.49C1622.11 116.995 1619.76 115.608 1615.45 115.608C1613.36 115.608 1611.74 116.077 1610.59 117.016C1609.48 117.955 1608.93 118.979 1608.93 120.088C1608.93 121.155 1609.35 122.072 1610.21 122.84C1611.06 123.565 1612.42 124.205 1614.3 124.76L1620.45 126.808C1623.05 127.619 1625.03 128.664 1626.4 129.944C1627.81 131.181 1628.51 132.909 1628.51 135.128C1628.51 137.304 1627.38 139.288 1625.12 141.08C1622.86 142.829 1619.7 143.704 1615.65 143.704C1611.59 143.704 1608.44 142.808 1606.17 141.016C1603.91 139.181 1602.72 136.835 1602.59 133.976H1607.45C1607.54 135.896 1608.31 137.347 1609.76 138.328C1611.25 139.267 1613.11 139.736 1615.33 139.736C1617.54 139.736 1619.38 139.267 1620.83 138.328C1622.28 137.389 1623.01 136.28 1623.01 135C1623.01 133.677 1622.58 132.675 1621.73 131.992C1620.87 131.309 1619.49 130.712 1617.57 130.2L1611.61 128.216C1606.28 126.637 1603.61 123.864 1603.61 119.896ZM1654.9 142.104C1651.23 143.811 1647.88 144.173 1644.85 143.192C1642.68 142.509 1641.14 141.08 1640.25 138.904C1639.78 137.837 1639.54 136.557 1639.54 135.064V116.248H1634.61V112.408H1639.54V103.896H1644.53V112.408H1654.13V116.248H1644.53V135C1644.53 138.115 1645.98 139.672 1648.89 139.672C1650.46 139.672 1652.23 139.288 1654.2 138.52L1654.9 142.104ZM1675.44 116.696C1670.62 116.696 1668.13 120.493 1667.96 128.088V143H1662.9V112.344H1667.96V118.232C1669.49 113.965 1672.2 111.832 1676.08 111.832C1677.32 111.832 1678.49 112.024 1679.6 112.408L1679.35 117.336C1678.07 116.909 1676.77 116.696 1675.44 116.696ZM1697.9 139.608C1702.12 139.608 1704.53 137.752 1705.13 134.04H1710.32C1709.85 137.112 1708.48 139.501 1706.22 141.208C1704 142.872 1701.23 143.704 1697.9 143.704C1693.8 143.704 1690.48 142.253 1687.92 139.352C1685.36 136.408 1684.08 132.504 1684.08 127.64C1684.08 122.776 1685.36 118.893 1687.92 115.992C1690.52 113.091 1693.95 111.64 1698.22 111.64C1702.53 111.64 1705.73 113.304 1707.82 116.632C1709.95 119.96 1710.7 124.013 1710.06 128.792H1689.13C1689.13 131.949 1689.9 134.552 1691.44 136.6C1692.97 138.605 1695.13 139.608 1697.9 139.608ZM1701.61 116.44C1700.63 115.928 1699.44 115.672 1698.03 115.672C1695.42 115.672 1693.36 116.568 1691.82 118.36C1690.33 120.109 1689.45 122.307 1689.2 124.952H1705.52C1705.52 120.685 1704.21 117.848 1701.61 116.44ZM1739.22 123.16C1739.22 120.387 1738.64 118.403 1737.49 117.208C1736.34 116.013 1734.66 115.416 1732.44 115.416C1730.26 115.416 1728.49 115.864 1727.12 116.76C1725.8 117.613 1725.14 118.979 1725.14 120.856H1719.57C1719.57 116.163 1722.09 113.261 1727.12 112.152C1728.66 111.811 1730.32 111.64 1732.12 111.64C1735.91 111.64 1738.88 112.6 1741.01 114.52C1743.15 116.44 1744.21 119.363 1744.21 123.288V143H1739.86L1739.35 137.88C1737.47 141.763 1734.08 143.704 1729.17 143.704C1725.89 143.704 1723.24 142.787 1721.24 140.952C1719.27 139.117 1718.29 136.835 1718.29 134.104C1718.29 131.373 1719.38 129.24 1721.56 127.704C1723.78 126.168 1726.53 125.4 1729.81 125.4C1733.1 125.4 1736.23 125.955 1739.22 127.064V123.16ZM1739.22 130.264C1736.19 129.411 1733.55 128.984 1731.28 128.984C1729.02 128.984 1727.19 129.389 1725.78 130.2C1724.37 131.011 1723.67 132.291 1723.67 134.04C1723.67 137.88 1725.84 139.8 1730.2 139.8C1732.67 139.8 1734.78 138.925 1736.53 137.176C1738.32 135.384 1739.22 133.08 1739.22 130.264ZM1760.95 118.296C1762.96 113.859 1766.39 111.64 1771.26 111.64C1773.9 111.64 1776.12 112.301 1777.91 113.624C1779.71 114.904 1781.01 116.696 1781.82 119C1783.74 114.093 1787.3 111.64 1792.51 111.64C1796.17 111.64 1799.01 112.835 1801.02 115.224C1803.02 117.613 1804.03 120.877 1804.03 125.016V143H1799.03V125.016C1799.03 122.072 1798.33 119.853 1796.92 118.36C1795.56 116.867 1793.57 116.12 1790.97 116.12C1788.37 116.12 1786.34 117.187 1784.89 119.32C1783.48 121.453 1782.78 124.397 1782.78 128.152V143H1777.79V125.016C1777.79 122.072 1777.08 119.853 1775.67 118.36C1774.31 116.867 1772.35 116.12 1769.79 116.12C1767.23 116.12 1765.16 117.165 1763.58 119.256C1762 121.347 1761.17 124.248 1761.08 127.96V143H1756.03V112.408H1760.38L1760.95 118.296Z" fill="#181E53"/>
<rect x="1243.5" y="2.5" width="807" height="238" rx="37.5" stroke="#181E53" stroke-width="5"/>
<rect x="2186" y="1504" width="812" height="243" rx="40" fill="white"/>
<path d="M2378.09 1606.74H2402.86V1611.1H2383.14V1624.6H2401.7V1628.89H2383.14V1642.58H2402.86V1647H2378.09V1606.74ZM2418.95 1622.3C2420.96 1617.86 2424.39 1615.64 2429.26 1615.64C2432.88 1615.64 2435.7 1616.83 2437.71 1619.22C2439.75 1621.61 2440.78 1624.88 2440.78 1629.02V1647H2435.79V1629.02C2435.79 1626.07 2435.08 1623.85 2433.67 1622.36C2432.31 1620.87 2430.35 1620.12 2427.79 1620.12C2425.23 1620.12 2423.16 1621.17 2421.58 1623.26C2420 1625.35 2419.17 1628.25 2419.08 1631.96V1647H2414.03V1616.41H2418.38L2418.95 1622.3ZM2472.68 1620.95V1603.42H2477.68V1647H2473.58L2472.94 1641.88C2471.96 1643.8 2470.66 1645.25 2469.04 1646.23C2467.41 1647.21 2465.64 1647.7 2463.72 1647.7C2459.84 1647.7 2456.58 1646.21 2453.93 1643.22C2451.33 1640.24 2450.03 1636.35 2450.03 1631.58C2450.03 1626.75 2451.31 1622.89 2453.87 1619.99C2456.47 1617.09 2459.73 1615.64 2463.66 1615.64C2467.63 1615.64 2470.64 1617.41 2472.68 1620.95ZM2463.98 1620.12C2461.5 1620.12 2459.41 1621.17 2457.71 1623.26C2456.04 1625.35 2455.21 1628.14 2455.21 1631.64C2455.21 1635.14 2456.06 1637.95 2457.77 1640.09C2459.48 1642.18 2461.53 1643.22 2463.92 1643.22C2466.3 1643.22 2468.33 1642.43 2470 1640.86C2471.7 1639.23 2472.6 1637.08 2472.68 1634.39V1629.4C2472.68 1626.54 2471.85 1624.28 2470.19 1622.62C2468.52 1620.95 2466.45 1620.12 2463.98 1620.12ZM2505.9 1603.42H2510.96V1647H2505.9V1603.42ZM2524.16 1616.34H2529.22V1647H2524.16V1616.34ZM2526.66 1609.18C2525.63 1609.18 2524.82 1608.9 2524.22 1608.34C2523.67 1607.75 2523.39 1606.98 2523.39 1606.04C2523.39 1605.06 2523.67 1604.29 2524.22 1603.74C2524.82 1603.14 2525.63 1602.84 2526.66 1602.84C2527.68 1602.84 2528.49 1603.14 2529.09 1603.74C2529.73 1604.29 2530.05 1605.06 2530.05 1606.04C2530.05 1606.98 2529.73 1607.75 2529.09 1608.34C2528.49 1608.9 2527.68 1609.18 2526.66 1609.18ZM2543.35 1616.41L2552.56 1641.69L2561.84 1616.41H2567.54L2555.38 1647H2549.81L2537.65 1616.41H2543.35ZM2585.71 1643.61C2589.94 1643.61 2592.35 1641.75 2592.94 1638.04H2598.13C2597.66 1641.11 2596.29 1643.5 2594.03 1645.21C2591.81 1646.87 2589.04 1647.7 2585.71 1647.7C2581.62 1647.7 2578.29 1646.25 2575.73 1643.35C2573.17 1640.41 2571.89 1636.5 2571.89 1631.64C2571.89 1626.78 2573.17 1622.89 2575.73 1619.99C2578.33 1617.09 2581.76 1615.64 2586.03 1615.64C2590.34 1615.64 2593.54 1617.3 2595.63 1620.63C2597.76 1623.96 2598.51 1628.01 2597.87 1632.79H2576.94C2576.94 1635.95 2577.71 1638.55 2579.25 1640.6C2580.78 1642.61 2582.94 1643.61 2585.71 1643.61ZM2589.42 1620.44C2588.44 1619.93 2587.25 1619.67 2585.84 1619.67C2583.24 1619.67 2581.17 1620.57 2579.63 1622.36C2578.14 1624.11 2577.26 1626.31 2577.01 1628.95H2593.33C2593.33 1624.69 2592.03 1621.85 2589.42 1620.44ZM2606.49 1623.9C2606.49 1621.38 2607.56 1619.37 2609.69 1617.88C2611.87 1616.39 2614.79 1615.64 2618.46 1615.64C2622.13 1615.64 2624.99 1616.41 2627.03 1617.94C2629.12 1619.48 2630.21 1621.42 2630.3 1623.77H2625.37C2624.99 1620.99 2622.64 1619.61 2618.33 1619.61C2616.24 1619.61 2614.62 1620.08 2613.47 1621.02C2612.36 1621.95 2611.8 1622.98 2611.8 1624.09C2611.8 1625.15 2612.23 1626.07 2613.08 1626.84C2613.93 1627.57 2615.3 1628.21 2617.18 1628.76L2623.32 1630.81C2625.92 1631.62 2627.91 1632.66 2629.27 1633.94C2630.68 1635.18 2631.39 1636.91 2631.39 1639.13C2631.39 1641.3 2630.25 1643.29 2627.99 1645.08C2625.73 1646.83 2622.57 1647.7 2618.52 1647.7C2614.47 1647.7 2611.31 1646.81 2609.05 1645.02C2606.79 1643.18 2605.59 1640.83 2605.47 1637.98H2610.33C2610.41 1639.9 2611.18 1641.35 2612.63 1642.33C2614.13 1643.27 2615.98 1643.74 2618.2 1643.74C2620.42 1643.74 2622.25 1643.27 2623.71 1642.33C2625.16 1641.39 2625.88 1640.28 2625.88 1639C2625.88 1637.68 2625.45 1636.67 2624.6 1635.99C2623.75 1635.31 2622.36 1634.71 2620.44 1634.2L2614.49 1632.22C2609.16 1630.64 2606.49 1627.86 2606.49 1623.9ZM2657.78 1646.1C2654.11 1647.81 2650.76 1648.17 2647.73 1647.19C2645.55 1646.51 2644.02 1645.08 2643.12 1642.9C2642.65 1641.84 2642.42 1640.56 2642.42 1639.06V1620.25H2637.49V1616.41H2642.42V1607.9H2647.41V1616.41H2657.01V1620.25H2647.41V1639C2647.41 1642.11 2648.86 1643.67 2651.76 1643.67C2653.34 1643.67 2655.11 1643.29 2657.07 1642.52L2657.78 1646.1ZM2678.32 1620.7C2673.5 1620.7 2671 1624.49 2670.83 1632.09V1647H2665.78V1616.34H2670.83V1622.23C2672.37 1617.97 2675.08 1615.83 2678.96 1615.83C2680.2 1615.83 2681.37 1616.02 2682.48 1616.41L2682.22 1621.34C2680.94 1620.91 2679.64 1620.7 2678.32 1620.7ZM2700.77 1643.61C2705 1643.61 2707.41 1641.75 2708.01 1638.04H2713.19C2712.72 1641.11 2711.36 1643.5 2709.09 1645.21C2706.88 1646.87 2704.1 1647.7 2700.77 1647.7C2696.68 1647.7 2693.35 1646.25 2690.79 1643.35C2688.23 1640.41 2686.95 1636.5 2686.95 1631.64C2686.95 1626.78 2688.23 1622.89 2690.79 1619.99C2693.39 1617.09 2696.83 1615.64 2701.09 1615.64C2705.4 1615.64 2708.6 1617.3 2710.69 1620.63C2712.83 1623.96 2713.57 1628.01 2712.93 1632.79H2692.01C2692.01 1635.95 2692.77 1638.55 2694.31 1640.6C2695.85 1642.61 2698 1643.61 2700.77 1643.61ZM2704.49 1620.44C2703.5 1619.93 2702.31 1619.67 2700.9 1619.67C2698.3 1619.67 2696.23 1620.57 2694.69 1622.36C2693.2 1624.11 2692.33 1626.31 2692.07 1628.95H2708.39C2708.39 1624.69 2707.09 1621.85 2704.49 1620.44ZM2742.1 1627.16C2742.1 1624.39 2741.52 1622.4 2740.37 1621.21C2739.22 1620.01 2737.53 1619.42 2735.31 1619.42C2733.14 1619.42 2731.36 1619.86 2730 1620.76C2728.68 1621.61 2728.02 1622.98 2728.02 1624.86H2722.45C2722.45 1620.16 2724.96 1617.26 2730 1616.15C2731.54 1615.81 2733.2 1615.64 2734.99 1615.64C2738.79 1615.64 2741.75 1616.6 2743.89 1618.52C2746.02 1620.44 2747.09 1623.36 2747.09 1627.29V1647H2742.74L2742.22 1641.88C2740.35 1645.76 2736.95 1647.7 2732.05 1647.7C2728.76 1647.7 2726.12 1646.79 2724.11 1644.95C2722.15 1643.12 2721.17 1640.83 2721.17 1638.1C2721.17 1635.37 2722.26 1633.24 2724.43 1631.7C2726.65 1630.17 2729.4 1629.4 2732.69 1629.4C2735.97 1629.4 2739.11 1629.95 2742.1 1631.06V1627.16ZM2742.1 1634.26C2739.07 1633.41 2736.42 1632.98 2734.16 1632.98C2731.9 1632.98 2730.06 1633.39 2728.66 1634.2C2727.25 1635.01 2726.54 1636.29 2726.54 1638.04C2726.54 1641.88 2728.72 1643.8 2733.07 1643.8C2735.55 1643.8 2737.66 1642.93 2739.41 1641.18C2741.2 1639.38 2742.1 1637.08 2742.1 1634.26ZM2763.83 1622.3C2765.83 1617.86 2769.27 1615.64 2774.13 1615.64C2776.78 1615.64 2779 1616.3 2780.79 1617.62C2782.58 1618.9 2783.88 1620.7 2784.69 1623C2786.61 1618.09 2790.17 1615.64 2795.38 1615.64C2799.05 1615.64 2801.89 1616.83 2803.89 1619.22C2805.9 1621.61 2806.9 1624.88 2806.9 1629.02V1647H2801.91V1629.02C2801.91 1626.07 2801.2 1623.85 2799.8 1622.36C2798.43 1620.87 2796.45 1620.12 2793.84 1620.12C2791.24 1620.12 2789.21 1621.19 2787.76 1623.32C2786.36 1625.45 2785.65 1628.4 2785.65 1632.15V1647H2780.66V1629.02C2780.66 1626.07 2779.96 1623.85 2778.55 1622.36C2777.18 1620.87 2775.22 1620.12 2772.66 1620.12C2770.1 1620.12 2768.03 1621.17 2766.45 1623.26C2764.87 1625.35 2764.04 1628.25 2763.96 1631.96V1647H2758.9V1616.41H2763.25L2763.83 1622.3Z" fill="#181E53"/>
<rect x="1241" y="436" width="812" height="243" rx="40" fill="white"/>
<path d="M1480.68 538.744H1505.13V543.096H1485.74V556.472H1503.79V560.824H1485.74V579H1480.68V538.744ZM1514.25 535.416H1519.3V579H1514.25V535.416ZM1532.5 548.344H1537.56V579H1532.5V548.344ZM1535 541.176C1533.97 541.176 1533.16 540.899 1532.57 540.344C1532.01 539.747 1531.73 538.979 1531.73 538.04C1531.73 537.059 1532.01 536.291 1532.57 535.736C1533.16 535.139 1533.97 534.84 1535 534.84C1536.02 534.84 1536.83 535.139 1537.43 535.736C1538.07 536.291 1538.39 537.059 1538.39 538.04C1538.39 538.979 1538.07 539.747 1537.43 540.344C1536.83 540.899 1536.02 541.176 1535 541.176ZM1556.04 553.08C1558.05 549.453 1561.04 547.64 1565 547.64C1569.01 547.64 1572.34 549.112 1574.99 552.056C1577.68 555 1579.02 558.883 1579.02 563.704C1579.02 568.525 1577.68 572.408 1574.99 575.352C1572.3 578.253 1568.99 579.704 1565.07 579.704C1561.14 579.704 1558.24 578.232 1556.36 575.288V594.04H1551.31V548.408H1555.47L1556.04 553.08ZM1564.81 575.224C1567.2 575.224 1569.29 574.2 1571.08 572.152C1572.92 570.104 1573.84 567.309 1573.84 563.768C1573.84 560.184 1572.96 557.347 1571.21 555.256C1569.51 553.165 1567.41 552.12 1564.94 552.12C1562.47 552.12 1560.44 552.909 1558.86 554.488C1557.28 556.024 1556.45 558.115 1556.36 560.76V566.584C1556.36 569.272 1557.17 571.384 1558.8 572.92C1560.42 574.456 1562.42 575.224 1564.81 575.224ZM1614.73 547.64C1618.36 547.64 1621.24 548.579 1623.37 550.456C1625.51 552.291 1626.89 554.595 1627.53 557.368L1622.41 557.816C1621.86 556.024 1620.96 554.637 1619.73 553.656C1618.49 552.632 1617.12 552.12 1615.63 552.12C1612.9 552.12 1610.68 553.144 1608.97 555.192C1607.31 557.24 1606.48 560.035 1606.48 563.576C1606.48 567.075 1607.29 569.891 1608.91 572.024C1610.57 574.157 1612.62 575.224 1615.05 575.224C1617.53 575.224 1619.36 574.669 1620.56 573.56C1621.8 572.408 1622.41 570.787 1622.41 568.696H1627.6C1627.6 571.981 1626.45 574.648 1624.14 576.696C1621.88 578.701 1618.92 579.704 1615.25 579.704C1611.36 579.704 1608.06 578.232 1605.33 575.288C1602.64 572.344 1601.29 568.44 1601.29 563.576C1601.29 558.669 1602.64 554.787 1605.33 551.928C1608.01 549.069 1611.15 547.64 1614.73 547.64ZM1656.44 559.16C1656.44 556.387 1655.86 554.403 1654.71 553.208C1653.56 552.013 1651.87 551.416 1649.66 551.416C1647.48 551.416 1645.71 551.864 1644.34 552.76C1643.02 553.613 1642.36 554.979 1642.36 556.856H1636.79C1636.79 552.163 1639.31 549.261 1644.34 548.152C1645.88 547.811 1647.54 547.64 1649.34 547.64C1653.13 547.64 1656.1 548.6 1658.23 550.52C1660.36 552.44 1661.43 555.363 1661.43 559.288V579H1657.08L1656.57 573.88C1654.69 577.763 1651.3 579.704 1646.39 579.704C1643.11 579.704 1640.46 578.787 1638.46 576.952C1636.49 575.117 1635.51 572.835 1635.51 570.104C1635.51 567.373 1636.6 565.24 1638.78 563.704C1640.99 562.168 1643.75 561.4 1647.03 561.4C1650.32 561.4 1653.45 561.955 1656.44 563.064V559.16ZM1656.44 566.264C1653.41 565.411 1650.76 564.984 1648.5 564.984C1646.24 564.984 1644.41 565.389 1643 566.2C1641.59 567.011 1640.89 568.291 1640.89 570.04C1640.89 573.88 1643.06 575.8 1647.42 575.8C1649.89 575.8 1652 574.925 1653.75 573.176C1655.54 571.384 1656.44 569.08 1656.44 566.264ZM1678.17 554.296C1680.18 549.859 1683.61 547.64 1688.48 547.64C1691.12 547.64 1693.34 548.301 1695.13 549.624C1696.92 550.904 1698.23 552.696 1699.04 555C1700.96 550.093 1704.52 547.64 1709.72 547.64C1713.39 547.64 1716.23 548.835 1718.24 551.224C1720.24 553.613 1721.24 556.877 1721.24 561.016V579H1716.25V561.016C1716.25 558.072 1715.55 555.853 1714.14 554.36C1712.77 552.867 1710.79 552.12 1708.19 552.12C1705.59 552.12 1703.56 553.187 1702.11 555.32C1700.7 557.453 1700 560.397 1700 564.152V579H1695V561.016C1695 558.072 1694.3 555.853 1692.89 554.36C1691.53 552.867 1689.56 552.12 1687 552.12C1684.44 552.12 1682.37 553.165 1680.8 555.256C1679.22 557.347 1678.39 560.248 1678.3 563.96V579H1673.24V548.408H1677.6L1678.17 554.296ZM1743.68 575.608C1747.9 575.608 1750.31 573.752 1750.91 570.04H1756.1C1755.63 573.112 1754.26 575.501 1752 577.208C1749.78 578.872 1747.01 579.704 1743.68 579.704C1739.58 579.704 1736.26 578.253 1733.7 575.352C1731.14 572.408 1729.86 568.504 1729.86 563.64C1729.86 558.776 1731.14 554.893 1733.7 551.992C1736.3 549.091 1739.73 547.64 1744 547.64C1748.31 547.64 1751.51 549.304 1753.6 552.632C1755.73 555.96 1756.48 560.013 1755.84 564.792H1734.91C1734.91 567.949 1735.68 570.552 1737.22 572.6C1738.75 574.605 1740.91 575.608 1743.68 575.608ZM1747.39 552.44C1746.41 551.928 1745.22 551.672 1743.81 551.672C1741.21 551.672 1739.14 552.568 1737.6 554.36C1736.11 556.109 1735.23 558.307 1734.98 560.952H1751.3C1751.3 556.685 1749.99 553.848 1747.39 552.44ZM1778.54 552.696C1773.72 552.696 1771.22 556.493 1771.05 564.088V579H1765.99V548.344H1771.05V554.232C1772.59 549.965 1775.3 547.832 1779.18 547.832C1780.42 547.832 1781.59 548.024 1782.7 548.408L1782.44 553.336C1781.16 552.909 1779.86 552.696 1778.54 552.696ZM1809.38 559.16C1809.38 556.387 1808.8 554.403 1807.65 553.208C1806.5 552.013 1804.81 551.416 1802.59 551.416C1800.42 551.416 1798.65 551.864 1797.28 552.76C1795.96 553.613 1795.3 554.979 1795.3 556.856H1789.73C1789.73 552.163 1792.25 549.261 1797.28 548.152C1798.82 547.811 1800.48 547.64 1802.27 547.64C1806.07 547.64 1809.04 548.6 1811.17 550.52C1813.3 552.44 1814.37 555.363 1814.37 559.288V579H1810.02L1809.5 573.88C1807.63 577.763 1804.24 579.704 1799.33 579.704C1796.04 579.704 1793.4 578.787 1791.39 576.952C1789.43 575.117 1788.45 572.835 1788.45 570.104C1788.45 567.373 1789.54 565.24 1791.71 563.704C1793.93 562.168 1796.68 561.4 1799.97 561.4C1803.25 561.4 1806.39 561.955 1809.38 563.064V559.16ZM1809.38 566.264C1806.35 565.411 1803.7 564.984 1801.44 564.984C1799.18 564.984 1797.34 565.389 1795.94 566.2C1794.53 567.011 1793.82 568.291 1793.82 570.04C1793.82 573.88 1796 575.8 1800.35 575.8C1802.83 575.8 1804.94 574.925 1806.69 573.176C1808.48 571.384 1809.38 569.08 1809.38 566.264Z" fill="#181E53"/>
<rect x="96" y="436" width="812" height="243" rx="40" fill="white"/>
<path d="M353.915 538.744L367.483 566.008L380.923 538.744H388.027V579H382.971V545.912L369.147 573.944H365.755L351.739 545.464V579H346.683V538.744H353.915ZM401.253 548.344H406.309V579H401.253V548.344ZM403.749 541.176C402.725 541.176 401.914 540.899 401.317 540.344C400.762 539.747 400.485 538.979 400.485 538.04C400.485 537.059 400.762 536.291 401.317 535.736C401.914 535.139 402.725 534.84 403.749 534.84C404.773 534.84 405.583 535.139 406.181 535.736C406.821 536.291 407.141 537.059 407.141 538.04C407.141 538.979 406.821 539.747 406.181 540.344C405.583 540.899 404.773 541.176 403.749 541.176ZM430.234 547.64C433.86 547.64 436.74 548.579 438.874 550.456C441.007 552.291 442.394 554.595 443.034 557.368L437.914 557.816C437.359 556.024 436.463 554.637 435.226 553.656C433.988 552.632 432.623 552.12 431.13 552.12C428.399 552.12 426.18 553.144 424.474 555.192C422.81 557.24 421.978 560.035 421.978 563.576C421.978 567.075 422.788 569.891 424.41 572.024C426.074 574.157 428.122 575.224 430.554 575.224C433.028 575.224 434.863 574.669 436.058 573.56C437.295 572.408 437.914 570.787 437.914 568.696H443.098C443.098 571.981 441.946 574.648 439.642 576.696C437.38 578.701 434.415 579.704 430.746 579.704C426.863 579.704 423.556 578.232 420.826 575.288C418.138 572.344 416.794 568.44 416.794 563.576C416.794 558.669 418.138 554.787 420.826 551.928C423.514 549.069 426.65 547.64 430.234 547.64ZM487.189 559.16C487.189 556.387 486.613 554.403 485.461 553.208C484.309 552.013 482.624 551.416 480.405 551.416C478.229 551.416 476.459 551.864 475.093 552.76C473.771 553.613 473.109 554.979 473.109 556.856H467.541C467.541 552.163 470.059 549.261 475.093 548.152C476.629 547.811 478.293 547.64 480.085 547.64C483.883 547.64 486.848 548.6 488.981 550.52C491.115 552.44 492.181 555.363 492.181 559.288V579H487.829L487.317 573.88C485.44 577.763 482.048 579.704 477.141 579.704C473.856 579.704 471.211 578.787 469.205 576.952C467.243 575.117 466.261 572.835 466.261 570.104C466.261 567.373 467.349 565.24 469.525 563.704C471.744 562.168 474.496 561.4 477.781 561.4C481.067 561.4 484.203 561.955 487.189 563.064V559.16ZM487.189 566.264C484.16 565.411 481.515 564.984 479.253 564.984C476.992 564.984 475.157 565.389 473.749 566.2C472.341 567.011 471.637 568.291 471.637 570.04C471.637 573.88 473.813 575.8 478.165 575.8C480.64 575.8 482.752 574.925 484.501 573.176C486.293 571.384 487.189 569.08 487.189 566.264ZM514.234 547.64C517.86 547.64 520.74 548.579 522.874 550.456C525.007 552.291 526.394 554.595 527.034 557.368L521.914 557.816C521.359 556.024 520.463 554.637 519.226 553.656C517.988 552.632 516.623 552.12 515.13 552.12C512.399 552.12 510.18 553.144 508.474 555.192C506.81 557.24 505.978 560.035 505.978 563.576C505.978 567.075 506.788 569.891 508.41 572.024C510.074 574.157 512.122 575.224 514.554 575.224C517.028 575.224 518.863 574.669 520.058 573.56C521.295 572.408 521.914 570.787 521.914 568.696H527.098C527.098 571.981 525.946 574.648 523.642 576.696C521.38 578.701 518.415 579.704 514.746 579.704C510.863 579.704 507.556 578.232 504.826 575.288C502.138 572.344 500.794 568.44 500.794 563.576C500.794 558.669 502.138 554.787 504.826 551.928C507.514 549.069 510.65 547.64 514.234 547.64ZM547.171 547.64C550.798 547.64 553.678 548.579 555.811 550.456C557.945 552.291 559.331 554.595 559.971 557.368L554.851 557.816C554.297 556.024 553.401 554.637 552.163 553.656C550.926 552.632 549.561 552.12 548.067 552.12C545.337 552.12 543.118 553.144 541.411 555.192C539.747 557.24 538.915 560.035 538.915 563.576C538.915 567.075 539.726 569.891 541.347 572.024C543.011 574.157 545.059 575.224 547.491 575.224C549.966 575.224 551.801 574.669 552.995 573.56C554.233 572.408 554.851 570.787 554.851 568.696H560.035C560.035 571.981 558.883 574.648 556.579 576.696C554.318 578.701 551.353 579.704 547.683 579.704C543.801 579.704 540.494 578.232 537.763 575.288C535.075 572.344 533.731 568.44 533.731 563.576C533.731 558.669 535.075 554.787 537.763 551.928C540.451 549.069 543.587 547.64 547.171 547.64ZM580.493 575.608C584.717 575.608 587.127 573.752 587.725 570.04H592.909C592.439 573.112 591.074 575.501 588.813 577.208C586.594 578.872 583.821 579.704 580.493 579.704C576.397 579.704 573.069 578.253 570.509 575.352C567.949 572.408 566.669 568.504 566.669 563.64C566.669 558.776 567.949 554.893 570.509 551.992C573.111 549.091 576.546 547.64 580.813 547.64C585.122 547.64 588.322 549.304 590.413 552.632C592.546 555.96 593.293 560.013 592.653 564.792H571.725C571.725 567.949 572.493 570.552 574.029 572.6C575.565 574.605 577.719 575.608 580.493 575.608ZM584.205 552.44C583.223 551.928 582.029 551.672 580.621 551.672C578.018 551.672 575.949 552.568 574.413 554.36C572.919 556.109 572.045 558.307 571.789 560.952H588.109C588.109 556.685 586.807 553.848 584.205 552.44ZM601.27 555.896C601.27 553.379 602.337 551.373 604.47 549.88C606.646 548.387 609.569 547.64 613.238 547.64C616.908 547.64 619.766 548.408 621.814 549.944C623.905 551.48 624.993 553.421 625.078 555.768H620.15C619.766 552.995 617.42 551.608 613.11 551.608C611.02 551.608 609.398 552.077 608.246 553.016C607.137 553.955 606.582 554.979 606.582 556.088C606.582 557.155 607.009 558.072 607.862 558.84C608.716 559.565 610.081 560.205 611.958 560.76L618.102 562.808C620.705 563.619 622.689 564.664 624.054 565.944C625.462 567.181 626.166 568.909 626.166 571.128C626.166 573.304 625.036 575.288 622.774 577.08C620.513 578.829 617.356 579.704 613.302 579.704C609.249 579.704 606.092 578.808 603.83 577.016C601.569 575.181 600.374 572.835 600.246 569.976H605.11C605.196 571.896 605.964 573.347 607.414 574.328C608.908 575.267 610.764 575.736 612.982 575.736C615.201 575.736 617.036 575.267 618.486 574.328C619.937 573.389 620.662 572.28 620.662 571C620.662 569.677 620.236 568.675 619.382 567.992C618.529 567.309 617.142 566.712 615.222 566.2L609.27 564.216C603.937 562.637 601.27 559.864 601.27 555.896ZM634.958 555.896C634.958 553.379 636.024 551.373 638.158 549.88C640.334 548.387 643.256 547.64 646.926 547.64C650.595 547.64 653.454 548.408 655.502 549.944C657.592 551.48 658.68 553.421 658.766 555.768H653.838C653.454 552.995 651.107 551.608 646.798 551.608C644.707 551.608 643.086 552.077 641.934 553.016C640.824 553.955 640.27 554.979 640.27 556.088C640.27 557.155 640.696 558.072 641.55 558.84C642.403 559.565 643.768 560.205 645.646 560.76L651.79 562.808C654.392 563.619 656.376 564.664 657.742 565.944C659.15 567.181 659.854 568.909 659.854 571.128C659.854 573.304 658.723 575.288 656.462 577.08C654.2 578.829 651.043 579.704 646.99 579.704C642.936 579.704 639.779 578.808 637.518 577.016C635.256 575.181 634.062 572.835 633.934 569.976H638.798C638.883 571.896 639.651 573.347 641.102 574.328C642.595 575.267 644.451 575.736 646.67 575.736C648.888 575.736 650.723 575.267 652.174 574.328C653.624 573.389 654.35 572.28 654.35 571C654.35 569.677 653.923 568.675 653.07 567.992C652.216 567.309 650.83 566.712 648.91 566.2L642.958 564.216C637.624 562.637 634.958 559.864 634.958 555.896Z" fill="#181E53"/>
<rect x="1241" y="792" width="812" height="243" rx="40" fill="white"/>
<path d="M1476.47 904.536C1475.74 900.611 1472.86 898.648 1467.83 898.648C1465.14 898.648 1463.07 899.245 1461.62 900.44C1460.17 901.592 1459.44 903 1459.44 904.664C1459.44 906.285 1459.89 907.523 1460.79 908.376C1461.68 909.229 1463.13 909.976 1465.14 910.616L1473.52 913.496C1476.38 914.477 1478.64 915.821 1480.31 917.528C1482.01 919.235 1482.87 921.645 1482.87 924.76C1482.87 927.832 1481.54 930.435 1478.9 932.568C1476.25 934.659 1472.71 935.704 1468.27 935.704C1463.84 935.704 1460.19 934.595 1457.33 932.376C1454.51 930.115 1453.06 926.957 1452.98 922.904H1457.91C1457.91 925.549 1458.82 927.576 1460.66 928.984C1462.54 930.392 1464.93 931.096 1467.83 931.096C1470.77 931.096 1473.1 930.456 1474.8 929.176C1476.51 927.853 1477.36 926.317 1477.36 924.568C1477.36 922.776 1476.83 921.368 1475.76 920.344C1474.74 919.32 1473.2 918.467 1471.15 917.784L1464.05 915.16C1460.72 914.051 1458.21 912.728 1456.5 911.192C1454.79 909.656 1453.94 907.416 1453.94 904.472C1453.94 901.485 1455.13 899.011 1457.52 897.048C1459.91 895.043 1463.26 894.04 1467.57 894.04C1471.88 894.04 1475.17 895 1477.43 896.92C1479.73 898.797 1481.05 901.336 1481.39 904.536H1476.47ZM1504.34 931.608C1508.56 931.608 1510.97 929.752 1511.57 926.04H1516.75C1516.28 929.112 1514.92 931.501 1512.66 933.208C1510.44 934.872 1507.66 935.704 1504.34 935.704C1500.24 935.704 1496.91 934.253 1494.35 931.352C1491.79 928.408 1490.51 924.504 1490.51 919.64C1490.51 914.776 1491.79 910.893 1494.35 907.992C1496.96 905.091 1500.39 903.64 1504.66 903.64C1508.97 903.64 1512.17 905.304 1514.26 908.632C1516.39 911.96 1517.14 916.013 1516.5 920.792H1495.57C1495.57 923.949 1496.34 926.552 1497.87 928.6C1499.41 930.605 1501.56 931.608 1504.34 931.608ZM1508.05 908.44C1507.07 907.928 1505.87 907.672 1504.46 907.672C1501.86 907.672 1499.79 908.568 1498.26 910.36C1496.76 912.109 1495.89 914.307 1495.63 916.952H1511.95C1511.95 912.685 1510.65 909.848 1508.05 908.44ZM1537.27 931.608C1541.5 931.608 1543.91 929.752 1544.51 926.04H1549.69C1549.22 929.112 1547.86 931.501 1545.59 933.208C1543.38 934.872 1540.6 935.704 1537.27 935.704C1533.18 935.704 1529.85 934.253 1527.29 931.352C1524.73 928.408 1523.45 924.504 1523.45 919.64C1523.45 914.776 1524.73 910.893 1527.29 907.992C1529.89 905.091 1533.33 903.64 1537.59 903.64C1541.9 903.64 1545.1 905.304 1547.19 908.632C1549.33 911.96 1550.07 916.013 1549.43 920.792H1528.51C1528.51 923.949 1529.27 926.552 1530.81 928.6C1532.35 930.605 1534.5 931.608 1537.27 931.608ZM1540.99 908.44C1540 907.928 1538.81 907.672 1537.4 907.672C1534.8 907.672 1532.73 908.568 1531.19 910.36C1529.7 912.109 1528.83 914.307 1528.57 916.952H1544.89C1544.89 912.685 1543.59 909.848 1540.99 908.44ZM1592.76 924.12H1582.9L1582.01 933.016H1577.27L1578.17 924.12H1571.83L1572.15 920.664H1578.55L1579.77 909.272H1573.3L1573.69 905.88H1580.09L1581.05 897.048H1585.78L1584.82 905.88H1594.68L1595.64 897.048H1600.31L1599.35 905.88H1605.94L1605.56 909.272H1599.03L1597.81 920.664H1604.41L1604.02 924.12H1597.43L1596.53 933.016H1591.8L1592.76 924.12ZM1583.29 920.664H1593.08L1594.29 909.272H1584.5L1583.29 920.664ZM1630.66 904.408L1639.88 929.688L1649.16 904.408H1654.85L1642.69 935H1637.12L1624.96 904.408H1630.66ZM1662.78 904.344H1667.84V935H1662.78V904.344ZM1665.28 897.176C1664.26 897.176 1663.45 896.899 1662.85 896.344C1662.29 895.747 1662.02 894.979 1662.02 894.04C1662.02 893.059 1662.29 892.291 1662.85 891.736C1663.45 891.139 1664.26 890.84 1665.28 890.84C1666.3 890.84 1667.11 891.139 1667.71 891.736C1668.35 892.291 1668.67 893.059 1668.67 894.04C1668.67 894.979 1668.35 895.747 1667.71 896.344C1667.11 896.899 1666.3 897.176 1665.28 897.176ZM1692.15 931.608C1696.37 931.608 1698.78 929.752 1699.38 926.04H1704.57C1704.1 929.112 1702.73 931.501 1700.47 933.208C1698.25 934.872 1695.48 935.704 1692.15 935.704C1688.05 935.704 1684.73 934.253 1682.17 931.352C1679.61 928.408 1678.33 924.504 1678.33 919.64C1678.33 914.776 1679.61 910.893 1682.17 907.992C1684.77 905.091 1688.2 903.64 1692.47 903.64C1696.78 903.64 1699.98 905.304 1702.07 908.632C1704.2 911.96 1704.95 916.013 1704.31 920.792H1683.38C1683.38 923.949 1684.15 926.552 1685.69 928.6C1687.22 930.605 1689.38 931.608 1692.15 931.608ZM1695.86 908.44C1694.88 907.928 1693.69 907.672 1692.28 907.672C1689.67 907.672 1687.61 908.568 1686.07 910.36C1684.58 912.109 1683.7 914.307 1683.45 916.952H1699.77C1699.77 912.685 1698.46 909.848 1695.86 908.44ZM1714.46 904.408L1721.89 928.792L1729.18 905.88H1733.41L1740.64 929.048L1748.13 904.408H1753.12L1743.13 935H1738.21L1731.17 913.56L1724.25 935H1719.39L1709.21 904.408H1714.46ZM1771.46 931.608C1775.69 931.608 1778.1 929.752 1778.69 926.04H1783.88C1783.41 929.112 1782.04 931.501 1779.78 933.208C1777.56 934.872 1774.79 935.704 1771.46 935.704C1767.37 935.704 1764.04 934.253 1761.48 931.352C1758.92 928.408 1757.64 924.504 1757.64 919.64C1757.64 914.776 1758.92 910.893 1761.48 907.992C1764.08 905.091 1767.51 903.64 1771.78 903.64C1776.09 903.64 1779.29 905.304 1781.38 908.632C1783.51 911.96 1784.26 916.013 1783.62 920.792H1762.69C1762.69 923.949 1763.46 926.552 1765 928.6C1766.53 930.605 1768.69 931.608 1771.46 931.608ZM1775.17 908.44C1774.19 907.928 1773 907.672 1771.59 907.672C1768.99 907.672 1766.92 908.568 1765.38 910.36C1763.89 912.109 1763.01 914.307 1762.76 916.952H1779.08C1779.08 912.685 1777.78 909.848 1775.17 908.44ZM1806.32 908.696C1801.5 908.696 1799 912.493 1798.83 920.088V935H1793.78V904.344H1798.83V910.232C1800.37 905.965 1803.08 903.832 1806.96 903.832C1808.2 903.832 1809.37 904.024 1810.48 904.408L1810.22 909.336C1808.94 908.909 1807.64 908.696 1806.32 908.696ZM1816.61 911.896C1816.61 909.379 1817.68 907.373 1819.81 905.88C1821.99 904.387 1824.91 903.64 1828.58 903.64C1832.25 903.64 1835.11 904.408 1837.16 905.944C1839.25 907.48 1840.34 909.421 1840.42 911.768H1835.49C1835.11 908.995 1832.76 907.608 1828.45 907.608C1826.36 907.608 1824.74 908.077 1823.59 909.016C1822.48 909.955 1821.93 910.979 1821.93 912.088C1821.93 913.155 1822.35 914.072 1823.21 914.84C1824.06 915.565 1825.42 916.205 1827.3 916.76L1833.45 918.808C1836.05 919.619 1838.03 920.664 1839.4 921.944C1840.81 923.181 1841.51 924.909 1841.51 927.128C1841.51 929.304 1840.38 931.288 1838.12 933.08C1835.86 934.829 1832.7 935.704 1828.65 935.704C1824.59 935.704 1821.44 934.808 1819.17 933.016C1816.91 931.181 1815.72 928.835 1815.59 925.976H1820.45C1820.54 927.896 1821.31 929.347 1822.76 930.328C1824.25 931.267 1826.11 931.736 1828.33 931.736C1830.54 931.736 1832.38 931.267 1833.83 930.328C1835.28 929.389 1836.01 928.28 1836.01 927C1836.01 925.677 1835.58 924.675 1834.73 923.992C1833.87 923.309 1832.49 922.712 1830.57 922.2L1824.61 920.216C1819.28 918.637 1816.61 915.864 1816.61 911.896Z" fill="#181E53"/>
<rect x="96" y="792" width="812" height="243" rx="40" fill="white"/>
<path d="M346.354 894.04C350.663 894.04 354.119 895.128 356.722 897.304C359.367 899.437 361.18 902.232 362.162 905.688L356.722 906.776C355.868 904.259 354.524 902.275 352.69 900.824C350.898 899.331 348.786 898.584 346.354 898.584C342.983 898.584 340.188 899.992 337.97 902.808C335.751 905.624 334.642 909.549 334.642 914.584C334.642 919.576 335.623 923.587 337.586 926.616C339.591 929.645 342.514 931.16 346.354 931.16C349.554 931.16 352.071 930.328 353.906 928.664C355.783 926.957 356.722 924.717 356.722 921.944H362.162C362.162 926.168 360.711 929.517 357.81 931.992C354.951 934.467 351.004 935.704 345.97 935.704C340.978 935.704 336.924 933.784 333.81 929.944C330.738 926.104 329.202 920.963 329.202 914.52C329.202 908.077 330.802 903.064 334.002 899.48C337.202 895.853 341.319 894.04 346.354 894.04ZM390.596 915.16C390.596 912.387 390.02 910.403 388.868 909.208C387.716 908.013 386.03 907.416 383.812 907.416C381.636 907.416 379.865 907.864 378.5 908.76C377.177 909.613 376.516 910.979 376.516 912.856H370.948C370.948 908.163 373.465 905.261 378.5 904.152C380.036 903.811 381.7 903.64 383.492 903.64C387.289 903.64 390.254 904.6 392.388 906.52C394.521 908.44 395.588 911.363 395.588 915.288V935H391.236L390.724 929.88C388.846 933.763 385.454 935.704 380.548 935.704C377.262 935.704 374.617 934.787 372.612 932.952C370.649 931.117 369.668 928.835 369.668 926.104C369.668 923.373 370.756 921.24 372.932 919.704C375.15 918.168 377.902 917.4 381.188 917.4C384.473 917.4 387.609 917.955 390.596 919.064V915.16ZM390.596 922.264C387.566 921.411 384.921 920.984 382.66 920.984C380.398 920.984 378.564 921.389 377.156 922.2C375.748 923.011 375.044 924.291 375.044 926.04C375.044 929.88 377.22 931.8 381.572 931.8C384.046 931.8 386.158 930.925 387.908 929.176C389.7 927.384 390.596 925.08 390.596 922.264ZM412.328 910.296C414.333 905.859 417.768 903.64 422.632 903.64C425.277 903.64 427.496 904.301 429.288 905.624C431.08 906.904 432.381 908.696 433.192 911C435.112 906.093 438.675 903.64 443.88 903.64C447.549 903.64 450.387 904.835 452.392 907.224C454.397 909.613 455.4 912.877 455.4 917.016V935H450.408V917.016C450.408 914.072 449.704 911.853 448.296 910.36C446.931 908.867 444.947 908.12 442.344 908.12C439.741 908.12 437.715 909.187 436.264 911.32C434.856 913.453 434.152 916.397 434.152 920.152V935H429.16V917.016C429.16 914.072 428.456 911.853 427.048 910.36C425.683 908.867 423.72 908.12 421.16 908.12C418.6 908.12 416.531 909.165 414.952 911.256C413.373 913.347 412.541 916.248 412.456 919.96V935H407.4V904.408H411.752L412.328 910.296ZM501.471 915.16C501.471 912.387 500.895 910.403 499.743 909.208C498.591 908.013 496.905 907.416 494.687 907.416C492.511 907.416 490.74 907.864 489.375 908.76C488.052 909.613 487.391 910.979 487.391 912.856H481.823C481.823 908.163 484.34 905.261 489.375 904.152C490.911 903.811 492.575 903.64 494.367 903.64C498.164 903.64 501.129 904.6 503.263 906.52C505.396 908.44 506.463 911.363 506.463 915.288V935H502.111L501.599 929.88C499.721 933.763 496.329 935.704 491.423 935.704C488.137 935.704 485.492 934.787 483.487 932.952C481.524 931.117 480.543 928.835 480.543 926.104C480.543 923.373 481.631 921.24 483.807 919.704C486.025 918.168 488.777 917.4 492.062 917.4C495.348 917.4 498.484 917.955 501.471 919.064V915.16ZM501.471 922.264C498.441 921.411 495.796 920.984 493.535 920.984C491.273 920.984 489.439 921.389 488.031 922.2C486.623 923.011 485.919 924.291 485.919 926.04C485.919 929.88 488.095 931.8 492.447 931.8C494.921 931.8 497.033 930.925 498.783 929.176C500.575 927.384 501.471 925.08 501.471 922.264ZM528.515 903.64C532.142 903.64 535.022 904.579 537.155 906.456C539.288 908.291 540.675 910.595 541.315 913.368L536.195 913.816C535.64 912.024 534.744 910.637 533.507 909.656C532.27 908.632 530.904 908.12 529.411 908.12C526.68 908.12 524.462 909.144 522.755 911.192C521.091 913.24 520.259 916.035 520.259 919.576C520.259 923.075 521.07 925.891 522.691 928.024C524.355 930.157 526.403 931.224 528.835 931.224C531.31 931.224 533.144 930.669 534.339 929.56C535.576 928.408 536.195 926.787 536.195 924.696H541.379C541.379 927.981 540.227 930.648 537.923 932.696C535.662 934.701 532.696 935.704 529.027 935.704C525.144 935.704 521.838 934.232 519.107 931.288C516.419 928.344 515.075 924.44 515.075 919.576C515.075 914.669 516.419 910.787 519.107 907.928C521.795 905.069 524.931 903.64 528.515 903.64ZM561.453 903.64C565.079 903.64 567.959 904.579 570.093 906.456C572.226 908.291 573.613 910.595 574.253 913.368L569.133 913.816C568.578 912.024 567.682 910.637 566.445 909.656C565.207 908.632 563.842 908.12 562.349 908.12C559.618 908.12 557.399 909.144 555.693 911.192C554.029 913.24 553.197 916.035 553.197 919.576C553.197 923.075 554.007 925.891 555.629 928.024C557.293 930.157 559.341 931.224 561.773 931.224C564.247 931.224 566.082 930.669 567.277 929.56C568.514 928.408 569.133 926.787 569.133 924.696H574.317C574.317 927.981 573.165 930.648 570.861 932.696C568.599 934.701 565.634 935.704 561.965 935.704C558.082 935.704 554.775 934.232 552.045 931.288C549.357 928.344 548.013 924.44 548.013 919.576C548.013 914.669 549.357 910.787 552.045 907.928C554.733 905.069 557.869 903.64 561.453 903.64ZM594.774 931.608C598.998 931.608 601.409 929.752 602.006 926.04H607.19C606.721 929.112 605.355 931.501 603.094 933.208C600.875 934.872 598.102 935.704 594.774 935.704C590.678 935.704 587.35 934.253 584.79 931.352C582.23 928.408 580.95 924.504 580.95 919.64C580.95 914.776 582.23 910.893 584.79 907.992C587.393 905.091 590.827 903.64 595.094 903.64C599.403 903.64 602.603 905.304 604.694 908.632C606.827 911.96 607.574 916.013 606.934 920.792H586.006C586.006 923.949 586.774 926.552 588.31 928.6C589.846 930.605 592.001 931.608 594.774 931.608ZM598.486 908.44C597.505 907.928 596.31 907.672 594.902 907.672C592.299 907.672 590.23 908.568 588.694 910.36C587.201 912.109 586.326 914.307 586.07 916.952H602.39C602.39 912.685 601.089 909.848 598.486 908.44ZM615.552 911.896C615.552 909.379 616.618 907.373 618.752 905.88C620.928 904.387 623.85 903.64 627.52 903.64C631.189 903.64 634.048 904.408 636.096 905.944C638.186 907.48 639.274 909.421 639.36 911.768H634.432C634.048 908.995 631.701 907.608 627.392 907.608C625.301 907.608 623.68 908.077 622.528 909.016C621.418 909.955 620.864 910.979 620.864 912.088C620.864 913.155 621.29 914.072 622.144 914.84C622.997 915.565 624.362 916.205 626.24 916.76L632.384 918.808C634.986 919.619 636.97 920.664 638.336 921.944C639.744 923.181 640.448 924.909 640.448 927.128C640.448 929.304 639.317 931.288 637.056 933.08C634.794 934.829 631.637 935.704 627.583 935.704C623.53 935.704 620.373 934.808 618.112 933.016C615.85 931.181 614.656 928.835 614.528 925.976H619.392C619.477 927.896 620.245 929.347 621.696 930.328C623.189 931.267 625.045 931.736 627.264 931.736C629.482 931.736 631.317 931.267 632.768 930.328C634.218 929.389 634.944 928.28 634.944 927C634.944 925.677 634.517 924.675 633.664 923.992C632.81 923.309 631.424 922.712 629.503 922.2L623.552 920.216C618.218 918.637 615.552 915.864 615.552 911.896ZM649.239 911.896C649.239 909.379 650.306 907.373 652.439 905.88C654.615 904.387 657.538 903.64 661.207 903.64C664.876 903.64 667.735 904.408 669.783 905.944C671.874 907.48 672.962 909.421 673.047 911.768H668.119C667.735 908.995 665.388 907.608 661.079 907.608C658.988 907.608 657.367 908.077 656.215 909.016C655.106 909.955 654.551 910.979 654.551 912.088C654.551 913.155 654.978 914.072 655.831 914.84C656.684 915.565 658.05 916.205 659.927 916.76L666.071 918.808C668.674 919.619 670.658 920.664 672.023 921.944C673.431 923.181 674.135 924.909 674.135 927.128C674.135 929.304 673.004 931.288 670.743 933.08C668.482 934.829 665.324 935.704 661.271 935.704C657.218 935.704 654.06 934.808 651.799 933.016C649.538 931.181 648.343 928.835 648.215 925.976H653.079C653.164 927.896 653.932 929.347 655.383 930.328C656.876 931.267 658.732 931.736 660.951 931.736C663.17 931.736 665.004 931.267 666.455 930.328C667.906 929.389 668.631 928.28 668.631 927C668.631 925.677 668.204 924.675 667.351 923.992C666.498 923.309 665.111 922.712 663.191 922.2L657.239 920.216C651.906 918.637 649.239 915.864 649.239 911.896Z" fill="#181E53"/>
<rect x="1241" y="1148" width="812" height="243" rx="40" fill="white"/>
<path d="M1461.19 1260.54C1460.46 1256.61 1457.58 1254.65 1452.55 1254.65C1449.86 1254.65 1447.79 1255.25 1446.34 1256.44C1444.89 1257.59 1444.16 1259 1444.16 1260.66C1444.16 1262.29 1444.61 1263.52 1445.51 1264.38C1446.4 1265.23 1447.85 1265.98 1449.86 1266.62L1458.24 1269.5C1461.1 1270.48 1463.36 1271.82 1465.03 1273.53C1466.73 1275.23 1467.59 1277.65 1467.59 1280.76C1467.59 1283.83 1466.26 1286.43 1463.62 1288.57C1460.97 1290.66 1457.43 1291.7 1452.99 1291.7C1448.56 1291.7 1444.91 1290.59 1442.05 1288.38C1439.23 1286.11 1437.78 1282.96 1437.7 1278.9H1442.63C1442.63 1281.55 1443.54 1283.58 1445.38 1284.98C1447.25 1286.39 1449.64 1287.1 1452.55 1287.1C1455.49 1287.1 1457.81 1286.46 1459.52 1285.18C1461.23 1283.85 1462.08 1282.32 1462.08 1280.57C1462.08 1278.78 1461.55 1277.37 1460.48 1276.34C1459.46 1275.32 1457.92 1274.47 1455.87 1273.78L1448.77 1271.16C1445.44 1270.05 1442.92 1268.73 1441.22 1267.19C1439.51 1265.66 1438.66 1263.42 1438.66 1260.47C1438.66 1257.49 1439.85 1255.01 1442.24 1253.05C1444.63 1251.04 1447.98 1250.04 1452.29 1250.04C1456.6 1250.04 1459.88 1251 1462.15 1252.92C1464.45 1254.8 1465.77 1257.34 1466.11 1260.54H1461.19ZM1489.06 1287.61C1493.28 1287.61 1495.69 1285.75 1496.29 1282.04H1501.47C1501 1285.11 1499.64 1287.5 1497.38 1289.21C1495.16 1290.87 1492.38 1291.7 1489.06 1291.7C1484.96 1291.7 1481.63 1290.25 1479.07 1287.35C1476.51 1284.41 1475.23 1280.5 1475.23 1275.64C1475.23 1270.78 1476.51 1266.89 1479.07 1263.99C1481.67 1261.09 1485.11 1259.64 1489.38 1259.64C1493.68 1259.64 1496.88 1261.3 1498.98 1264.63C1501.11 1267.96 1501.86 1272.01 1501.22 1276.79H1480.29C1480.29 1279.95 1481.06 1282.55 1482.59 1284.6C1484.13 1286.61 1486.28 1287.61 1489.06 1287.61ZM1492.77 1264.44C1491.79 1263.93 1490.59 1263.67 1489.18 1263.67C1486.58 1263.67 1484.51 1264.57 1482.98 1266.36C1481.48 1268.11 1480.61 1270.31 1480.35 1272.95H1496.67C1496.67 1268.69 1495.37 1265.85 1492.77 1264.44ZM1521.99 1287.61C1526.22 1287.61 1528.63 1285.75 1529.22 1282.04H1534.41C1533.94 1285.11 1532.57 1287.5 1530.31 1289.21C1528.09 1290.87 1525.32 1291.7 1521.99 1291.7C1517.9 1291.7 1514.57 1290.25 1512.01 1287.35C1509.45 1284.41 1508.17 1280.5 1508.17 1275.64C1508.17 1270.78 1509.45 1266.89 1512.01 1263.99C1514.61 1261.09 1518.05 1259.64 1522.31 1259.64C1526.62 1259.64 1529.82 1261.3 1531.91 1264.63C1534.05 1267.96 1534.79 1272.01 1534.15 1276.79H1513.22C1513.22 1279.95 1513.99 1282.55 1515.53 1284.6C1517.06 1286.61 1519.22 1287.61 1521.99 1287.61ZM1525.7 1264.44C1524.72 1263.93 1523.53 1263.67 1522.12 1263.67C1519.52 1263.67 1517.45 1264.57 1515.91 1266.36C1514.42 1268.11 1513.54 1270.31 1513.29 1272.95H1529.61C1529.61 1268.69 1528.31 1265.85 1525.7 1264.44ZM1559.62 1247.42H1564.68V1291H1559.62V1247.42ZM1577.88 1260.34H1582.93V1291H1577.88V1260.34ZM1580.37 1253.18C1579.35 1253.18 1578.54 1252.9 1577.94 1252.34C1577.39 1251.75 1577.11 1250.98 1577.11 1250.04C1577.11 1249.06 1577.39 1248.29 1577.94 1247.74C1578.54 1247.14 1579.35 1246.84 1580.37 1246.84C1581.4 1246.84 1582.21 1247.14 1582.81 1247.74C1583.45 1248.29 1583.77 1249.06 1583.77 1250.04C1583.77 1250.98 1583.45 1251.75 1582.81 1252.34C1582.21 1252.9 1581.4 1253.18 1580.37 1253.18ZM1597.07 1260.41L1606.28 1285.69L1615.56 1260.41H1621.26L1609.1 1291H1603.53L1591.37 1260.41H1597.07ZM1639.43 1287.61C1643.65 1287.61 1646.06 1285.75 1646.66 1282.04H1651.85C1651.38 1285.11 1650.01 1287.5 1647.75 1289.21C1645.53 1290.87 1642.76 1291.7 1639.43 1291.7C1635.33 1291.7 1632.01 1290.25 1629.45 1287.35C1626.89 1284.41 1625.61 1280.5 1625.61 1275.64C1625.61 1270.78 1626.89 1266.89 1629.45 1263.99C1632.05 1261.09 1635.48 1259.64 1639.75 1259.64C1644.06 1259.64 1647.26 1261.3 1649.35 1264.63C1651.48 1267.96 1652.23 1272.01 1651.59 1276.79H1630.66C1630.66 1279.95 1631.43 1282.55 1632.97 1284.6C1634.5 1286.61 1636.66 1287.61 1639.43 1287.61ZM1643.14 1264.44C1642.16 1263.93 1640.97 1263.67 1639.56 1263.67C1636.96 1263.67 1634.89 1264.57 1633.35 1266.36C1631.86 1268.11 1630.98 1270.31 1630.73 1272.95H1647.05C1647.05 1268.69 1645.74 1265.85 1643.14 1264.44ZM1675.46 1267.9C1675.46 1265.38 1676.52 1263.37 1678.66 1261.88C1680.83 1260.39 1683.76 1259.64 1687.43 1259.64C1691.1 1259.64 1693.95 1260.41 1696 1261.94C1698.09 1263.48 1699.18 1265.42 1699.27 1267.77H1694.34C1693.95 1264.99 1691.61 1263.61 1687.3 1263.61C1685.21 1263.61 1683.59 1264.08 1682.43 1265.02C1681.32 1265.95 1680.77 1266.98 1680.77 1268.09C1680.77 1269.15 1681.2 1270.07 1682.05 1270.84C1682.9 1271.57 1684.27 1272.21 1686.15 1272.76L1692.29 1274.81C1694.89 1275.62 1696.88 1276.66 1698.24 1277.94C1699.65 1279.18 1700.35 1280.91 1700.35 1283.13C1700.35 1285.3 1699.22 1287.29 1696.96 1289.08C1694.7 1290.83 1691.54 1291.7 1687.49 1291.7C1683.44 1291.7 1680.28 1290.81 1678.02 1289.02C1675.76 1287.18 1674.56 1284.83 1674.43 1281.98H1679.3C1679.38 1283.9 1680.15 1285.35 1681.6 1286.33C1683.1 1287.27 1684.95 1287.74 1687.17 1287.74C1689.39 1287.74 1691.22 1287.27 1692.67 1286.33C1694.12 1285.39 1694.85 1284.28 1694.85 1283C1694.85 1281.68 1694.42 1280.67 1693.57 1279.99C1692.72 1279.31 1691.33 1278.71 1689.41 1278.2L1683.46 1276.22C1678.12 1274.64 1675.46 1271.86 1675.46 1267.9ZM1726.75 1290.1C1723.08 1291.81 1719.73 1292.17 1716.7 1291.19C1714.52 1290.51 1712.99 1289.08 1712.09 1286.9C1711.62 1285.84 1711.39 1284.56 1711.39 1283.06V1264.25H1706.46V1260.41H1711.39V1251.9H1716.38V1260.41H1725.98V1264.25H1716.38V1283C1716.38 1286.11 1717.83 1287.67 1720.73 1287.67C1722.31 1287.67 1724.08 1287.29 1726.04 1286.52L1726.75 1290.1ZM1753.75 1271.16C1753.75 1268.39 1753.18 1266.4 1752.02 1265.21C1750.87 1264.01 1749.19 1263.42 1746.97 1263.42C1744.79 1263.42 1743.02 1263.86 1741.66 1264.76C1740.33 1265.61 1739.67 1266.98 1739.67 1268.86H1734.1C1734.1 1264.16 1736.62 1261.26 1741.66 1260.15C1743.19 1259.81 1744.86 1259.64 1746.65 1259.64C1750.45 1259.64 1753.41 1260.6 1755.54 1262.52C1757.68 1264.44 1758.74 1267.36 1758.74 1271.29V1291H1754.39L1753.88 1285.88C1752 1289.76 1748.61 1291.7 1743.7 1291.7C1740.42 1291.7 1737.77 1290.79 1735.77 1288.95C1733.81 1287.12 1732.82 1284.83 1732.82 1282.1C1732.82 1279.37 1733.91 1277.24 1736.09 1275.7C1738.31 1274.17 1741.06 1273.4 1744.34 1273.4C1747.63 1273.4 1750.77 1273.95 1753.75 1275.06V1271.16ZM1753.75 1278.26C1750.72 1277.41 1748.08 1276.98 1745.82 1276.98C1743.55 1276.98 1741.72 1277.39 1740.31 1278.2C1738.9 1279.01 1738.2 1280.29 1738.2 1282.04C1738.2 1285.88 1740.38 1287.8 1744.73 1287.8C1747.2 1287.8 1749.31 1286.93 1751.06 1285.18C1752.86 1283.38 1753.75 1281.08 1753.75 1278.26ZM1786.62 1290.1C1782.95 1291.81 1779.6 1292.17 1776.57 1291.19C1774.4 1290.51 1772.86 1289.08 1771.96 1286.9C1771.49 1285.84 1771.26 1284.56 1771.26 1283.06V1264.25H1766.33V1260.41H1771.26V1251.9H1776.25V1260.41H1785.85V1264.25H1776.25V1283C1776.25 1286.11 1777.7 1287.67 1780.6 1287.67C1782.18 1287.67 1783.95 1287.29 1785.92 1286.52L1786.62 1290.1ZM1815.48 1284.92C1813.39 1289.36 1810 1291.58 1805.31 1291.58C1801.85 1291.58 1799.06 1290.62 1796.92 1288.7C1794.83 1286.78 1793.79 1283.81 1793.79 1279.8V1260.34H1798.84V1279.42C1798.84 1284.58 1801.23 1287.16 1806.01 1287.16C1808.78 1287.16 1811.02 1286.09 1812.73 1283.96C1814.48 1281.83 1815.4 1279.1 1815.48 1275.77V1260.34H1820.54V1291H1815.48V1284.92ZM1831.9 1267.9C1831.9 1265.38 1832.96 1263.37 1835.1 1261.88C1837.27 1260.39 1840.19 1259.64 1843.86 1259.64C1847.53 1259.64 1850.39 1260.41 1852.44 1261.94C1854.53 1263.48 1855.62 1265.42 1855.7 1267.77H1850.78C1850.39 1264.99 1848.04 1263.61 1843.74 1263.61C1841.64 1263.61 1840.02 1264.08 1838.87 1265.02C1837.76 1265.95 1837.21 1266.98 1837.21 1268.09C1837.21 1269.15 1837.63 1270.07 1838.49 1270.84C1839.34 1271.57 1840.71 1272.21 1842.58 1272.76L1848.73 1274.81C1851.33 1275.62 1853.31 1276.66 1854.68 1277.94C1856.09 1279.18 1856.79 1280.91 1856.79 1283.13C1856.79 1285.3 1855.66 1287.29 1853.4 1289.08C1851.14 1290.83 1847.98 1291.7 1843.93 1291.7C1839.87 1291.7 1836.72 1290.81 1834.46 1289.02C1832.19 1287.18 1831 1284.83 1830.87 1281.98H1835.74C1835.82 1283.9 1836.59 1285.35 1838.04 1286.33C1839.53 1287.27 1841.39 1287.74 1843.61 1287.74C1845.83 1287.74 1847.66 1287.27 1849.11 1286.33C1850.56 1285.39 1851.29 1284.28 1851.29 1283C1851.29 1281.68 1850.86 1280.67 1850.01 1279.99C1849.15 1279.31 1847.77 1278.71 1845.85 1278.2L1839.9 1276.22C1834.56 1274.64 1831.9 1271.86 1831.9 1267.9Z" fill="#181E53"/>
<rect x="1241" y="1504" width="812" height="243" rx="40" fill="white"/>
<path d="M1476.69 1616.54C1475.96 1612.61 1473.08 1610.65 1468.05 1610.65C1465.36 1610.65 1463.29 1611.25 1461.84 1612.44C1460.39 1613.59 1459.66 1615 1459.66 1616.66C1459.66 1618.29 1460.11 1619.52 1461.01 1620.38C1461.9 1621.23 1463.35 1621.98 1465.36 1622.62L1473.74 1625.5C1476.6 1626.48 1478.86 1627.82 1480.53 1629.53C1482.23 1631.23 1483.09 1633.65 1483.09 1636.76C1483.09 1639.83 1481.76 1642.43 1479.12 1644.57C1476.47 1646.66 1472.93 1647.7 1468.49 1647.7C1464.06 1647.7 1460.41 1646.59 1457.55 1644.38C1454.73 1642.11 1453.28 1638.96 1453.2 1634.9H1458.13C1458.13 1637.55 1459.04 1639.58 1460.88 1640.98C1462.75 1642.39 1465.14 1643.1 1468.05 1643.1C1470.99 1643.1 1473.31 1642.46 1475.02 1641.18C1476.73 1639.85 1477.58 1638.32 1477.58 1636.57C1477.58 1634.78 1477.05 1633.37 1475.98 1632.34C1474.96 1631.32 1473.42 1630.47 1471.37 1629.78L1464.27 1627.16C1460.94 1626.05 1458.42 1624.73 1456.72 1623.19C1455.01 1621.66 1454.16 1619.42 1454.16 1616.47C1454.16 1613.49 1455.35 1611.01 1457.74 1609.05C1460.13 1607.04 1463.48 1606.04 1467.79 1606.04C1472.1 1606.04 1475.38 1607 1477.65 1608.92C1479.95 1610.8 1481.27 1613.34 1481.61 1616.54H1476.69ZM1499.05 1622.04C1501.1 1617.77 1504.49 1615.64 1509.23 1615.64C1512.85 1615.64 1515.67 1616.83 1517.68 1619.22C1519.72 1621.61 1520.75 1624.88 1520.75 1629.02V1647H1515.76V1629.02C1515.76 1626.07 1515.05 1623.85 1513.64 1622.36C1512.28 1620.87 1510.29 1620.12 1507.69 1620.12C1505.09 1620.12 1503 1621.23 1501.42 1623.45C1499.84 1625.62 1499.05 1628.65 1499.05 1632.54V1647H1494V1603.42H1499.05V1622.04ZM1551.56 1627.16C1551.56 1624.39 1550.99 1622.4 1549.84 1621.21C1548.68 1620.01 1547 1619.42 1544.78 1619.42C1542.6 1619.42 1540.83 1619.86 1539.47 1620.76C1538.15 1621.61 1537.48 1622.98 1537.48 1624.86H1531.92C1531.92 1620.16 1534.43 1617.26 1539.47 1616.15C1541 1615.81 1542.67 1615.64 1544.46 1615.64C1548.26 1615.64 1551.22 1616.6 1553.36 1618.52C1555.49 1620.44 1556.56 1623.36 1556.56 1627.29V1647H1552.2L1551.69 1641.88C1549.81 1645.76 1546.42 1647.7 1541.52 1647.7C1538.23 1647.7 1535.59 1646.79 1533.58 1644.95C1531.62 1643.12 1530.64 1640.83 1530.64 1638.1C1530.64 1635.37 1531.72 1633.24 1533.9 1631.7C1536.12 1630.17 1538.87 1629.4 1542.16 1629.4C1545.44 1629.4 1548.58 1629.95 1551.56 1631.06V1627.16ZM1551.56 1634.26C1548.53 1633.41 1545.89 1632.98 1543.63 1632.98C1541.37 1632.98 1539.53 1633.39 1538.12 1634.2C1536.72 1635.01 1536.01 1636.29 1536.01 1638.04C1536.01 1641.88 1538.19 1643.8 1542.54 1643.8C1545.01 1643.8 1547.13 1642.93 1548.88 1641.18C1550.67 1639.38 1551.56 1637.08 1551.56 1634.26ZM1580.91 1620.7C1576.09 1620.7 1573.6 1624.49 1573.42 1632.09V1647H1568.37V1616.34H1573.42V1622.23C1574.96 1617.97 1577.67 1615.83 1581.55 1615.83C1582.79 1615.83 1583.96 1616.02 1585.07 1616.41L1584.82 1621.34C1583.54 1620.91 1582.24 1620.7 1580.91 1620.7ZM1603.37 1643.61C1607.59 1643.61 1610 1641.75 1610.6 1638.04H1615.78C1615.31 1641.11 1613.95 1643.5 1611.69 1645.21C1609.47 1646.87 1606.7 1647.7 1603.37 1647.7C1599.27 1647.7 1595.94 1646.25 1593.38 1643.35C1590.82 1640.41 1589.54 1636.5 1589.54 1631.64C1589.54 1626.78 1590.82 1622.89 1593.38 1619.99C1595.99 1617.09 1599.42 1615.64 1603.69 1615.64C1608 1615.64 1611.2 1617.3 1613.29 1620.63C1615.42 1623.96 1616.17 1628.01 1615.53 1632.79H1594.6C1594.6 1635.95 1595.37 1638.55 1596.9 1640.6C1598.44 1642.61 1600.59 1643.61 1603.37 1643.61ZM1607.08 1620.44C1606.1 1619.93 1604.9 1619.67 1603.5 1619.67C1600.89 1619.67 1598.82 1620.57 1597.29 1622.36C1595.79 1624.11 1594.92 1626.31 1594.66 1628.95H1610.98C1610.98 1624.69 1609.68 1621.85 1607.08 1620.44ZM1639.4 1623.9C1639.4 1621.38 1640.46 1619.37 1642.6 1617.88C1644.77 1616.39 1647.69 1615.64 1651.36 1615.64C1655.03 1615.64 1657.89 1616.41 1659.94 1617.94C1662.03 1619.48 1663.12 1621.42 1663.2 1623.77H1658.28C1657.89 1620.99 1655.54 1619.61 1651.24 1619.61C1649.14 1619.61 1647.52 1620.08 1646.37 1621.02C1645.26 1621.95 1644.71 1622.98 1644.71 1624.09C1644.71 1625.15 1645.13 1626.07 1645.99 1626.84C1646.84 1627.57 1648.21 1628.21 1650.08 1628.76L1656.23 1630.81C1658.83 1631.62 1660.81 1632.66 1662.18 1633.94C1663.59 1635.18 1664.29 1636.91 1664.29 1639.13C1664.29 1641.3 1663.16 1643.29 1660.9 1645.08C1658.64 1646.83 1655.48 1647.7 1651.43 1647.7C1647.37 1647.7 1644.22 1646.81 1641.96 1645.02C1639.69 1643.18 1638.5 1640.83 1638.37 1637.98H1643.24C1643.32 1639.9 1644.09 1641.35 1645.54 1642.33C1647.03 1643.27 1648.89 1643.74 1651.11 1643.74C1653.33 1643.74 1655.16 1643.27 1656.61 1642.33C1658.06 1641.39 1658.79 1640.28 1658.79 1639C1658.79 1637.68 1658.36 1636.67 1657.51 1635.99C1656.65 1635.31 1655.27 1634.71 1653.35 1634.2L1647.4 1632.22C1642.06 1630.64 1639.4 1627.86 1639.4 1623.9ZM1690.68 1646.1C1687.01 1647.81 1683.66 1648.17 1680.63 1647.19C1678.46 1646.51 1676.92 1645.08 1676.03 1642.9C1675.56 1641.84 1675.32 1640.56 1675.32 1639.06V1620.25H1670.39V1616.41H1675.32V1607.9H1680.31V1616.41H1689.91V1620.25H1680.31V1639C1680.31 1642.11 1681.77 1643.67 1684.67 1643.67C1686.25 1643.67 1688.02 1643.29 1689.98 1642.52L1690.68 1646.1ZM1711.23 1620.7C1706.4 1620.7 1703.91 1624.49 1703.74 1632.09V1647H1698.68V1616.34H1703.74V1622.23C1705.27 1617.97 1707.98 1615.83 1711.87 1615.83C1713.1 1615.83 1714.28 1616.02 1715.39 1616.41L1715.13 1621.34C1713.85 1620.91 1712.55 1620.7 1711.23 1620.7ZM1733.68 1643.61C1737.9 1643.61 1740.31 1641.75 1740.91 1638.04H1746.1C1745.63 1641.11 1744.26 1643.5 1742 1645.21C1739.78 1646.87 1737.01 1647.7 1733.68 1647.7C1729.58 1647.7 1726.26 1646.25 1723.7 1643.35C1721.14 1640.41 1719.86 1636.5 1719.86 1631.64C1719.86 1626.78 1721.14 1622.89 1723.7 1619.99C1726.3 1617.09 1729.73 1615.64 1734 1615.64C1738.31 1615.64 1741.51 1617.3 1743.6 1620.63C1745.73 1623.96 1746.48 1628.01 1745.84 1632.79H1724.91C1724.91 1635.95 1725.68 1638.55 1727.22 1640.6C1728.75 1642.61 1730.91 1643.61 1733.68 1643.61ZM1737.39 1620.44C1736.41 1619.93 1735.22 1619.67 1733.81 1619.67C1731.21 1619.67 1729.14 1620.57 1727.6 1622.36C1726.11 1624.11 1725.23 1626.31 1724.98 1628.95H1741.3C1741.3 1624.69 1739.99 1621.85 1737.39 1620.44ZM1775 1627.16C1775 1624.39 1774.43 1622.4 1773.27 1621.21C1772.12 1620.01 1770.44 1619.42 1768.22 1619.42C1766.04 1619.42 1764.27 1619.86 1762.91 1620.76C1761.58 1621.61 1760.92 1622.98 1760.92 1624.86H1755.35C1755.35 1620.16 1757.87 1617.26 1762.91 1616.15C1764.44 1615.81 1766.11 1615.64 1767.9 1615.64C1771.7 1615.64 1774.66 1616.6 1776.79 1618.52C1778.93 1620.44 1779.99 1623.36 1779.99 1627.29V1647H1775.64L1775.13 1641.88C1773.25 1645.76 1769.86 1647.7 1764.95 1647.7C1761.67 1647.7 1759.02 1646.79 1757.02 1644.95C1755.06 1643.12 1754.07 1640.83 1754.07 1638.1C1754.07 1635.37 1755.16 1633.24 1757.34 1631.7C1759.56 1630.17 1762.31 1629.4 1765.59 1629.4C1768.88 1629.4 1772.02 1629.95 1775 1631.06V1627.16ZM1775 1634.26C1771.97 1633.41 1769.33 1632.98 1767.07 1632.98C1764.8 1632.98 1762.97 1633.39 1761.56 1634.2C1760.15 1635.01 1759.45 1636.29 1759.45 1638.04C1759.45 1641.88 1761.63 1643.8 1765.98 1643.8C1768.45 1643.8 1770.56 1642.93 1772.31 1641.18C1774.11 1639.38 1775 1637.08 1775 1634.26ZM1796.73 1622.3C1798.74 1617.86 1802.17 1615.64 1807.04 1615.64C1809.68 1615.64 1811.9 1616.3 1813.69 1617.62C1815.49 1618.9 1816.79 1620.7 1817.6 1623C1819.52 1618.09 1823.08 1615.64 1828.29 1615.64C1831.96 1615.64 1834.79 1616.83 1836.8 1619.22C1838.8 1621.61 1839.81 1624.88 1839.81 1629.02V1647H1834.81V1629.02C1834.81 1626.07 1834.11 1623.85 1832.7 1622.36C1831.34 1620.87 1829.35 1620.12 1826.75 1620.12C1824.15 1620.12 1822.12 1621.19 1820.67 1623.32C1819.26 1625.45 1818.56 1628.4 1818.56 1632.15V1647H1813.57V1629.02C1813.57 1626.07 1812.86 1623.85 1811.45 1622.36C1810.09 1620.87 1808.13 1620.12 1805.57 1620.12C1803.01 1620.12 1800.94 1621.17 1799.36 1623.26C1797.78 1625.35 1796.95 1628.25 1796.86 1631.96V1647H1791.81V1616.41H1796.16L1796.73 1622.3Z" fill="#181E53"/>
<rect x="2186" y="436" width="812" height="243" rx="40" fill="white"/>
<path d="M2401.59 548.536C2400.87 544.611 2397.99 542.648 2392.95 542.648C2390.26 542.648 2388.19 543.245 2386.74 544.44C2385.29 545.592 2384.57 547 2384.57 548.664C2384.57 550.285 2385.02 551.523 2385.91 552.376C2386.81 553.229 2388.26 553.976 2390.26 554.616L2398.65 557.496C2401.51 558.477 2403.77 559.821 2405.43 561.528C2407.14 563.235 2407.99 565.645 2407.99 568.76C2407.99 571.832 2406.67 574.435 2404.02 576.568C2401.38 578.659 2397.84 579.704 2393.4 579.704C2388.96 579.704 2385.31 578.595 2382.46 576.376C2379.64 574.115 2378.19 570.957 2378.1 566.904H2383.03C2383.03 569.549 2383.95 571.576 2385.78 572.984C2387.66 574.392 2390.05 575.096 2392.95 575.096C2395.9 575.096 2398.22 574.456 2399.93 573.176C2401.63 571.853 2402.49 570.317 2402.49 568.568C2402.49 566.776 2401.95 565.368 2400.89 564.344C2399.86 563.32 2398.33 562.467 2396.28 561.784L2389.18 559.16C2385.85 558.051 2383.33 556.728 2381.62 555.192C2379.92 553.656 2379.06 551.416 2379.06 548.472C2379.06 545.485 2380.26 543.011 2382.65 541.048C2385.04 539.043 2388.39 538.04 2392.7 538.04C2397 538.04 2400.29 539 2402.55 540.92C2404.86 542.797 2406.18 545.336 2406.52 548.536H2401.59ZM2429.46 575.608C2433.69 575.608 2436.1 573.752 2436.69 570.04H2441.88C2441.41 573.112 2440.04 575.501 2437.78 577.208C2435.56 578.872 2432.79 579.704 2429.46 579.704C2425.37 579.704 2422.04 578.253 2419.48 575.352C2416.92 572.408 2415.64 568.504 2415.64 563.64C2415.64 558.776 2416.92 554.893 2419.48 551.992C2422.08 549.091 2425.51 547.64 2429.78 547.64C2434.09 547.64 2437.29 549.304 2439.38 552.632C2441.51 555.96 2442.26 560.013 2441.62 564.792H2420.69C2420.69 567.949 2421.46 570.552 2423 572.6C2424.53 574.605 2426.69 575.608 2429.46 575.608ZM2433.17 552.44C2432.19 551.928 2431 551.672 2429.59 551.672C2426.99 551.672 2424.92 552.568 2423.38 554.36C2421.89 556.109 2421.01 558.307 2420.76 560.952H2437.08C2437.08 556.685 2435.78 553.848 2433.17 552.44ZM2462.4 575.608C2466.62 575.608 2469.03 573.752 2469.63 570.04H2474.82C2474.35 573.112 2472.98 575.501 2470.72 577.208C2468.5 578.872 2465.73 579.704 2462.4 579.704C2458.3 579.704 2454.98 578.253 2452.42 575.352C2449.86 572.408 2448.58 568.504 2448.58 563.64C2448.58 558.776 2449.86 554.893 2452.42 551.992C2455.02 549.091 2458.45 547.64 2462.72 547.64C2467.03 547.64 2470.23 549.304 2472.32 552.632C2474.45 555.96 2475.2 560.013 2474.56 564.792H2453.63C2453.63 567.949 2454.4 570.552 2455.94 572.6C2457.47 574.605 2459.63 575.608 2462.4 575.608ZM2466.11 552.44C2465.13 551.928 2463.94 551.672 2462.53 551.672C2459.92 551.672 2457.86 552.568 2456.32 554.36C2454.83 556.109 2453.95 558.307 2453.7 560.952H2470.02C2470.02 556.685 2468.71 553.848 2466.11 552.44ZM2510.2 547.64C2513.83 547.64 2516.71 548.579 2518.84 550.456C2520.98 552.291 2522.36 554.595 2523 557.368L2517.88 557.816C2517.33 556.024 2516.43 554.637 2515.19 553.656C2513.96 552.632 2512.59 552.12 2511.1 552.12C2508.37 552.12 2506.15 553.144 2504.44 555.192C2502.78 557.24 2501.95 560.035 2501.95 563.576C2501.95 567.075 2502.76 569.891 2504.38 572.024C2506.04 574.157 2508.09 575.224 2510.52 575.224C2513 575.224 2514.83 574.669 2516.03 573.56C2517.26 572.408 2517.88 570.787 2517.88 568.696H2523.07C2523.07 571.981 2521.91 574.648 2519.61 576.696C2517.35 578.701 2514.38 579.704 2510.71 579.704C2506.83 579.704 2503.53 578.232 2500.79 575.288C2498.11 572.344 2496.76 568.44 2496.76 563.576C2496.76 558.669 2498.11 554.787 2500.79 551.928C2503.48 549.069 2506.62 547.64 2510.2 547.64ZM2543.97 547.64C2548.24 547.64 2551.67 549.027 2554.28 551.8C2556.92 554.573 2558.24 558.541 2558.24 563.704C2558.24 568.824 2556.92 572.771 2554.28 575.544C2551.67 578.317 2548.24 579.704 2543.97 579.704C2539.71 579.704 2536.25 578.317 2533.6 575.544C2531 572.771 2529.7 568.824 2529.7 563.704C2529.7 558.541 2531 554.573 2533.6 551.8C2536.25 549.027 2539.71 547.64 2543.97 547.64ZM2553.12 563.704C2553.12 560.035 2552.36 557.176 2550.82 555.128C2549.28 553.037 2547.02 551.992 2544.04 551.992C2541.09 551.992 2538.83 553.037 2537.25 555.128C2535.67 557.176 2534.88 560.035 2534.88 563.704C2534.88 567.331 2535.63 570.189 2537.12 572.28C2538.62 574.328 2540.84 575.352 2543.78 575.352C2546.77 575.352 2549.07 574.328 2550.69 572.28C2552.31 570.189 2553.12 567.331 2553.12 563.704ZM2572.77 554.296C2574.77 549.859 2578.21 547.64 2583.07 547.64C2585.71 547.64 2587.93 548.301 2589.73 549.624C2591.52 550.904 2592.82 552.696 2593.63 555C2595.55 550.093 2599.11 547.64 2604.32 547.64C2607.99 547.64 2610.82 548.835 2612.83 551.224C2614.83 553.613 2615.84 556.877 2615.84 561.016V579H2610.85V561.016C2610.85 558.072 2610.14 555.853 2608.73 554.36C2607.37 552.867 2605.38 552.12 2602.78 552.12C2600.18 552.12 2598.15 553.187 2596.7 555.32C2595.29 557.453 2594.59 560.397 2594.59 564.152V579H2589.6V561.016C2589.6 558.072 2588.89 555.853 2587.49 554.36C2586.12 552.867 2584.16 552.12 2581.6 552.12C2579.04 552.12 2576.97 553.165 2575.39 555.256C2573.81 557.347 2572.98 560.248 2572.89 563.96V579H2567.84V548.408H2572.19L2572.77 554.296ZM2632.58 554.296C2634.58 549.859 2638.02 547.64 2642.88 547.64C2645.53 547.64 2647.75 548.301 2649.54 549.624C2651.33 550.904 2652.63 552.696 2653.44 555C2655.36 550.093 2658.92 547.64 2664.13 547.64C2667.8 547.64 2670.64 548.835 2672.64 551.224C2674.65 553.613 2675.65 556.877 2675.65 561.016V579H2670.66V561.016C2670.66 558.072 2669.95 555.853 2668.55 554.36C2667.18 552.867 2665.2 552.12 2662.59 552.12C2659.99 552.12 2657.96 553.187 2656.51 555.32C2655.11 557.453 2654.4 560.397 2654.4 564.152V579H2649.41V561.016C2649.41 558.072 2648.71 555.853 2647.3 554.36C2645.93 552.867 2643.97 552.12 2641.41 552.12C2638.85 552.12 2636.78 553.165 2635.2 555.256C2633.62 557.347 2632.79 560.248 2632.71 563.96V579H2627.65V548.408H2632L2632.58 554.296ZM2698.09 575.608C2702.31 575.608 2704.72 573.752 2705.32 570.04H2710.5C2710.03 573.112 2708.67 575.501 2706.41 577.208C2704.19 578.872 2701.41 579.704 2698.09 579.704C2693.99 579.704 2690.66 578.253 2688.1 575.352C2685.54 572.408 2684.26 568.504 2684.26 563.64C2684.26 558.776 2685.54 554.893 2688.1 551.992C2690.71 549.091 2694.14 547.64 2698.41 547.64C2702.72 547.64 2705.92 549.304 2708.01 552.632C2710.14 555.96 2710.89 560.013 2710.25 564.792H2689.32C2689.32 567.949 2690.09 570.552 2691.62 572.6C2693.16 574.605 2695.31 575.608 2698.09 575.608ZM2701.8 552.44C2700.82 551.928 2699.62 551.672 2698.21 551.672C2695.61 551.672 2693.54 552.568 2692.01 554.36C2690.51 556.109 2689.64 558.307 2689.38 560.952H2705.7C2705.7 556.685 2704.4 553.848 2701.8 552.44ZM2725.33 554.296C2727.33 549.859 2730.77 547.64 2735.63 547.64C2739.26 547.64 2742.07 548.835 2744.08 551.224C2746.13 553.613 2747.15 556.877 2747.15 561.016V579H2742.16V561.016C2742.16 558.072 2741.46 555.853 2740.05 554.36C2738.68 552.867 2736.72 552.12 2734.16 552.12C2731.6 552.12 2729.53 553.165 2727.95 555.256C2726.37 557.347 2725.54 560.248 2725.46 563.96V579H2720.4V548.408H2724.75L2725.33 554.296ZM2775.03 578.104C2771.36 579.811 2768.01 580.173 2764.98 579.192C2762.8 578.509 2761.27 577.08 2760.37 574.904C2759.9 573.837 2759.67 572.557 2759.67 571.064V552.248H2754.74V548.408H2759.67V539.896H2764.66V548.408H2774.26V552.248H2764.66V571C2764.66 574.115 2766.11 575.672 2769.01 575.672C2770.59 575.672 2772.36 575.288 2774.32 574.52L2775.03 578.104ZM2781.49 555.896C2781.49 553.379 2782.56 551.373 2784.69 549.88C2786.87 548.387 2789.79 547.64 2793.46 547.64C2797.13 547.64 2799.99 548.408 2802.03 549.944C2804.12 551.48 2805.21 553.421 2805.3 555.768H2800.37C2799.99 552.995 2797.64 551.608 2793.33 551.608C2791.24 551.608 2789.62 552.077 2788.47 553.016C2787.36 553.955 2786.8 554.979 2786.8 556.088C2786.8 557.155 2787.23 558.072 2788.08 558.84C2788.93 559.565 2790.3 560.205 2792.18 560.76L2798.32 562.808C2800.92 563.619 2802.91 564.664 2804.27 565.944C2805.68 567.181 2806.39 568.909 2806.39 571.128C2806.39 573.304 2805.25 575.288 2802.99 577.08C2800.73 578.829 2797.57 579.704 2793.52 579.704C2789.47 579.704 2786.31 578.808 2784.05 577.016C2781.79 575.181 2780.59 572.835 2780.47 569.976H2785.33C2785.41 571.896 2786.18 573.347 2787.63 574.328C2789.13 575.267 2790.98 575.736 2793.2 575.736C2795.42 575.736 2797.25 575.267 2798.71 574.328C2800.16 573.389 2800.88 572.28 2800.88 571C2800.88 569.677 2800.45 568.675 2799.6 567.992C2798.75 567.309 2797.36 566.712 2795.44 566.2L2789.49 564.216C2784.16 562.637 2781.49 559.864 2781.49 555.896Z" fill="#181E53"/>
<rect x="2186" y="792" width="812" height="243" rx="40" fill="white"/>
<path d="M2404.38 894.04C2408.69 894.04 2412.15 895.128 2414.75 897.304C2417.4 899.437 2419.21 902.232 2420.19 905.688L2414.75 906.776C2413.9 904.259 2412.56 902.275 2410.72 900.824C2408.93 899.331 2406.82 898.584 2404.38 898.584C2401.01 898.584 2398.22 899.992 2396 902.808C2393.78 905.624 2392.67 909.549 2392.67 914.584C2392.67 919.576 2393.65 923.587 2395.62 926.616C2397.62 929.645 2400.54 931.16 2404.38 931.16C2407.58 931.16 2410.1 930.328 2411.94 928.664C2413.81 926.957 2414.75 924.717 2414.75 921.944H2420.19C2420.19 926.168 2418.74 929.517 2415.84 931.992C2412.98 934.467 2409.04 935.704 2404 935.704C2399.01 935.704 2394.96 933.784 2391.84 929.944C2388.77 926.104 2387.23 920.963 2387.23 914.52C2387.23 908.077 2388.83 903.064 2392.03 899.48C2395.23 895.853 2399.35 894.04 2404.38 894.04ZM2440.69 903.64C2444.96 903.64 2448.39 905.027 2450.99 907.8C2453.64 910.573 2454.96 914.541 2454.96 919.704C2454.96 924.824 2453.64 928.771 2450.99 931.544C2448.39 934.317 2444.96 935.704 2440.69 935.704C2436.42 935.704 2432.97 934.317 2430.32 931.544C2427.72 928.771 2426.42 924.824 2426.42 919.704C2426.42 914.541 2427.72 910.573 2430.32 907.8C2432.97 905.027 2436.42 903.64 2440.69 903.64ZM2449.84 919.704C2449.84 916.035 2449.07 913.176 2447.54 911.128C2446 909.037 2443.74 907.992 2440.75 907.992C2437.81 907.992 2435.55 909.037 2433.97 911.128C2432.39 913.176 2431.6 916.035 2431.6 919.704C2431.6 923.331 2432.35 926.189 2433.84 928.28C2435.34 930.328 2437.55 931.352 2440.5 931.352C2443.49 931.352 2445.79 930.328 2447.41 928.28C2449.03 926.189 2449.84 923.331 2449.84 919.704ZM2469.48 910.296C2471.49 905.859 2474.92 903.64 2479.79 903.64C2482.43 903.64 2484.65 904.301 2486.44 905.624C2488.24 906.904 2489.54 908.696 2490.35 911C2492.27 906.093 2495.83 903.64 2501.04 903.64C2504.71 903.64 2507.54 904.835 2509.55 907.224C2511.55 909.613 2512.56 912.877 2512.56 917.016V935H2507.56V917.016C2507.56 914.072 2506.86 911.853 2505.45 910.36C2504.09 908.867 2502.1 908.12 2499.5 908.12C2496.9 908.12 2494.87 909.187 2493.42 911.32C2492.01 913.453 2491.31 916.397 2491.31 920.152V935H2486.32V917.016C2486.32 914.072 2485.61 911.853 2484.2 910.36C2482.84 908.867 2480.88 908.12 2478.32 908.12C2475.76 908.12 2473.69 909.165 2472.11 911.256C2470.53 913.347 2469.7 916.248 2469.61 919.96V935H2464.56V904.408H2468.91L2469.48 910.296ZM2529.3 910.296C2531.3 905.859 2534.74 903.64 2539.6 903.64C2542.25 903.64 2544.46 904.301 2546.26 905.624C2548.05 906.904 2549.35 908.696 2550.16 911C2552.08 906.093 2555.64 903.64 2560.85 903.64C2564.52 903.64 2567.36 904.835 2569.36 907.224C2571.37 909.613 2572.37 912.877 2572.37 917.016V935H2567.38V917.016C2567.38 914.072 2566.67 911.853 2565.26 910.36C2563.9 908.867 2561.92 908.12 2559.31 908.12C2556.71 908.12 2554.68 909.187 2553.23 911.32C2551.82 913.453 2551.12 916.397 2551.12 920.152V935H2546.13V917.016C2546.13 914.072 2545.42 911.853 2544.02 910.36C2542.65 908.867 2540.69 908.12 2538.13 908.12C2535.57 908.12 2533.5 909.165 2531.92 911.256C2530.34 913.347 2529.51 916.248 2529.42 919.96V935H2524.37V904.408H2528.72L2529.3 910.296ZM2605.05 928.92C2602.95 933.357 2599.56 935.576 2594.87 935.576C2591.41 935.576 2588.62 934.616 2586.49 932.696C2584.39 930.776 2583.35 927.811 2583.35 923.8V904.344H2588.41V923.416C2588.41 928.579 2590.79 931.16 2595.57 931.16C2598.35 931.16 2600.59 930.093 2602.29 927.96C2604.04 925.827 2604.96 923.096 2605.05 919.768V904.344H2610.1V935H2605.05V928.92ZM2627.92 910.296C2629.93 905.859 2633.36 903.64 2638.23 903.64C2641.85 903.64 2644.67 904.835 2646.67 907.224C2648.72 909.613 2649.75 912.877 2649.75 917.016V935H2644.75V917.016C2644.75 914.072 2644.05 911.853 2642.64 910.36C2641.28 908.867 2639.31 908.12 2636.75 908.12C2634.19 908.12 2632.12 909.165 2630.55 911.256C2628.97 913.347 2628.14 916.248 2628.05 919.96V935H2622.99V904.408H2627.35L2627.92 910.296ZM2661.94 904.344H2667V935H2661.94V904.344ZM2664.44 897.176C2663.41 897.176 2662.6 896.899 2662 896.344C2661.45 895.747 2661.17 894.979 2661.17 894.04C2661.17 893.059 2661.45 892.291 2662 891.736C2662.6 891.139 2663.41 890.84 2664.44 890.84C2665.46 890.84 2666.27 891.139 2666.87 891.736C2667.51 892.291 2667.83 893.059 2667.83 894.04C2667.83 894.979 2667.51 895.747 2666.87 896.344C2666.27 896.899 2665.46 897.176 2664.44 897.176ZM2690.92 903.64C2694.55 903.64 2697.43 904.579 2699.56 906.456C2701.69 908.291 2703.08 910.595 2703.72 913.368L2698.6 913.816C2698.05 912.024 2697.15 910.637 2695.91 909.656C2694.68 908.632 2693.31 908.12 2691.82 908.12C2689.09 908.12 2686.87 909.144 2685.16 911.192C2683.5 913.24 2682.67 916.035 2682.67 919.576C2682.67 923.075 2683.48 925.891 2685.1 928.024C2686.76 930.157 2688.81 931.224 2691.24 931.224C2693.72 931.224 2695.55 930.669 2696.75 929.56C2697.98 928.408 2698.6 926.787 2698.6 924.696H2703.79C2703.79 927.981 2702.63 930.648 2700.33 932.696C2698.07 934.701 2695.1 935.704 2691.43 935.704C2687.55 935.704 2684.24 934.232 2681.51 931.288C2678.83 928.344 2677.48 924.44 2677.48 919.576C2677.48 914.669 2678.83 910.787 2681.51 907.928C2684.2 905.069 2687.34 903.64 2690.92 903.64ZM2732.63 915.16C2732.63 912.387 2732.05 910.403 2730.9 909.208C2729.75 908.013 2728.06 907.416 2725.84 907.416C2723.67 907.416 2721.9 907.864 2720.53 908.76C2719.21 909.613 2718.55 910.979 2718.55 912.856H2712.98C2712.98 908.163 2715.5 905.261 2720.53 904.152C2722.07 903.811 2723.73 903.64 2725.52 903.64C2729.32 903.64 2732.29 904.6 2734.42 906.52C2736.55 908.44 2737.62 911.363 2737.62 915.288V935H2733.27L2732.75 929.88C2730.88 933.763 2727.49 935.704 2722.58 935.704C2719.29 935.704 2716.65 934.787 2714.64 932.952C2712.68 931.117 2711.7 928.835 2711.7 926.104C2711.7 923.373 2712.79 921.24 2714.96 919.704C2717.18 918.168 2719.93 917.4 2723.22 917.4C2726.5 917.4 2729.64 917.955 2732.63 919.064V915.16ZM2732.63 922.264C2729.6 921.411 2726.95 920.984 2724.69 920.984C2722.43 920.984 2720.59 921.389 2719.19 922.2C2717.78 923.011 2717.07 924.291 2717.07 926.04C2717.07 929.88 2719.25 931.8 2723.6 931.8C2726.08 931.8 2728.19 930.925 2729.94 929.176C2731.73 927.384 2732.63 925.08 2732.63 922.264ZM2765.5 934.104C2761.83 935.811 2758.48 936.173 2755.45 935.192C2753.27 934.509 2751.74 933.08 2750.84 930.904C2750.37 929.837 2750.14 928.557 2750.14 927.064V908.248H2745.21V904.408H2750.14V895.896H2755.13V904.408H2764.73V908.248H2755.13V927C2755.13 930.115 2756.58 931.672 2759.48 931.672C2761.06 931.672 2762.83 931.288 2764.79 930.52L2765.5 934.104ZM2784.12 931.608C2788.34 931.608 2790.75 929.752 2791.35 926.04H2796.53C2796.06 929.112 2794.7 931.501 2792.44 933.208C2790.22 934.872 2787.45 935.704 2784.12 935.704C2780.02 935.704 2776.69 934.253 2774.13 931.352C2771.57 928.408 2770.29 924.504 2770.29 919.64C2770.29 914.776 2771.57 910.893 2774.13 907.992C2776.74 905.091 2780.17 903.64 2784.44 903.64C2788.75 903.64 2791.95 905.304 2794.04 908.632C2796.17 911.96 2796.92 916.013 2796.28 920.792H2775.35C2775.35 923.949 2776.12 926.552 2777.65 928.6C2779.19 930.605 2781.34 931.608 2784.12 931.608ZM2787.83 908.44C2786.85 907.928 2785.65 907.672 2784.25 907.672C2781.64 907.672 2779.57 908.568 2778.04 910.36C2776.54 912.109 2775.67 914.307 2775.41 916.952H2791.73C2791.73 912.685 2790.43 909.848 2787.83 908.44Z" fill="#181E53"/>
<rect x="2186" y="1148" width="812" height="243" rx="40" fill="white"/>
<path d="M2435.64 1284.09C2433.85 1289.17 2430.37 1291.7 2425.21 1291.7C2420.05 1291.7 2415.8 1289.83 2412.47 1286.07C2409.19 1282.32 2407.55 1277.26 2407.55 1270.9C2407.55 1264.55 2409.34 1259.49 2412.92 1255.74C2416.55 1251.98 2421.05 1250.1 2426.43 1250.1C2429.58 1250.1 2432.33 1250.74 2434.68 1252.02C2437.07 1253.3 2439.12 1255.35 2440.83 1258.17L2435.96 1259.83C2433.19 1256.38 2429.95 1254.65 2426.23 1254.65C2422.52 1254.65 2419.36 1256.16 2416.76 1259.19C2414.2 1262.22 2412.92 1266.17 2412.92 1271.03C2412.92 1275.85 2414.03 1279.74 2416.25 1282.68C2418.47 1285.62 2421.45 1287.1 2425.21 1287.1C2428.28 1287.1 2430.76 1286.07 2432.63 1284.02C2434.51 1281.98 2435.45 1278.95 2435.45 1274.94V1274.81L2425.34 1274.42V1271.1H2440.38V1291H2436.28L2435.64 1284.09ZM2452.32 1260.34H2457.37V1291H2452.32V1260.34ZM2454.81 1253.18C2453.79 1253.18 2452.98 1252.9 2452.38 1252.34C2451.82 1251.75 2451.55 1250.98 2451.55 1250.04C2451.55 1249.06 2451.82 1248.29 2452.38 1247.74C2452.98 1247.14 2453.79 1246.84 2454.81 1246.84C2455.84 1246.84 2456.65 1247.14 2457.24 1247.74C2457.88 1248.29 2458.2 1249.06 2458.2 1250.04C2458.2 1250.98 2457.88 1251.75 2457.24 1252.34C2456.65 1252.9 2455.84 1253.18 2454.81 1253.18ZM2485.97 1251.7C2484.56 1251.15 2483.45 1250.87 2482.64 1250.87C2481.15 1250.87 2479.97 1251.23 2479.12 1251.96C2478.27 1252.69 2477.84 1253.97 2477.84 1255.8V1260.41H2484.18V1263.86H2477.84V1291H2472.85V1263.86H2467.79V1260.41H2472.85V1255.74C2472.85 1252.71 2473.68 1250.49 2475.34 1249.08C2477.01 1247.63 2478.93 1246.9 2481.1 1246.9C2483.28 1246.9 2485.2 1247.18 2486.86 1247.74L2485.97 1251.7ZM2509.06 1290.1C2505.39 1291.81 2502.04 1292.17 2499.01 1291.19C2496.83 1290.51 2495.3 1289.08 2494.4 1286.9C2493.93 1285.84 2493.7 1284.56 2493.7 1283.06V1264.25H2488.77V1260.41H2493.7V1251.9H2498.69V1260.41H2508.29V1264.25H2498.69V1283C2498.69 1286.11 2500.14 1287.67 2503.04 1287.67C2504.62 1287.67 2506.39 1287.29 2508.35 1286.52L2509.06 1290.1ZM2532.56 1250.74L2543.38 1269.24L2554.45 1250.74H2560.4L2545.94 1274.49V1291H2540.82V1274.49L2526.55 1250.74H2532.56ZM2574.32 1259.64C2578.58 1259.64 2582.02 1261.03 2584.62 1263.8C2587.27 1266.57 2588.59 1270.54 2588.59 1275.7C2588.59 1280.82 2587.27 1284.77 2584.62 1287.54C2582.02 1290.32 2578.58 1291.7 2574.32 1291.7C2570.05 1291.7 2566.59 1290.32 2563.95 1287.54C2561.35 1284.77 2560.04 1280.82 2560.04 1275.7C2560.04 1270.54 2561.35 1266.57 2563.95 1263.8C2566.59 1261.03 2570.05 1259.64 2574.32 1259.64ZM2583.47 1275.7C2583.47 1272.03 2582.7 1269.18 2581.16 1267.13C2579.63 1265.04 2577.37 1263.99 2574.38 1263.99C2571.44 1263.99 2569.17 1265.04 2567.6 1267.13C2566.02 1269.18 2565.23 1272.03 2565.23 1275.7C2565.23 1279.33 2565.97 1282.19 2567.47 1284.28C2568.96 1286.33 2571.18 1287.35 2574.12 1287.35C2577.11 1287.35 2579.41 1286.33 2581.04 1284.28C2582.66 1282.19 2583.47 1279.33 2583.47 1275.7ZM2618.28 1264.95V1247.42H2623.27V1291H2619.17L2618.53 1285.88C2617.55 1287.8 2616.25 1289.25 2614.63 1290.23C2613.01 1291.21 2611.24 1291.7 2609.32 1291.7C2605.43 1291.7 2602.17 1290.21 2599.53 1287.22C2596.92 1284.24 2595.62 1280.35 2595.62 1275.58C2595.62 1270.75 2596.9 1266.89 2599.46 1263.99C2602.06 1261.09 2605.33 1259.64 2609.25 1259.64C2613.22 1259.64 2616.23 1261.41 2618.28 1264.95ZM2609.57 1264.12C2607.1 1264.12 2605.01 1265.17 2603.3 1267.26C2601.64 1269.35 2600.81 1272.14 2600.81 1275.64C2600.81 1279.14 2601.66 1281.95 2603.37 1284.09C2605.07 1286.18 2607.12 1287.22 2609.51 1287.22C2611.9 1287.22 2613.93 1286.43 2615.59 1284.86C2617.3 1283.23 2618.19 1281.08 2618.28 1278.39V1273.4C2618.28 1270.54 2617.45 1268.28 2615.78 1266.62C2614.12 1264.95 2612.05 1264.12 2609.57 1264.12ZM2636.57 1260.34H2641.62V1291H2636.57V1260.34ZM2639.06 1253.18C2638.04 1253.18 2637.23 1252.9 2636.63 1252.34C2636.07 1251.75 2635.8 1250.98 2635.8 1250.04C2635.8 1249.06 2636.07 1248.29 2636.63 1247.74C2637.23 1247.14 2638.04 1246.84 2639.06 1246.84C2640.09 1246.84 2640.9 1247.14 2641.49 1247.74C2642.13 1248.29 2642.45 1249.06 2642.45 1250.04C2642.45 1250.98 2642.13 1251.75 2641.49 1252.34C2640.9 1252.9 2640.09 1253.18 2639.06 1253.18ZM2660.23 1266.3C2662.24 1261.86 2665.67 1259.64 2670.54 1259.64C2674.16 1259.64 2676.98 1260.83 2678.99 1263.22C2681.03 1265.61 2682.06 1268.88 2682.06 1273.02V1291H2677.07V1273.02C2677.07 1270.07 2676.36 1267.85 2674.95 1266.36C2673.59 1264.87 2671.63 1264.12 2669.07 1264.12C2666.51 1264.12 2664.44 1265.17 2662.86 1267.26C2661.28 1269.35 2660.45 1272.25 2660.36 1275.96V1291H2655.31V1260.41H2659.66L2660.23 1266.3ZM2704.49 1287.61C2708.72 1287.61 2711.13 1285.75 2711.72 1282.04H2716.91C2716.44 1285.11 2715.07 1287.5 2712.81 1289.21C2710.59 1290.87 2707.82 1291.7 2704.49 1291.7C2700.4 1291.7 2697.07 1290.25 2694.51 1287.35C2691.95 1284.41 2690.67 1280.5 2690.67 1275.64C2690.67 1270.78 2691.95 1266.89 2694.51 1263.99C2697.11 1261.09 2700.55 1259.64 2704.81 1259.64C2709.12 1259.64 2712.32 1261.3 2714.41 1264.63C2716.55 1267.96 2717.29 1272.01 2716.65 1276.79H2695.72C2695.72 1279.95 2696.49 1282.55 2698.03 1284.6C2699.56 1286.61 2701.72 1287.61 2704.49 1287.61ZM2708.2 1264.44C2707.22 1263.93 2706.03 1263.67 2704.62 1263.67C2702.02 1263.67 2699.95 1264.57 2698.41 1266.36C2696.92 1268.11 2696.04 1270.31 2695.79 1272.95H2712.11C2712.11 1268.69 2710.81 1265.85 2708.2 1264.44ZM2739.35 1264.7C2734.53 1264.7 2732.03 1268.49 2731.86 1276.09V1291H2726.81V1260.34H2731.86V1266.23C2733.4 1261.97 2736.11 1259.83 2739.99 1259.83C2741.23 1259.83 2742.4 1260.02 2743.51 1260.41L2743.25 1265.34C2741.97 1264.91 2740.67 1264.7 2739.35 1264.7ZM2762.25 1259.64C2766.52 1259.64 2769.95 1261.03 2772.56 1263.8C2775.2 1266.57 2776.53 1270.54 2776.53 1275.7C2776.53 1280.82 2775.2 1284.77 2772.56 1287.54C2769.95 1290.32 2766.52 1291.7 2762.25 1291.7C2757.99 1291.7 2754.53 1290.32 2751.89 1287.54C2749.28 1284.77 2747.98 1280.82 2747.98 1275.7C2747.98 1270.54 2749.28 1266.57 2751.89 1263.8C2754.53 1261.03 2757.99 1259.64 2762.25 1259.64ZM2771.41 1275.7C2771.41 1272.03 2770.64 1269.18 2769.1 1267.13C2767.57 1265.04 2765.3 1263.99 2762.32 1263.99C2759.37 1263.99 2757.11 1265.04 2755.53 1267.13C2753.95 1269.18 2753.17 1272.03 2753.17 1275.7C2753.17 1279.33 2753.91 1282.19 2755.41 1284.28C2756.9 1286.33 2759.12 1287.35 2762.06 1287.35C2765.05 1287.35 2767.35 1286.33 2768.97 1284.28C2770.59 1282.19 2771.41 1279.33 2771.41 1275.7Z" fill="#181E53"/>
<path d="M928 120C1018.96 120 1109.93 120 1200.89 120C1210.25 120 1181.32 105.732 1188.44 106.444C1191.97 106.797 1208.95 110.776 1207.11 116C1201.69 131.373 1192.42 137.788 1180 144" stroke="#181E53" stroke-width="5" stroke-linecap="round" stroke-linejoin="round"/>
</svg>
